<svg width="25" height="40" viewBox="0 0 25 40" fill="none" xmlns="http://www.w3.org/2000/svg">
<g clip-path="url(#clip0_2176_90)">
<path d="M18.2609 10.3252C20.1121 11.3934 21.6493 12.9304 22.7179 14.7814C23.7864 16.6324 24.3486 18.7322 24.3478 20.8696V34.7826H17.0957C16.7363 35.8009 16.07 36.6827 15.1885 37.3064C14.307 37.9302 13.2538 38.2651 12.1739 38.2651C11.0941 38.2651 10.0408 37.9302 9.1593 37.3064C8.27781 36.6827 7.61148 35.8009 7.25218 34.7826H8.11011e-07V20.8696C-0.0007794 18.7322 0.561389 16.6324 1.62994 14.7814C2.69849 12.9304 4.23572 11.3934 6.08696 10.3252C5.80119 9.81195 5.58204 9.26435 5.43478 8.69565H8.11011e-07V5.21739H5.43652C5.82337 3.72479 6.69491 2.40292 7.91433 1.45925C9.13375 0.515589 10.632 0.00357056 12.1739 0.00357056C13.7158 0.00357056 15.2141 0.515589 16.4335 1.45925C17.6529 2.40292 18.5245 3.72479 18.9113 5.21739H24.3478V8.69565H18.9113C18.7643 9.26391 18.5464 9.81141 18.2626 10.3252H18.2609ZM15.7339 12.9339C14.6579 13.5769 13.4274 13.9154 12.1739 13.913C10.9205 13.9148 9.69011 13.5764 8.61391 12.9339C7.08391 13.6207 5.7851 14.7352 4.87393 16.1432C3.96275 17.5511 3.47807 19.1925 3.47826 20.8696V31.3043H6.95652V24.3478C6.95652 22.9641 7.50621 21.637 8.48466 20.6586C9.46311 19.6801 10.7902 19.1304 12.1739 19.1304C13.5577 19.1304 14.8847 19.6801 15.8632 20.6586C16.8416 21.637 17.3913 22.9641 17.3913 24.3478V31.3043H20.8696V20.8696C20.8698 19.1925 20.3851 17.5511 19.4739 16.1432C18.5627 14.7352 17.2639 13.6207 15.7339 12.9339ZM12.1739 22.6087C11.7127 22.6087 11.2703 22.7919 10.9442 23.1181C10.618 23.4442 10.4348 23.8866 10.4348 24.3478V33.0435C10.4348 33.5047 10.618 33.9471 10.9442 34.2732C11.2703 34.5994 11.7127 34.7826 12.1739 34.7826C12.6352 34.7826 13.0775 34.5994 13.4037 34.2732C13.7298 33.9471 13.913 33.5047 13.913 33.0435V24.3478C13.913 23.8866 13.7298 23.4442 13.4037 23.1181C13.0775 22.7919 12.6352 22.6087 12.1739 22.6087ZM12.1739 10.4348C13.0964 10.4348 13.9811 10.0683 14.6334 9.41602C15.2857 8.76372 15.6522 7.87901 15.6522 6.95652C15.6522 6.03402 15.2857 5.14932 14.6334 4.49702C13.9811 3.84471 13.0964 3.47826 12.1739 3.47826C11.2514 3.47826 10.3667 3.84471 9.71441 4.49702C9.06211 5.14932 8.69565 6.03402 8.69565 6.95652C8.69565 7.87901 9.06211 8.76372 9.71441 9.41602C10.3667 10.0683 11.2514 10.4348 12.1739 10.4348Z" fill="#005CE5"/>
</g>
<defs>
<clipPath id="clip0_2176_90">
<rect width="24.3478" height="40" fill="white"/>
</clipPath>
</defs>
</svg>
