<svg width="61" height="60" viewBox="0 0 61 60" fill="none" xmlns="http://www.w3.org/2000/svg">
<g clip-path="url(#clip0_2191_76)">
<path d="M27.0001 28.5714C30.7889 28.5714 34.4225 27.0663 37.1016 24.3872C39.7807 21.7081 41.2858 18.0745 41.2858 14.2857C41.2858 10.4969 39.7807 6.86325 37.1016 4.18416C34.4225 1.50507 30.7889 -3.05176e-05 27.0001 -3.05176e-05C23.2113 -3.05176e-05 19.5776 1.50507 16.8985 4.18416C14.2195 6.86325 12.7144 10.4969 12.7144 14.2857C12.7144 18.0745 14.2195 21.7081 16.8985 24.3872C19.5776 27.0663 23.2113 28.5714 27.0001 28.5714Z" fill="#005CE5"/>
<path opacity="0.4" d="M27.0007 35.7143C12.6864 35.7143 1.0293 45.3143 1.0293 57.1428C1.0293 57.9428 1.65787 58.5714 2.45787 58.5714H51.5436C52.3436 58.5714 52.9722 57.9428 52.9722 57.1428C52.9722 45.3143 41.315 35.7143 27.0007 35.7143Z" fill="#005CE5"/>
<path d="M57.7713 53.3772L55.5999 51.2058C56.7427 49.4915 57.3999 47.4343 57.3999 45.2343C57.3999 43.0757 56.7598 40.9655 55.5605 39.1707C54.3612 37.3758 52.6566 35.9769 50.6623 35.1508C48.668 34.3248 46.4735 34.1086 44.3563 34.5298C42.2391 34.9509 40.2944 35.9904 38.768 37.5168C37.2416 39.0432 36.2021 40.9879 35.781 43.1051C35.3599 45.2222 35.576 47.4167 36.4021 49.411C37.2282 51.4054 38.6271 53.1099 40.4219 54.3092C42.2168 55.5085 44.3269 56.1486 46.4856 56.1486C48.6856 56.1486 50.7427 55.4915 52.457 54.3486L54.6284 56.52C55.057 56.9486 55.6284 57.1772 56.1999 57.1772C56.7713 57.1772 57.3427 56.9486 57.7713 56.52C58.657 55.6343 58.657 54.2343 57.7713 53.3772Z" fill="#005CE5"/>
</g>
<defs>
<clipPath id="clip0_2191_76">
<rect width="60" height="60" fill="white" transform="translate(0.333496)"/>
</clipPath>
</defs>
</svg>
