<svg width="43" height="40" viewBox="0 0 43 40" fill="none" xmlns="http://www.w3.org/2000/svg">
<path opacity="0.4" d="M4.97803 25.3159L1.93803 22.2759C0.698026 21.0359 0.698026 18.9959 1.93803 17.7559L4.97803 14.7159C5.49803 14.1959 5.91803 13.1759 5.91803 12.4559V8.1559C5.91803 6.3959 7.35803 4.9559 9.11803 4.9559H13.418C14.138 4.9559 15.158 4.5359 15.678 4.0159L18.718 0.975898C19.958 -0.264102 21.998 -0.264102 23.238 0.975898L26.278 4.0159C26.798 4.5359 27.818 4.9559 28.538 4.9559H32.838C34.598 4.9559 36.038 6.3959 36.038 8.1559V12.4559C36.038 13.1759 36.458 14.1959 36.978 14.7159L40.018 17.7559C41.258 18.9959 41.258 21.0359 40.018 22.2759L36.978 25.3159C36.458 25.8359 36.038 26.8559 36.038 27.5759V31.8759C36.038 33.6359 34.598 35.0759 32.838 35.0759H28.538C27.818 35.0759 26.798 35.4959 26.278 36.0159L23.238 39.0559C21.998 40.2959 19.958 40.2959 18.718 39.0559L15.678 36.0159C15.158 35.4959 14.138 35.0759 13.418 35.0759H9.11803C7.35803 35.0759 5.91803 33.6359 5.91803 31.8759V27.5759C5.91803 26.8359 5.49803 25.8159 4.97803 25.3159Z" fill="#005CE5"/>
<path d="M26.996 28C25.876 28 24.976 27.1 24.976 26C24.976 24.9 25.876 24 26.976 24C28.076 24 28.976 24.9 28.976 26C28.976 27.1 28.096 28 26.996 28ZM15.02 16C13.9 16 13 15.1 13 14C13 12.9 13.9 12 15 12C16.1 12 17 12.9 17 14C17 15.1 16.12 16 15.02 16ZM15.002 27.502C14.622 27.502 14.242 27.362 13.942 27.062C13.6635 26.7795 13.5074 26.3987 13.5074 26.002C13.5074 25.6053 13.6635 25.2245 13.942 24.942L25.942 12.942C26.522 12.362 27.482 12.362 28.062 12.942C28.642 13.522 28.642 14.482 28.062 15.062L16.062 27.062C15.762 27.362 15.382 27.502 15.002 27.502Z" fill="#005CE5"/>
</svg>
