<svg width="60" height="60" viewBox="0 0 60 60" fill="none" xmlns="http://www.w3.org/2000/svg">
<path opacity="0.4" d="M57.0846 28.8396V45.7924C57.0846 53.6038 50.745 59.9434 42.9337 59.9434H18.1978C10.3865 59.9434 4.04688 53.6038 4.04688 45.7924V29.0377C6.19782 31.3585 9.25442 32.6887 12.5657 32.6887C16.1318 32.6887 19.5563 30.9056 21.7073 28.0471C22.6894 29.4885 24.0113 30.6659 25.5562 31.4754C27.1012 32.2849 28.8216 32.7016 30.5657 32.6887C34.1884 32.6887 37.4148 30.9905 39.3676 28.1604C41.5469 30.9622 44.9148 32.6887 48.4242 32.6887C51.8488 32.6887 54.962 31.3019 57.0846 28.8396Z" fill="#005CE5"/>
<path d="M39.0277 0.14151H22.0466L19.9522 20.9717C19.7824 22.8962 20.0655 24.7075 20.773 26.3491C22.4145 30.1981 26.2636 32.6887 30.5655 32.6887C34.9239 32.6887 38.6881 30.2547 40.3862 26.3774C40.8956 25.1604 41.207 23.7453 41.2353 22.3019V21.7642L39.0277 0.14151Z" fill="#005CE5"/>
<path opacity="0.6" d="M59.8871 20.0094L59.0663 12.1698C57.8776 3.62264 54.0003 0.14151 45.7078 0.14151H34.8399L36.9342 21.3679C36.9625 21.6509 36.9908 21.9623 36.9908 22.5C37.1606 23.9717 37.6135 25.3302 38.2927 26.5472C40.3305 30.283 44.2927 32.6887 48.4248 32.6887C52.1889 32.6887 55.5852 31.0189 57.7078 28.0755C59.4059 25.8113 60.1701 22.9528 59.8871 20.0094ZM15.255 0.14151C6.93423 0.14151 3.08518 3.62264 1.8682 12.2547L1.10405 20.0377C0.821026 23.066 1.64178 26.0094 3.4248 28.3019C5.57574 31.1038 8.88706 32.6887 12.5663 32.6887C16.6984 32.6887 20.6606 30.283 22.6701 26.6038C23.4059 25.3302 23.8871 23.8585 24.0286 22.3302L26.2361 0.169812H15.255V0.14151Z" fill="#005CE5"/>
<path d="M28.7269 43.7547C26.9894 43.9403 25.3824 44.7635 24.2167 46.0652C23.0509 47.3668 22.4092 49.0545 22.4156 50.8019V59.9434H38.6892V51.7925C38.7175 45.8774 35.2363 43.0755 28.7269 43.7547Z" fill="#005CE5"/>
</svg>
