<svg width="61" height="60" viewBox="0 0 61 60" fill="none" xmlns="http://www.w3.org/2000/svg">
<path d="M44.0748 58.6364C45.3406 58.6364 46.5546 58.1336 47.4496 57.2385C48.3447 56.3434 48.8475 55.1295 48.8475 53.8637C48.8475 52.5979 48.3447 51.3839 47.4496 50.4888C46.5546 49.5938 45.3406 49.0909 44.0748 49.0909C42.809 49.0909 41.595 49.5938 40.7 50.4888C39.8049 51.3839 39.3021 52.5979 39.3021 53.8637C39.3021 55.1295 39.8049 56.3434 40.7 57.2385C41.595 58.1336 42.809 58.6364 44.0748 58.6364ZM22.2566 58.6364C23.5224 58.6364 24.7364 58.1336 25.6314 57.2385C26.5265 56.3434 27.0293 55.1295 27.0293 53.8637C27.0293 52.5979 26.5265 51.3839 25.6314 50.4888C24.7364 49.5938 23.5224 49.0909 22.2566 49.0909C20.9908 49.0909 19.7768 49.5938 18.8818 50.4888C17.9867 51.3839 17.4839 52.5979 17.4839 53.8637C17.4839 55.1295 17.9867 56.3434 18.8818 57.2385C19.7768 58.1336 20.9908 58.6364 22.2566 58.6364Z" fill="#005CE5"/>
<path opacity="0.4" d="M12.9564 8.01822L12.411 14.7C12.3019 15.9819 13.311 17.0455 14.5928 17.0455H56.3473C57.4928 17.0455 58.4473 16.1728 58.5292 15.0273C58.8837 10.2 55.2019 6.27276 50.3746 6.27276H16.911C16.6383 5.07276 16.0928 3.92731 15.2473 2.97276C14.5823 2.25446 13.7768 1.68046 12.8807 1.28638C11.9846 0.892298 11.0171 0.686534 10.0383 0.681854H5.21098C4.0928 0.681854 3.16553 1.60913 3.16553 2.72731C3.16553 3.84549 4.0928 4.77276 5.21098 4.77276H9.95644C10.8019 4.77276 11.5928 5.12731 12.1655 5.72731C12.7383 6.35458 13.011 7.17276 12.9564 8.01822Z" fill="#005CE5"/>
<path d="M55.6929 21.1364H13.8566C12.7111 21.1364 11.7839 22.0092 11.6748 23.1273L10.6929 34.991C10.3111 39.6273 13.9657 43.6364 18.6293 43.6364H48.9566C53.0475 43.6364 56.6475 40.2819 56.9475 36.191L57.8475 23.4546C57.8735 23.1575 57.8368 22.8583 57.7399 22.5762C57.6431 22.2941 57.4881 22.0355 57.2851 21.817C57.082 21.5986 56.8354 21.4251 56.5612 21.3079C56.2869 21.1907 55.9912 21.1323 55.6929 21.1364Z" fill="#005CE5"/>
</svg>
