<svg width="39" height="40" viewBox="0 0 39 40" fill="none" xmlns="http://www.w3.org/2000/svg">
<path d="M32.1844 15.5556C31.595 15.5556 31.0298 15.3214 30.613 14.9047C30.1963 14.4879 29.9621 13.9227 29.9621 13.3333C29.9621 12.744 30.1963 12.1787 30.613 11.762C31.0298 11.3452 31.595 11.1111 32.1844 11.1111C32.7737 11.1111 33.339 11.3452 33.7557 11.762C34.1725 12.1787 34.4066 12.744 34.4066 13.3333C34.4066 13.9227 34.1725 14.4879 33.7557 14.9047C33.339 15.3214 32.7737 15.5556 32.1844 15.5556ZM18.851 15.5556H5.51769V4.44444H18.851M36.1177 9.4L36.1399 9.37778L27.8732 1.11111L25.5177 3.46667L30.2066 8.15556C28.1177 8.88889 26.6288 10.9556 26.6288 13.3333C26.6288 14.0629 26.7725 14.7853 27.0517 15.4594C27.3309 16.1334 27.7401 16.7458 28.256 17.2617C29.2979 18.3036 30.7109 18.8889 32.1844 18.8889C32.9844 18.8889 33.7177 18.7111 34.4066 18.4222V34.4444C34.4066 35.0338 34.1725 35.599 33.7557 36.0158C33.339 36.4325 32.7737 36.6667 32.1844 36.6667C31.595 36.6667 31.0298 36.4325 30.613 36.0158C30.1963 35.599 29.9621 35.0338 29.9621 34.4444V24.4444C29.9621 23.2657 29.4939 22.1352 28.6604 21.3018C27.8269 20.4683 26.6964 20 25.5177 20H23.2955V4.44444C23.2955 3.2657 22.8272 2.13524 21.9937 1.30175C21.1602 0.468252 20.0298 0 18.851 0H5.51769C3.05102 0 1.07324 1.97778 1.07324 4.44444V40H23.2955V23.3333H26.6288V34.4444C26.6288 35.9179 27.2141 37.3309 28.256 38.3728C29.2979 39.4147 30.7109 40 32.1844 40C32.9139 40 33.6363 39.8563 34.3104 39.5771C34.9844 39.2979 35.5968 38.8887 36.1127 38.3728C36.6286 37.8569 37.0378 37.2445 37.317 36.5705C37.5962 35.8964 37.7399 35.174 37.7399 34.4444V13.3333C37.7399 11.8 37.1177 10.4 36.1177 9.4Z" fill="#005CE5"/>
</svg>
