<svg width="41" height="40" viewBox="0 0 41 40" fill="none" xmlns="http://www.w3.org/2000/svg">
<path d="M39.3963 7.61905V12.2286C39.3963 15.2381 37.4916 17.1429 34.4821 17.1429H27.9678V3.82857C27.9678 1.71429 29.7011 0 31.8154 0C33.8916 0.0190476 35.7963 0.857143 37.1678 2.22857C38.5392 3.61905 39.3963 5.52381 39.3963 7.61905Z" fill="#005CE5"/>
<path opacity="0.4" d="M1.30176 9.52381V36.1905C1.30176 37.7714 3.09223 38.6667 4.34938 37.7143L7.60652 35.2762C8.36842 34.7048 9.43509 34.781 10.1208 35.4667L13.2827 38.6476C14.0256 39.3905 15.2446 39.3905 15.9875 38.6476L19.1875 35.4476C19.8541 34.781 20.9208 34.7048 21.6637 35.2762L24.9208 37.7143C26.1779 38.6476 27.9684 37.7524 27.9684 36.1905V3.80952C27.9684 1.71429 29.6827 0 31.7779 0H8.92081C3.20652 0 1.30176 3.40952 1.30176 7.61905V9.52381Z" fill="#005CE5"/>
<path d="M20.3493 14.7619H8.92076C8.13981 14.7619 7.49219 14.1143 7.49219 13.3333C7.49219 12.5524 8.13981 11.9048 8.92076 11.9048H20.3493C21.1303 11.9048 21.7779 12.5524 21.7779 13.3333C21.7779 14.1143 21.1303 14.7619 20.3493 14.7619ZM18.9208 22.3809H10.3493C9.56838 22.3809 8.92076 21.7333 8.92076 20.9524C8.92076 20.1714 9.56838 19.5238 10.3493 19.5238H18.9208C19.7017 19.5238 20.3493 20.1714 20.3493 20.9524C20.3493 21.7333 19.7017 22.3809 18.9208 22.3809Z" fill="#005CE5"/>
</svg>
