<svg width="47" height="40" viewBox="0 0 47 40" fill="none" xmlns="http://www.w3.org/2000/svg">
<path d="M31.999 25.64L36.879 28.46L35.379 31.06L28.999 27.38V20H31.999V25.64ZM44.999 26C44.999 33.74 38.739 40 30.999 40C23.259 40 16.999 33.74 16.999 26C16.999 25.32 17.059 24.66 17.159 24H0.999023V0H36.999V13.36C41.719 15.62 44.999 20.42 44.999 26ZM18.359 20C18.719 19.28 19.099 18.6 19.559 17.94C19.379 18 19.199 18 18.999 18C15.679 18 12.999 15.32 12.999 12C12.999 8.68 15.679 6 18.999 6C22.319 6 24.999 8.68 24.999 12C24.999 12.5 24.919 13 24.799 13.46C26.679 12.54 28.779 12 30.999 12C31.679 12 32.339 12.06 32.999 12.16V8C31.9382 8 30.9207 7.57857 30.1706 6.82843C29.4205 6.07828 28.999 5.06087 28.999 4H8.99902C8.99902 6.22 7.21902 8 4.99902 8V16C6.05989 16 7.07731 16.4214 7.82745 17.1716C8.5776 17.9217 8.99902 18.9391 8.99902 20H18.359ZM40.999 26C40.999 20.48 36.519 16 30.999 16C25.479 16 20.999 20.48 20.999 26C20.999 31.52 25.479 36 30.999 36C36.519 36 40.999 31.52 40.999 26Z" fill="#005CE5"/>
</svg>
