<svg width="63" height="60" viewBox="0 0 63 60" fill="none" xmlns="http://www.w3.org/2000/svg">
<path d="M60.75 60H5.25C4.02 60 3 58.98 3 57.75C3 56.52 4.02 55.5 5.25 55.5H60.75C61.98 55.5 63 56.52 63 57.75C63 58.98 61.98 60 60.75 60Z" fill="#005CE5"/>
<path opacity="0.4" d="M58.7667 35.097L37.0767 56.787C36.0706 57.7984 34.875 58.6015 33.5583 59.1504C32.2415 59.6994 30.8295 59.9833 29.4029 59.9861C27.9764 59.9889 26.5632 59.7104 25.2444 59.1667C23.9255 58.6229 22.7268 57.8244 21.7167 56.817L7.88672 42.987L44.9667 5.90698L58.7967 19.737C59.8042 20.747 60.6026 21.9458 61.1464 23.2646C61.6902 24.5835 61.9686 25.9966 61.9659 27.4232C61.9631 28.8498 61.6791 30.2618 61.1302 31.5785C60.5812 32.8953 59.7781 34.0909 58.7667 35.097Z" fill="#005CE5"/>
<path d="M44.9677 5.90996L7.85766 42.99L5.12766 40.26C4.12022 39.2499 3.32177 38.0512 2.77798 36.7323C2.23419 35.4134 1.95573 34.0003 1.95852 32.5737C1.9613 31.1472 2.24528 29.7351 2.79422 28.4184C3.34316 27.1017 4.14628 25.9061 5.15766 24.9L26.8477 3.20996C27.8538 2.19859 29.0494 1.39546 30.3661 0.846528C31.6828 0.297592 33.0949 0.0136102 34.5214 0.0108239C35.948 0.00803765 37.3611 0.286502 38.68 0.83029C39.9989 1.37408 41.1976 2.17252 42.2077 3.17996L44.9677 5.90996ZM35.6707 46.797L31.6207 50.847C30.7807 51.687 29.4307 51.687 28.5907 50.847C28.3909 50.6484 28.2324 50.4124 28.1242 50.1524C28.0161 49.8924 27.9604 49.6136 27.9604 49.332C27.9604 49.0504 28.0161 48.7715 28.1242 48.5115C28.2324 48.2515 28.3909 48.0155 28.5907 47.817L32.6407 43.767C33.4807 42.927 34.8307 42.927 35.6707 43.767C36.5107 44.607 36.5107 45.957 35.6707 46.797ZM48.8107 33.66L40.7407 41.73C39.9007 42.57 38.5507 42.57 37.7107 41.73C37.5109 41.5314 37.3524 41.2954 37.2443 41.0354C37.1361 40.7754 37.0804 40.4966 37.0804 40.215C37.0804 39.9334 37.1361 39.6545 37.2443 39.3945C37.3524 39.1345 37.5109 38.8985 37.7107 38.7L45.7807 30.63C46.6207 29.79 47.9707 29.79 48.8107 30.63C49.6207 31.47 49.6207 32.82 48.8107 33.66Z" fill="#005CE5"/>
</svg>
