<svg width="40" height="40" viewBox="0 0 40 40" fill="none" xmlns="http://www.w3.org/2000/svg">
<g clip-path="url(#clip0_2257_73)">
<path opacity="0.4" d="M32.9386 29.6588L33.7186 35.9785C33.9186 37.6385 32.1387 38.7984 30.7187 37.9384L22.3391 32.9586C21.4191 32.9586 20.5192 32.8986 19.6392 32.7787C21.1551 31.0214 21.9922 28.7797 21.9991 26.4589C21.9991 20.7791 17.0793 16.1793 10.9995 16.1793C8.67965 16.1793 6.53973 16.8393 4.75981 17.9993C4.69981 17.4993 4.67981 16.9993 4.67981 16.4793C4.67981 7.3797 12.5795 0 22.3391 0C32.0987 0 39.9984 7.3797 39.9984 16.4793C39.9984 21.8791 37.2185 26.6589 32.9386 29.6588Z" fill="#005CE5"/>
<path d="M21.9991 26.459C21.9991 28.8389 21.1191 31.0388 19.6392 32.7788C17.6593 35.1787 14.5194 36.7186 10.9995 36.7186L5.77976 39.8185C4.8998 40.3585 3.77985 39.6185 3.89984 38.5985L4.39982 34.6587C1.71993 32.7988 0 29.8189 0 26.459C0 22.9392 1.87992 19.8393 4.75981 17.9994C6.53973 16.8394 8.67964 16.1794 10.9995 16.1794C17.0793 16.1794 21.9991 20.7793 21.9991 26.459Z" fill="#005CE5"/>
</g>
<defs>
<clipPath id="clip0_2257_73">
<rect width="39.9984" height="40" fill="white"/>
</clipPath>
</defs>
</svg>
