<svg width="42" height="40" viewBox="0 0 42 40" fill="none" xmlns="http://www.w3.org/2000/svg">
<g clip-path="url(#clip0_2257_67)">
<path opacity="0.4" d="M34.4762 36.7618C34.0953 36.7618 33.7143 36.5713 33.5238 36.3809C32.9524 35.8094 32.9524 34.8571 33.5238 34.2856C36.7619 31.0475 38.4762 26.6666 38.4762 21.9047C38.4762 12.1904 30.6667 4.38087 20.9524 4.38087C11.2381 4.38087 3.4286 12.1904 3.4286 21.9047C3.4286 26.4761 5.14289 30.8571 8.38098 34.2856C8.95241 34.8571 8.95241 35.8094 8.38098 36.3809C7.80955 36.9523 6.85717 36.9523 6.28574 36.3809C2.47622 32.5713 0.380981 27.4285 0.380981 22.0952C0.380981 10.6666 9.71431 1.33325 20.9524 1.33325C32.1905 1.33325 41.5238 10.4761 41.5238 21.9047C41.5238 27.238 39.4286 32.3809 35.6191 36.1904C35.2381 36.5713 34.8572 36.7618 34.4762 36.7618Z" fill="#005CE5"/>
<path d="M20.9524 39.9999C22.9226 39.9999 24.812 39.2173 26.2052 37.8241C27.5983 36.431 28.3809 34.5415 28.3809 32.5714C28.3809 30.6012 27.5983 28.7117 26.2052 27.3186C24.812 25.9254 22.9226 25.1428 20.9524 25.1428C18.9822 25.1428 17.0927 25.9254 15.6996 27.3186C14.3065 28.7117 13.5238 30.6012 13.5238 32.5714C13.5238 34.5415 14.3065 36.431 15.6996 37.8241C17.0927 39.2173 18.9822 39.9999 20.9524 39.9999ZM28.5714 14.2856C26.4762 14.2856 24.7619 15.9999 24.7619 18.0952V19.619C24.7619 20.9523 25.9048 21.9047 27.0476 21.9047H28.5714C30.6667 21.9047 32.3809 20.1904 32.3809 18.0952C32.3809 15.9999 30.6667 14.2856 28.5714 14.2856Z" fill="#005CE5"/>
</g>
<defs>
<clipPath id="clip0_2257_67">
<rect width="41.9048" height="40" fill="white"/>
</clipPath>
</defs>
</svg>
