<svg width="47" height="40" viewBox="0 0 47 40" fill="none" xmlns="http://www.w3.org/2000/svg">
<path opacity="0.4" d="M44.662 20.0873C44.4053 19.8337 44.0591 19.6915 43.6983 19.6915C43.3375 19.6915 42.9913 19.8337 42.7347 20.0873L41.8983 20.9237V19.9964C41.8983 9.96002 33.7347 1.79639 23.6983 1.79639C18.1529 1.79639 12.9711 4.2873 9.49833 8.61457C9.0256 9.19639 9.11651 10.0691 9.71651 10.5237C10.2983 10.9964 11.1711 10.9055 11.6256 10.3055C13.0719 8.49265 14.9086 7.0296 16.9989 6.02536C19.0893 5.02112 21.3793 4.50159 23.6983 4.50548C32.2256 4.50548 39.1711 11.4509 39.1711 19.9782V20.8873L38.3347 20.0509C38.0781 19.7973 37.7318 19.6551 37.3711 19.6551C37.0103 19.6551 36.664 19.7973 36.4074 20.0509C35.8801 20.5782 35.8801 21.4509 36.4074 21.9782L39.5711 25.1418C39.8294 25.3934 40.1742 25.5365 40.5347 25.5418C40.8961 25.5409 41.2425 25.3971 41.4983 25.1418L44.662 21.9782C45.1892 21.4873 45.1892 20.6146 44.662 20.0873ZM37.6801 29.4564C37.5414 29.3432 37.3814 29.2589 37.2095 29.2085C37.0377 29.1581 36.8575 29.1427 36.6796 29.163C36.5017 29.1833 36.3296 29.2391 36.1736 29.3269C36.0176 29.4148 35.8807 29.533 35.7711 29.6746C34.3248 31.4874 32.4881 32.9504 30.3977 33.9547C28.3074 34.9589 26.0174 35.4785 23.6983 35.4746C15.1711 35.4746 8.2256 28.5291 8.2256 20.0018V19.0928L9.06197 19.9291C9.33469 20.2018 9.68015 20.3291 10.0256 20.3291C10.3711 20.3291 10.7165 20.2018 10.9892 19.9291C11.5165 19.4018 11.5165 18.5291 10.9892 18.0018L7.8256 14.8382C7.69961 14.7148 7.5516 14.6161 7.38924 14.5473C7.22595 14.4754 7.04948 14.4382 6.87106 14.4382C6.69263 14.4382 6.51616 14.4754 6.35288 14.5473C6.18924 14.62 6.04379 14.7109 5.91651 14.8382L2.75288 18.0018C2.2256 18.5291 2.2256 19.4018 2.75288 19.9291C3.28015 20.4564 4.15288 20.4564 4.68015 19.9291L5.51651 19.0928V20.0018C5.51651 30.0382 13.6801 38.2018 23.7165 38.2018C29.262 38.2018 34.4438 35.7109 37.9165 31.3837C38.3711 30.8018 38.2801 29.9291 37.6801 29.4564Z" fill="#005CE5"/>
<path d="M30.3506 15.6356L29.6865 17.9013H17.0303L17.6943 15.6356H30.3506ZM24.4131 30.9091L17.2646 22.1591L17.2256 20.5185H20.7803C21.7048 20.5185 22.4925 20.3883 23.1436 20.1278C23.7946 19.8609 24.2926 19.4638 24.6377 18.9364C24.9827 18.4026 25.1553 17.732 25.1553 16.9247C25.1553 15.7333 24.7972 14.7991 24.0811 14.122C23.3649 13.4384 22.2646 13.0966 20.7803 13.0966H17.0303L17.6943 10.9091H20.7803C22.3688 10.9091 23.6709 11.1728 24.6865 11.7001C25.7087 12.2209 26.4639 12.9371 26.9521 13.8485C27.4469 14.7535 27.6943 15.7789 27.6943 16.9247C27.6943 17.9599 27.4665 18.9136 27.0107 19.786C26.5615 20.6519 25.8389 21.3485 24.8428 21.8759C23.8532 22.4032 22.5446 22.6669 20.917 22.6669H20.8584L27.46 30.7528V30.9091H24.4131ZM30.3506 10.9091L29.6865 13.1747L19.7256 13.0966L20.3896 10.9091H30.3506Z" fill="#005CE5"/>
</svg>
