<svg width="36" height="40" viewBox="0 0 36 40" fill="none" xmlns="http://www.w3.org/2000/svg">
<g clip-path="url(#clip0_2176_70)">
<path opacity="0.4" d="M18.0002 40C22.599 40 27.0095 38.1731 30.2614 34.9212C33.5133 31.6694 35.3402 27.2589 35.3402 22.66C35.3402 18.0612 33.5133 13.6507 30.2614 10.3988C27.0095 7.1469 22.599 5.32001 18.0002 5.32001C13.4013 5.32001 8.99081 7.1469 5.73892 10.3988C2.48704 13.6507 0.660156 18.0612 0.660156 22.66C0.660156 27.2589 2.48704 31.6694 5.73892 34.9212C8.99081 38.1731 13.4013 40 18.0002 40Z" fill="#005CE5"/>
<path d="M18.0003 23.5C17.1803 23.5 16.5003 22.82 16.5003 22V12C16.5003 11.18 17.1803 10.5 18.0003 10.5C18.8203 10.5 19.5003 11.18 19.5003 12V22C19.5003 22.82 18.8203 23.5 18.0003 23.5ZM23.7803 2.9H12.2203C11.4203 2.9 10.7803 2.26 10.7803 1.46C10.7803 0.66 11.4203 0 12.2203 0H23.7803C24.5803 0 25.2203 0.64 25.2203 1.44C25.2203 2.24 24.5803 2.9 23.7803 2.9Z" fill="#005CE5"/>
</g>
<defs>
<clipPath id="clip0_2176_70">
<rect width="36" height="40" fill="white"/>
</clipPath>
</defs>
</svg>
