<svg width="41" height="40" viewBox="0 0 41 40" fill="none" xmlns="http://www.w3.org/2000/svg">
<g clip-path="url(#clip0_2257_76)">
<path d="M32.981 11.8573C32.981 9.00016 32.981 6.14302 32.781 4.2573C32.7825 3.79515 32.6718 3.33953 32.4586 2.92952C32.2453 2.51951 31.9357 2.16736 31.5565 1.90328C31.1772 1.63919 30.7395 1.47105 30.281 1.41328C29.8225 1.35551 29.3568 1.40983 28.9238 1.57159C22.7524 3.34302 10.1524 7.77159 4.86668 15.3716C-0.847603 23.4287 3.5524 32.6573 5.63811 36.2573C5.942 36.7662 6.35669 37.1999 6.85135 37.5264C7.34601 37.8529 7.90791 38.0637 8.49525 38.143C11.126 38.6172 13.8131 38.6942 16.4667 38.3716" stroke="#005CE5" stroke-width="2.85714" stroke-linecap="round" stroke-linejoin="round"/>
<path opacity="0.4" d="M14.9524 24.5141C12.0761 28.7527 9.42486 33.1398 7.00954 37.657M31.1524 38.4855C30.8385 38.599 30.4948 38.599 30.181 38.4855C27.7982 37.5416 25.7536 35.9041 24.312 33.785C22.8704 31.6659 22.0982 29.1628 22.0953 26.5998V21.3141C22.0987 21.1327 22.1389 20.9539 22.2134 20.7885C22.2879 20.6231 22.3952 20.4745 22.5287 20.3517C22.6622 20.2289 22.8192 20.1343 22.9902 20.0739C23.1613 20.0134 23.3428 19.9882 23.5238 19.9998H37.8095C38.1558 20.0071 38.4859 20.1479 38.7308 20.3928C38.9757 20.6378 39.1165 20.9678 39.1238 21.3141V26.5998C39.1301 29.1496 38.3747 31.6432 36.9544 33.7608C35.5342 35.8785 33.5138 37.5237 31.1524 38.4855Z" stroke="#005CE5" stroke-width="2.85714" stroke-linecap="round" stroke-linejoin="round"/>
</g>
<defs>
<clipPath id="clip0_2257_76">
<rect width="40" height="40" fill="white" transform="translate(0.666687)"/>
</clipPath>
</defs>
</svg>
