<svg width="640" height="394" viewBox="0 0 640 394" fill="none" xmlns="http://www.w3.org/2000/svg">
<g clip-path="url(#clip0_662_1688)">
<path opacity="0.3" d="M309.374 193.879C283.344 193.879 262.249 172.868 262.249 146.833C262.249 140.463 263.521 134.412 265.828 128.842C272.914 111.725 289.711 99.7079 309.374 99.7079C335.408 99.7079 356.504 120.803 356.504 146.833C356.504 169.364 340.739 188.072 319.644 192.684C316.381 193.483 312.878 193.879 309.374 193.879ZM309.374 47.0837C285.332 47.0837 263.201 55.5219 245.848 69.6108C223.081 88.1625 208.589 116.344 208.589 147.869C208.589 203.517 309.374 327.222 309.374 327.222C309.374 327.222 355.148 271.022 384.925 217.366C399.414 191.416 410.16 166.017 410.16 147.869C410.16 92.2217 365.022 47.0837 309.374 47.0837Z" fill="url(#paint0_linear_662_1688)"/>
<path d="M279.258 273.105H171.089V364.694H292.285L279.258 273.105Z" fill="#00A0E5"/>
<path d="M274.521 276.242H151.932V364.694H287.236L274.521 276.242Z" fill="#1B1B1B"/>
<path d="M221.65 364.694H238.32V347.795H221.65V364.694Z" fill="#B8C1C9"/>
<path d="M237.623 364.694H247.714V347.795H237.623V364.694Z" fill="#888888"/>
<path d="M220.762 348.024H248.407V326.559H220.762V348.024Z" fill="#B8C1C9"/>
<path d="M247.714 348.024H255.345V331.353H247.714V348.024Z" fill="#888888"/>
<path d="M104.422 371.088H68.8229C67.9585 371.088 67.2502 370.379 67.2502 369.515V355.476C67.2502 354.611 67.9585 353.903 68.8229 353.903H104.422C105.287 353.903 105.995 354.611 105.995 355.476V369.515C105.995 370.379 105.287 371.088 104.422 371.088Z" fill="#B8C1C9"/>
<path d="M204.198 376.765C204.198 368.186 211.151 361.233 219.73 361.233C228.306 361.233 235.263 368.186 235.263 376.765C235.263 385.34 228.306 392.297 219.73 392.297C211.151 392.297 204.198 385.34 204.198 376.765Z" fill="#1B1B1B"/>
<path d="M256.427 376.765C256.427 368.186 263.38 361.233 271.955 361.233C280.534 361.233 287.487 368.186 287.487 376.765C287.487 385.34 280.534 392.297 271.955 392.297C263.38 392.297 256.427 385.34 256.427 376.765Z" fill="#1B1B1B"/>
<path d="M72.5427 376.765C72.5427 368.186 79.4958 361.233 88.0711 361.233C96.6501 361.233 103.603 368.186 103.603 376.765C103.603 385.34 96.6501 392.297 88.0711 392.297C79.4958 392.297 72.5427 385.34 72.5427 376.765Z" fill="#1B1B1B"/>
<path d="M80.2346 376.765C80.2346 372.436 83.7455 368.925 88.0712 368.925C92.4006 368.925 95.9115 372.436 95.9115 376.765C95.9115 381.095 92.4006 384.605 88.0712 384.605C83.7455 384.605 80.2346 381.095 80.2346 376.765Z" fill="#D36E2A"/>
<path d="M80.2346 376.765C80.2346 372.436 83.7455 368.925 88.0712 368.925C92.4006 368.925 95.9115 372.436 95.9115 376.765C95.9115 381.095 92.4006 384.605 88.0712 384.605C83.7455 384.605 80.2346 381.095 80.2346 376.765Z" fill="#888888"/>
<path d="M85.6418 376.765C85.6418 375.421 86.7309 374.336 88.0713 374.336C89.4154 374.336 90.5045 375.421 90.5045 376.765C90.5045 378.105 89.4154 379.194 88.0713 379.194C86.7309 379.194 85.6418 378.105 85.6418 376.765Z" fill="#B8C1C9"/>
<path d="M82.9951 380.927C82.9951 380.409 83.4178 379.99 83.9395 379.99C84.4574 379.99 84.88 380.409 84.88 380.927C84.88 381.449 84.4574 381.871 83.9395 381.871C83.4178 381.871 82.9951 381.449 82.9951 380.927Z" fill="#B8C1C9"/>
<path d="M81.8987 373.944C81.8987 373.422 82.3213 373.003 82.8392 373.003C83.3609 373.003 83.7797 373.422 83.7797 373.944C83.7797 374.461 83.3609 374.884 82.8392 374.884C82.3213 374.884 81.8987 374.461 81.8987 373.944Z" fill="#B8C1C9"/>
<path d="M92.2483 373.944C92.2483 373.422 92.6672 373.003 93.1889 373.003C93.7067 373.003 94.1294 373.422 94.1294 373.944C94.1294 374.461 93.7067 374.884 93.1889 374.884C92.6672 374.884 92.2483 374.461 92.2483 373.944Z" fill="#B8C1C9"/>
<path d="M91.4639 380.927C91.4639 380.409 91.8827 379.99 92.4044 379.99C92.9222 379.99 93.3449 380.409 93.3449 380.927C93.3449 381.449 92.9222 381.871 92.4044 381.871C91.8827 381.871 91.4639 381.449 91.4639 380.927Z" fill="#B8C1C9"/>
<path d="M87.1306 370.775C87.1306 370.258 87.5533 369.835 88.0712 369.835C88.5929 369.835 89.0155 370.258 89.0155 370.775C89.0155 371.293 88.5929 371.716 88.0712 371.716C87.5533 371.716 87.1306 371.293 87.1306 370.775Z" fill="#B8C1C9"/>
<path d="M211.601 376.765C211.601 372.436 215.111 368.925 219.441 368.925C223.77 368.925 227.277 372.436 227.277 376.765C227.277 381.095 223.77 384.605 219.441 384.605C215.111 384.605 211.601 381.095 211.601 376.765Z" fill="#D36E2A"/>
<path d="M211.601 376.765C211.601 372.436 215.111 368.925 219.441 368.925C223.77 368.925 227.277 372.436 227.277 376.765C227.277 381.095 223.77 384.605 219.441 384.605C215.111 384.605 211.601 381.095 211.601 376.765Z" fill="#888888"/>
<path d="M217.011 376.765C217.011 375.421 218.096 374.336 219.441 374.336C220.781 374.336 221.87 375.421 221.87 376.765C221.87 378.105 220.781 379.194 219.441 379.194C218.096 379.194 217.011 378.105 217.011 376.765Z" fill="#B8C1C9"/>
<path d="M214.365 380.927C214.365 380.409 214.784 379.99 215.306 379.99C215.824 379.99 216.246 380.409 216.246 380.927C216.246 381.449 215.824 381.871 215.306 381.871C214.784 381.871 214.365 381.449 214.365 380.927Z" fill="#B8C1C9"/>
<path d="M214.011 373.944C214.011 373.422 214.434 373.003 214.952 373.003C215.473 373.003 215.892 373.422 215.892 373.944C215.892 374.461 215.473 374.884 214.952 374.884C214.434 374.884 214.011 374.461 214.011 373.944Z" fill="#B8C1C9"/>
<path d="M222.83 380.927C222.83 380.409 223.253 379.99 223.771 379.99C224.292 379.99 224.711 380.409 224.711 380.927C224.711 381.449 224.292 381.871 223.771 381.871C223.253 381.871 222.83 381.449 222.83 380.927Z" fill="#B8C1C9"/>
<path d="M211.3 370.775C211.3 370.258 211.719 369.835 212.241 369.835C212.758 369.835 213.181 370.258 213.181 370.775C213.181 371.293 212.758 371.716 212.241 371.716C211.719 371.716 211.3 371.293 211.3 370.775Z" fill="#B8C1C9"/>
<path d="M87.8999 292.902C87.8999 292.902 96.3266 280.191 106.071 280.088L105.203 293.842L87.8999 292.902Z" fill="#888888"/>
<path d="M137.546 350.979H70.0981L75.7109 305.418C76.6248 298.012 82.9153 292.449 90.3748 292.449H137.546V350.979Z" fill="#B8C1C9"/>
<path d="M98.337 323.128H79.4236L81.9291 305.136C82.447 301.431 85.6113 298.674 89.3543 298.674H98.9234L98.337 323.128Z" fill="#888888"/>
<path d="M96.9395 321.773H84.4879C82.6068 321.773 81.156 320.12 81.4035 318.254L83.0561 305.81C83.494 302.52 86.1747 300.076 89.339 300.076H97.4345L96.9395 321.773Z" fill="#EAEAEA"/>
<path d="M229.288 364.694H99.5518L105.34 273.105H221.619L229.288 364.694Z" fill="#00A0E5"/>
<path d="M223.889 362H104L109.346 277.36H216.803L222.549 345.965L223.889 362Z" fill="#005CE5"/>
<path d="M111.253 350.979H70.0983C66.4733 351.218 66.1229 353.008 66.1229 353.008L62.6045 370.033C62.6045 370.612 63.1376 371.088 63.7926 371.088H74.1384C74.7934 371.088 75.2655 370.612 75.5435 370.002C75.5435 370.002 77.1352 368.038 78.2052 367.333C80.8783 365.57 83.7836 364.413 88.0712 364.413C93.3489 364.413 98.0096 366.092 100.816 368.654H111.253C112.514 368.654 113.542 368 113.542 367.192V352.437C113.542 351.634 112.514 350.979 111.253 350.979Z" fill="#888888"/>
<path d="M240.654 384.392H227.612C227.312 382.812 226.744 381.418 225.975 380.192C222.034 373.871 212.811 371.941 207.56 371.35C205.257 371.091 203.718 371.088 203.718 371.088H226.139C232.003 371.884 235.605 375.082 237.749 378.144C239.995 381.342 240.654 384.392 240.654 384.392Z" fill="#00A0E5"/>
<path d="M292.285 384.392H279.239C278.9 382.591 278.211 381.038 277.278 379.693C271.323 371.099 255.345 371.088 255.345 371.088H277.769C282.674 371.754 285.994 374.1 288.207 376.639C291.402 380.314 292.285 384.392 292.285 384.392Z" fill="#00A0E5"/>
<path d="M102.495 373.578H293.758C294.722 373.578 295.506 372.794 295.506 371.834V366.442C295.506 365.483 294.722 364.694 293.758 364.694H102.495C101.532 364.694 100.747 365.483 100.747 366.442V371.834C100.747 372.794 101.532 373.578 102.495 373.578Z" fill="#00A0E5"/>
<path d="M71.3244 314.309C71.3244 314.309 69.6375 323.372 69.7213 324.849C69.8051 326.327 71.1987 327.046 72.2611 327.046L71.3244 314.309Z" fill="#005CE5"/>
<path d="M76.4421 327.046H72.3449C71.7471 327.046 71.2559 326.555 71.2559 325.957V314.644C71.2559 314.043 71.7471 313.555 72.3449 313.555H76.4421C77.0437 313.555 77.5311 314.043 77.5311 314.644V325.957C77.5311 326.555 77.0437 327.046 76.4421 327.046Z" fill="#888888"/>
<path d="M76.1301 326.391H72.882C72.3718 326.391 71.9529 325.973 71.9529 325.459V315.238C71.9529 314.728 72.3718 314.309 72.882 314.309H76.1301C76.6404 314.309 77.0592 314.728 77.0592 315.238V325.459C77.0592 325.973 76.6404 326.391 76.1301 326.391Z" fill="#EAEAEA"/>
<path d="M74.3935 313.799C74.2793 313.799 74.1841 313.689 74.1841 313.555V309.744C74.1841 309.736 74.1841 309.725 74.1879 309.713C74.1879 309.694 74.4469 307.524 76.7277 307.596C78.8144 307.657 79.713 307.596 79.7245 307.596C79.8387 307.585 79.9377 307.691 79.9454 307.824C79.953 307.962 79.8654 308.08 79.7512 308.087C79.7131 308.087 78.822 308.152 76.7163 308.087C74.8809 308.03 74.6258 309.587 74.6029 309.763V313.555C74.6029 313.689 74.5077 313.799 74.3935 313.799Z" fill="#005CE5"/>
<path d="M96.5852 328.988H92.7698C92.2329 328.988 91.7988 328.55 91.7988 328.017C91.7988 327.484 92.2329 327.046 92.7698 327.046H96.5852C97.1183 327.046 97.5562 327.484 97.5562 328.017C97.5562 328.55 97.1183 328.988 96.5852 328.988Z" fill="#888888"/>
<path d="M249.317 364.694H265.988V348.024H249.317V364.694Z" fill="#B8C1C9"/>
<path d="M265.295 364.694H272.926V348.024H265.295V364.694Z" fill="#888888"/>
<path d="M607.218 221.433C600.852 221.433 595.688 216.269 595.688 209.899C595.688 203.532 600.852 198.369 607.218 198.369C613.585 198.369 618.748 203.532 618.748 209.899C618.748 216.269 613.585 221.433 607.218 221.433ZM607.218 185.483C593.594 185.483 582.551 196.526 582.551 210.15C582.551 223.774 607.218 254.066 607.218 254.066C607.218 254.066 631.889 223.774 631.889 210.15C631.889 196.526 620.843 185.483 607.218 185.483Z" fill="#888888"/>
<path d="M38.0211 273.482C32.6521 273.482 28.2998 269.126 28.2998 263.757C28.2998 258.388 32.6521 254.031 38.0211 254.031C43.394 254.031 47.7463 258.388 47.7463 263.757C47.7463 269.126 43.394 273.482 38.0211 273.482ZM38.0211 243.164C26.5329 243.164 17.219 252.478 17.219 263.966C17.219 275.458 38.0211 301.001 38.0211 301.001C38.0211 301.001 58.8271 275.458 58.8271 263.966C58.8271 252.478 49.5131 243.164 38.0211 243.164Z" fill="url(#paint1_linear_662_1688)"/>
<path d="M207.899 391.817H183.305C183.56 390.938 184.39 389.422 187.109 388.981C190.905 388.36 197.481 386.159 198.947 381.304C198.993 381.148 199.039 380.988 199.073 380.824C200.238 375.638 208.71 382.416 208.71 382.416C208.71 382.416 208.733 382.622 208.771 382.976C208.966 384.868 209.464 390.945 207.899 391.817Z" fill="#A0462D"/>
<path d="M140.058 325H136.586V314.989H133.448V312.15H143.187V314.989H140.058V325ZM157.407 318.558C157.407 319.548 157.287 320.45 157.047 321.265C156.812 322.073 156.443 322.771 155.939 323.356C155.435 323.942 154.788 324.394 153.997 324.71C153.206 325.021 152.259 325.176 151.158 325.176C150.08 325.176 149.145 325.021 148.354 324.71C147.569 324.394 146.922 323.945 146.412 323.365C145.902 322.779 145.524 322.079 145.278 321.265C145.032 320.45 144.909 319.542 144.909 318.54C144.909 317.204 145.129 316.044 145.568 315.06C146.013 314.069 146.699 313.305 147.625 312.766C148.55 312.221 149.734 311.948 151.175 311.948C152.64 311.948 153.83 312.221 154.744 312.766C155.664 313.311 156.338 314.078 156.765 315.068C157.193 316.059 157.407 317.222 157.407 318.558ZM148.565 318.558C148.565 319.331 148.653 319.996 148.829 320.553C149.005 321.109 149.283 321.537 149.664 321.836C150.045 322.135 150.543 322.284 151.158 322.284C151.797 322.284 152.303 322.135 152.678 321.836C153.059 321.537 153.332 321.109 153.496 320.553C153.666 319.996 153.751 319.331 153.751 318.558C153.751 317.397 153.557 316.48 153.171 315.807C152.784 315.133 152.119 314.796 151.175 314.796C150.548 314.796 150.042 314.948 149.655 315.253C149.274 315.558 148.996 315.991 148.82 316.554C148.65 317.116 148.565 317.784 148.565 318.558ZM165.809 314.813C165.399 314.813 165.032 314.901 164.71 315.077C164.388 315.247 164.113 315.496 163.884 315.824C163.656 316.152 163.48 316.554 163.357 317.028C163.24 317.497 163.181 318.03 163.181 318.628C163.181 319.437 163.283 320.116 163.489 320.667C163.694 321.218 164.004 321.634 164.42 321.915C164.842 322.196 165.369 322.337 166.002 322.337C166.576 322.337 167.127 322.258 167.655 322.1C168.188 321.941 168.724 321.751 169.263 321.528V324.464C168.695 324.716 168.112 324.897 167.514 325.009C166.922 325.12 166.292 325.176 165.624 325.176C164.23 325.176 163.087 324.9 162.197 324.35C161.312 323.793 160.658 323.022 160.237 322.038C159.821 321.054 159.613 319.911 159.613 318.61C159.613 317.638 159.747 316.747 160.017 315.938C160.292 315.13 160.694 314.43 161.221 313.838C161.748 313.24 162.399 312.78 163.172 312.458C163.951 312.13 164.842 311.966 165.844 311.966C166.465 311.966 167.118 312.039 167.804 312.186C168.495 312.326 169.169 312.555 169.825 312.871L168.762 315.604C168.293 315.382 167.819 315.194 167.338 315.042C166.858 314.89 166.348 314.813 165.809 314.813ZM180.02 325L179.388 322.592H175.213L174.562 325H170.748L174.94 312.098H179.572L183.817 325H180.02ZM178.667 319.744L178.113 317.635C178.055 317.406 177.97 317.081 177.858 316.659C177.747 316.231 177.636 315.792 177.524 315.341C177.419 314.884 177.337 314.509 177.278 314.216C177.226 314.509 177.149 314.872 177.05 315.306C176.956 315.733 176.856 316.158 176.751 316.58C176.651 317.002 176.563 317.354 176.487 317.635L175.934 319.744H178.667ZM185.575 325V312.15H189.046V322.196H193.995V325H185.575Z" fill="white"/>
<path d="M188.118 253.076C188.118 253.076 189.405 269.126 190.916 288.42C192.973 314.625 195.444 346.817 195.688 352.917C196.11 363.506 197.805 380.443 197.805 380.443C197.805 380.443 201.83 384.468 209.876 382.774C209.876 382.774 217.05 358.59 219.098 333.006C219.129 332.587 219.159 332.164 219.193 331.741C221.097 305.7 224.06 250.856 224.06 250.856L188.118 253.076Z" fill="#364154"/>
<path d="M188.118 253.076C188.118 253.076 189.405 269.126 190.916 288.42L219.098 333.006C219.129 332.587 219.159 332.164 219.193 331.741C221.097 305.7 224.06 250.856 224.06 250.856L188.118 253.076Z" fill="#1B1B1B"/>
<path d="M193.993 254.983C193.993 254.983 217.179 313.11 232.426 340.423C247.672 367.741 252.436 375.364 252.436 375.364C252.436 375.364 261.171 371.868 261.967 369.488C261.967 369.488 256.137 316.754 245.925 303.899C240.156 296.633 233.378 274.834 233.062 267.21C232.746 259.587 230.998 244.5 230.998 244.5L193.993 254.983Z" fill="#364154"/>
<path d="M224.502 165.408C224.502 165.408 208.813 173.096 199.77 170.244C199.77 170.244 201.994 167.392 205.889 165.267C205.577 163.424 205.333 161.825 205.196 160.469C204.811 157.335 204.811 155.561 204.811 155.561L210.866 150.729L216.604 146.102C216.151 159.11 224.502 165.408 224.502 165.408Z" fill="#FF7955"/>
<path d="M232.768 247.478C232.803 248.453 230.75 249.565 229.848 249.984C223.131 252.973 216.871 255.059 209.773 255.756C201.392 256.628 191.476 254.713 188.068 254.785C187.722 254.785 187.406 254.644 187.128 254.401C186.884 254.226 186.713 243.963 186.884 231.059C186.884 230.537 186.884 230.015 186.922 229.494V229.322C186.991 224.277 187.162 218.988 187.406 213.703C187.893 202.085 188.8 190.882 190.33 184.691C192.173 177.384 196.347 172.552 200.139 169.037L203.269 166.253C206.399 166.882 209.704 166.707 213.01 165.073C216.627 163.299 220.583 161.307 221.212 161.794C225.941 165.305 229.083 173.279 230.785 183.37C231.759 189.176 232.247 195.684 232.213 202.5C232.213 205.006 232.14 207.58 232.003 210.12C231.169 223.892 232.003 235.86 232.49 242.783C232.628 244.801 232.734 246.366 232.768 247.478Z" fill="#005CE5"/>
<path d="M232.491 242.783C156.483 242.676 218.47 186.115 218.47 186.115L230.785 183.37C231.76 189.176 232.247 195.684 232.213 202.5C232.213 205.006 232.14 207.58 232.003 210.12C231.169 223.892 232.003 235.86 232.491 242.783Z" fill="#005CE5"/>
<path d="M138.986 242.414H186.244V195.155H138.986V242.414Z" fill="#B8C1C9"/>
<path d="M184.28 242.414H205.916V195.155H184.28V242.414Z" fill="#888888"/>
<path d="M179.146 219.479L176.333 218.577C176.333 218.577 174.364 212.065 167.708 214.978C167.708 214.978 165.004 216.414 166.196 218.108C167.384 219.803 167.167 218.912 168.793 221.353C170.419 223.793 172.993 224.955 175.045 224.03L177.383 224.098L179.146 219.479Z" fill="#FF7955"/>
<path d="M224.506 165.389C224.506 165.389 241.717 192.763 223.382 224.399C217.659 234.273 174.429 224.886 174.429 224.886C174.429 224.886 172.742 221.844 177.254 218.638C177.254 218.638 206.038 213.764 209.468 212.949C212.511 212.225 210.481 184.249 213.962 176.135C217.438 168.016 224.506 165.389 224.506 165.389Z" fill="#00A0E5"/>
<path d="M216.707 151.075C216.707 151.075 212.743 158.417 205.196 160.469C204.811 157.336 204.811 155.561 204.811 155.561L210.866 150.729L216.707 151.075Z" fill="#EF6343"/>
<path d="M202.051 155.352C202.051 155.352 217.019 157.838 218.424 148.494C219.829 139.149 222.704 133.179 213.212 131.195C203.715 129.211 201.316 132.497 200.09 135.501C198.864 138.506 198.193 154.464 202.051 155.352Z" fill="#FF7955"/>
<path d="M218.325 149.137C218.325 149.137 218.021 136.621 204.385 134.614C195.044 133.236 195.821 126.469 196.891 125.236C196.891 125.236 208.962 125.335 216.22 127.162C227.19 129.927 219.944 147.275 218.325 149.137Z" fill="#1B1B1B"/>
<path d="M261.963 371.446L261.24 370.513L252.996 375.132C252.919 376.708 252.878 378.528 252.965 380.127C253.026 381.213 252.965 382.317 252.767 383.364C252.596 384.183 251.724 387.671 249.173 388.588C246.275 389.628 246.043 391.856 250.989 391.817C251.872 391.814 252.74 391.81 253.571 391.806C256.655 391.795 259.29 389.697 260.132 386.73C260.463 385.561 261.076 384.248 262.134 382.85C263.437 381.331 264.964 379.99 265.459 378.326C266.308 375.47 261.963 371.446 261.963 371.446Z" fill="#A0462D"/>
<path d="M355.026 312.07L356.652 310.745L334.868 282.27L327.005 281.943L355.026 312.07Z" fill="#00A0E5"/>
<path d="M383.493 312.07L384.838 310.745L366.815 282.27L360.308 281.943L383.493 312.07Z" fill="#00A0E5"/>
<path d="M516.524 237.863C516.524 232.46 512.244 228.081 506.97 228.081C501.692 228.081 497.416 232.46 497.416 237.863C497.416 243.267 501.692 247.649 506.97 247.649C512.244 247.649 516.524 243.267 516.524 237.863Z" fill="#005CE5"/>
<path d="M395.324 369.759H492.47C493.524 369.759 494.389 368.887 494.389 367.824V358.644C494.389 357.581 493.524 356.709 492.47 356.709H406.657C405.602 356.709 404.737 357.581 404.737 358.644L395.324 369.759Z" fill="#1B1B1B"/>
<path d="M394.472 362.566C394.472 346.531 381.472 333.535 365.437 333.535C349.406 333.535 336.406 346.531 336.406 362.566C336.406 378.601 349.406 391.597 365.437 391.597C381.472 391.597 394.472 378.601 394.472 362.566Z" fill="#1B1B1B"/>
<path d="M380.238 362.566C380.238 354.394 373.612 347.769 365.437 347.769C357.265 347.769 350.64 354.394 350.64 362.566C350.64 370.741 357.265 377.367 365.437 377.367C373.612 377.367 380.238 370.741 380.238 362.566Z" fill="#888888"/>
<path d="M514.662 321.586C518.763 320.28 523.126 319.579 527.65 319.579C530.845 319.579 533.96 319.933 536.956 320.6C554.153 324.408 567.503 338.546 570.153 356.142C570.659 359.523 568.024 362.566 564.605 362.566H564.415C562.572 362.566 561.049 361.157 560.873 359.321C559.232 342.43 544.96 329.183 527.65 329.183C522.479 329.183 517.578 330.363 513.207 332.469C502.012 337.864 494.267 349.326 494.267 362.566H484.664C484.664 343.386 497.287 327.104 514.662 321.586Z" fill="#005CE5"/>
<path d="M470.114 356.709L484.663 362.566C494.735 342.978 505.024 333.367 513.82 328.627C529.649 320.093 540.665 327.321 536.956 320.6L509.803 263.307C507.259 259.77 503.942 257.085 500.237 255.33C496.205 253.426 491.716 252.622 487.249 253.034C482.07 253.513 478.685 258.742 480.334 263.673C483.887 274.304 485.254 284.989 485.254 295.137C485.254 328.905 470.114 356.709 470.114 356.709Z" fill="#1B1B1B"/>
<path d="M484.945 259.659L495.904 255.475C497.393 255.475 500.238 256.823 500.238 255.33L498.615 228.572C498.615 227.08 497.393 225.861 495.904 225.861H488.841C487.348 225.861 481.374 228.721 481.792 234.075L479.915 261.049C479.915 262.538 483.457 259.659 484.945 259.659Z" fill="#005CE5"/>
<path d="M298.32 283.268H371.293C373.403 283.268 375.132 281.543 375.132 279.43V276.795C375.132 274.681 373.403 272.952 371.293 272.952H298.32C296.207 272.952 294.478 274.681 294.478 276.795V279.43C294.478 281.543 296.207 283.268 298.32 283.268Z" fill="#00A0E5"/>
<path d="M556.677 362.566C556.677 346.531 543.681 333.535 527.646 333.535C511.611 333.535 498.615 346.531 498.615 362.566C498.615 378.601 511.611 391.597 527.646 391.597C543.681 391.597 556.677 378.601 556.677 362.566Z" fill="#1B1B1B"/>
<path d="M512.849 362.566C512.849 365.06 513.466 367.409 514.555 369.466C514.624 369.603 514.7 369.732 514.776 369.865C517.312 374.343 522.129 377.367 527.647 377.367C535.822 377.367 542.448 370.741 542.448 362.566C542.448 356.409 538.685 351.131 533.335 348.907C533.278 348.88 533.221 348.858 533.164 348.835C531.458 348.146 529.596 347.769 527.647 347.769C519.475 347.769 512.849 354.394 512.849 362.566Z" fill="#888888"/>
<path d="M421.313 304.089C421.313 304.089 413.815 333.817 439.103 361.222L376.921 356.709L384.838 296.713L421.313 304.089Z" fill="#1B1B1B"/>
<path d="M306.914 365.917C306.914 366.975 307.348 367.935 308.045 368.632C308.738 369.325 309.702 369.759 310.756 369.759H403.888C406.002 369.759 407.73 368.03 407.73 365.917L406.493 305.003L375.131 303.084C333.356 303.084 306.914 324.141 306.914 365.917Z" fill="#1B1B1B"/>
<path d="M497.416 237.307C497.416 238.252 497.5 239.173 497.667 240.072C498.962 247.048 505.085 252.329 512.438 252.329V222.286C504.141 222.286 497.416 229.01 497.416 237.307Z" fill="#00A0E5"/>
<path d="M473.701 239.337C473.762 239.337 474.382 239.215 474.443 239.204L490.969 234.615C491.624 234.49 492.081 233.675 491.982 232.803C491.887 231.927 491.278 231.322 490.623 231.451L474.055 234.684C473.4 234.813 472.878 235.811 472.722 236.668C472.463 238.111 473.118 239.337 473.701 239.337Z" fill="#1B1B1B"/>
<path d="M513.641 329.784C513.489 330.71 513.344 331.604 513.207 332.469C513.249 332.45 513.291 332.427 513.336 332.408C517.673 330.34 522.532 329.183 527.65 329.183C544.96 329.183 559.232 342.43 560.873 359.321C561.048 361.157 562.571 362.566 564.414 362.566H564.605C568.024 362.566 570.659 359.523 570.153 356.142C567.51 338.607 554.24 324.503 537.128 320.638C537.07 320.623 537.013 320.611 536.956 320.6L509.803 263.307C507.259 259.77 503.942 257.085 500.237 255.33C504.868 263.121 517.631 288.024 514.661 321.586C514.46 323.89 514.182 326.239 513.82 328.627C513.759 329.011 513.702 329.396 513.641 329.784Z" fill="#1B1B1B"/>
<path d="M358.944 292.19V301.237C358.944 302.806 360.228 304.093 361.8 304.093H421.313C422.882 304.093 424.169 302.806 424.169 301.237V292.19C424.169 290.617 422.882 289.334 421.313 289.334H361.8C360.228 289.334 358.944 290.617 358.944 292.19Z" fill="#A0462D"/>
<path d="M314.294 369.759H403.888C403.888 369.759 409.357 336.585 389.19 325.382C384.335 322.686 378.235 321.757 371.587 322.405C350.636 324.457 324.259 342.209 314.294 369.759Z" fill="#00A0E5"/>
<path d="M497.667 240.072C498.962 247.048 505.085 252.329 512.438 252.329V243.944C508.025 244.123 501.665 243.644 497.667 240.072Z" fill="#00A0E5"/>
<path d="M513.641 329.784C513.489 330.71 513.344 331.604 513.207 332.469C513.249 332.45 513.291 332.427 513.336 332.408C518.698 327.45 530.022 323.06 537.128 320.638C537.07 320.623 537.013 320.611 536.956 320.6L509.803 263.307C507.259 259.77 503.942 257.085 500.237 255.33C504.868 263.121 517.631 288.024 514.661 321.586C514.46 323.89 514.182 326.239 513.82 328.627C513.759 329.011 513.702 329.396 513.641 329.784Z" fill="#00A0E5"/>
<path d="M369.142 272.952H322.759V234.707H369.142V272.952Z" fill="#A0462D"/>
<path d="M299.565 234.707V272.952H345.949V234.707H299.565Z" fill="#B05638"/>
<path d="M369.115 263.254H361.762L362.41 261.182L361.762 259.705H369.115V263.254Z" fill="#364154"/>
<path d="M299.565 243.286H306.915L306.267 241.218L306.915 239.741H299.565V243.286Z" fill="#1B1B1B"/>
<path d="M299.565 266.799H306.915L306.267 264.731L306.915 263.254H299.565V266.799Z" fill="#1B1B1B"/>
<path d="M416.138 200.048C408.119 203.303 393.462 196.339 393.462 196.339C393.462 196.339 398.329 192.032 399.254 183.876C399.304 183.465 399.338 183.046 399.365 182.616C400.21 182.315 401.802 181.747 403.507 181.142L410.609 185.978C410.609 185.978 410.78 188.358 410.529 192.52C410.487 193.243 410.43 194.024 410.358 194.858C414.044 196.514 416.138 200.048 416.138 200.048Z" fill="#FF7955"/>
<path d="M410.609 185.978C410.609 185.978 410.78 188.358 410.529 192.52C404.067 191.343 400.511 186.123 399.254 183.876C399.304 183.465 399.338 183.046 399.365 182.616C400.21 182.315 401.802 181.747 403.508 181.142L410.609 185.978Z" fill="#EF6343"/>
<path d="M411.923 189.443C411.923 189.443 398.112 188.994 398.523 180.396C398.934 171.801 397.43 165.953 406.268 165.876C415.102 165.8 416.656 169.163 417.216 172.064C417.776 174.97 415.525 189.34 411.923 189.443Z" fill="#FF7955"/>
<path d="M399.254 183.876C399.254 183.876 398.717 181.016 400.271 179.131C400.271 179.131 399.266 176.329 400.347 175.701C401.425 175.069 401.984 177.467 402.46 177.014C402.933 176.565 405.023 174.444 405.663 171.645C406.306 168.85 415.883 170.853 417.014 171.192C418.145 171.527 410.659 157.564 402.578 160.873C394.494 164.178 393.889 168.329 394.822 171.691C395.755 175.053 395.671 183.183 399.254 183.876Z" fill="#1B1B1B"/>
<path d="M386.045 265.923C386.045 265.923 387.001 282.792 390.843 287.597C394.685 292.403 468.302 290.537 468.302 290.537C468.302 290.537 468.621 279.719 465.739 276.939C462.86 274.16 449.419 266.171 406.497 261.639L386.045 265.923Z" fill="#1B1B1B"/>
<path d="M385.062 230.613C386.262 245.102 384.682 267.142 386.045 270.961C387.221 274.255 400.61 272.294 405.948 271.197C407.928 270.786 410.327 270.207 412.799 269.522C419.702 267.602 427.223 264.865 428.03 262.827C428.06 262.747 428.087 262.671 428.102 262.595C428.178 262.298 428.163 262.02 428.091 261.742C427.893 260.973 427.272 260.162 426.91 258.749C426.789 258.254 426.693 257.683 426.663 257.013C426.537 254.389 426.545 251.339 426.453 248.057C426.446 247.756 426.434 247.451 426.427 247.147C426.419 246.736 426.412 246.294 426.366 245.886L426.362 245.734C426.362 245.658 426.358 245.582 426.354 245.506C426.24 241.454 426.004 237.201 425.73 232.982C425.646 231.664 425.551 230.354 425.448 229.063C425.418 228.606 425.38 228.15 425.345 227.7C425.273 226.855 425.205 226.017 425.125 225.191C424.523 218.699 423.712 212.926 422.638 209.274C420.886 203.326 417.014 199.446 413.495 196.606L410.948 194.641C408.104 195.197 404.745 194.827 401.703 193.536C398.416 192.131 397.278 191.126 396.707 191.507C389.106 196.769 383.646 212.895 385.062 230.613Z" fill="#005CE5"/>
<path d="M441.814 346.04C441.814 346.04 442.465 356.538 444.495 356.69C444.765 356.709 454.799 356.709 454.799 356.709L467.608 356.637C467.608 356.637 467.525 353.549 463.781 352.898C460.038 352.243 453.771 349.612 451.501 344.665C449.118 339.46 441.814 346.04 441.814 346.04Z" fill="#A0462D"/>
<path d="M439.137 346.721C439.137 346.721 441.612 348.625 446.658 348.869C447.956 348.93 449.148 348.865 450.191 348.728C452.971 348.378 454.711 347.574 454.711 347.574L468.301 290.537C468.301 290.537 453.577 277.674 445.896 285.671C444.895 286.714 444.038 288.523 443.311 290.883C438.437 306.606 439.137 346.721 439.137 346.721Z" fill="#1B1B1B"/>
<path d="M406.493 219.597C406.493 219.597 416.028 254.496 426.911 258.749C426.789 258.254 426.693 257.683 426.663 257.013C426.537 254.389 426.545 251.339 426.454 248.057C426.446 247.756 426.434 247.451 426.427 247.147C426.419 246.736 426.412 246.294 426.366 245.886L426.362 245.734C426.362 245.658 426.358 245.582 426.355 245.506C426.24 241.454 426.004 237.201 425.73 232.982C425.646 231.664 425.551 230.354 425.448 229.063C420.658 223.272 414.154 219.11 406.493 219.597Z" fill="#00A0E5"/>
<path d="M463.671 233.043C463.671 233.043 467.822 233.362 468.888 233.043C469.954 232.723 474.969 229.734 476.781 230.373C478.598 231.013 483.186 235.708 482.009 237.844C482.009 237.844 479.877 237.894 477.905 235.868C475.928 233.842 473.796 235.228 474.009 235.495C474.222 235.761 477.318 236.988 476.781 237.521C476.248 238.058 472.197 237.947 471.233 237.307C470.274 236.668 463.126 237.467 463.126 237.467L463.671 233.043Z" fill="#FF7955"/>
<path d="M406.497 201.194C406.497 201.194 432.306 223.199 439.103 225.32C445.896 227.441 469.901 232.106 469.901 232.106C469.901 232.106 470.563 237.791 468.313 239.923C468.313 239.923 437.466 238.134 433.627 237.323C429.785 236.508 401.166 221.68 398.831 220.557C396.497 219.437 396.859 199.381 406.497 201.194Z" fill="#005CE5"/>
<path d="M392.785 172.258V172.392C392.785 172.753 392.952 173.062 393.188 173.195C393.268 173.237 393.356 173.264 393.44 173.264H426.164C426.526 173.264 426.823 172.871 426.823 172.392V172.258C426.823 171.779 426.526 171.386 426.164 171.386L418.857 170.446C418.175 165.02 414.569 160.587 409.802 159.06H409.798C408.633 158.687 407.407 158.489 406.135 158.489C399.418 158.489 393.919 164.037 393.344 171.108C393.337 171.188 393.333 171.268 393.325 171.352C393.242 171.413 393.196 171.451 393.188 171.455C392.952 171.588 392.785 171.9 392.785 172.258Z" fill="#1B1B1B"/>
<path d="M403.843 171.108C401.406 158.2 409.524 159.03 409.798 159.06C408.633 158.687 407.407 158.489 406.135 158.489C399.418 158.489 393.919 164.037 393.344 171.108H403.843Z" fill="#005CE5"/>
<path d="M328.76 30.9119C328.391 30.9119 328.029 30.7215 327.827 30.3826C327.515 29.8648 327.682 29.1946 328.196 28.8823C328.219 28.8709 328.779 28.532 329.853 27.938C330.378 27.641 331.045 27.8314 331.338 28.3569C331.631 28.8861 331.441 29.5487 330.915 29.8419C329.879 30.4207 329.327 30.752 329.323 30.7558C329.148 30.8586 328.954 30.9119 328.76 30.9119Z" fill="#364154"/>
<path d="M435.314 2.4218C434.716 2.4218 434.229 1.94205 434.225 1.34041C434.218 0.73877 434.701 0.243744 435.303 0.239929C436.563 0.224701 437.827 0.220886 439.099 0.232315C439.701 0.236115 440.188 0.73114 440.181 1.33278C440.177 1.93442 439.689 2.41422 439.092 2.41422C439.088 2.41422 439.084 2.41422 439.08 2.41422C437.824 2.4066 436.575 2.40657 435.326 2.4218C435.322 2.4218 435.318 2.4218 435.314 2.4218ZM446.639 2.62366C446.62 2.62366 446.604 2.62363 446.585 2.61983C445.34 2.5627 444.08 2.51703 442.835 2.48276C442.233 2.46753 441.757 1.96489 441.772 1.35945C441.791 0.757812 442.298 0.27803 442.896 0.300873C444.152 0.335144 445.428 0.380814 446.688 0.441742C447.29 0.468399 447.754 0.978638 447.728 1.58409C447.701 2.16669 447.217 2.62366 446.639 2.62366ZM427.767 2.64648C427.188 2.64648 426.705 2.18954 426.678 1.60695C426.651 1.00533 427.112 0.491257 427.718 0.464615C428.982 0.403687 430.261 0.354172 431.51 0.316086C432.116 0.289429 432.614 0.773026 432.633 1.37465C432.649 1.97629 432.177 2.47893 431.575 2.49796C430.337 2.53604 429.077 2.58557 427.82 2.64268C427.805 2.6465 427.786 2.64648 427.767 2.64648ZM454.171 3.12625C454.14 3.12625 454.106 3.12247 454.075 3.12247C452.838 3.01204 451.581 2.91685 450.332 2.83308C449.731 2.795 449.277 2.27333 449.316 1.67169C449.357 1.07005 449.875 0.616913 450.477 0.654999C451.741 0.73877 453.013 0.837753 454.262 0.944382C454.864 0.997681 455.309 1.52699 455.256 2.12863C455.206 2.696 454.73 3.12625 454.171 3.12625ZM420.235 3.14529C419.672 3.14529 419.196 2.71884 419.146 2.14767C419.097 1.54604 419.542 1.02055 420.144 0.967255C421.412 0.860626 422.687 0.765427 423.929 0.681656C424.527 0.647385 425.048 1.09668 425.09 1.69832C425.128 2.29996 424.671 2.82162 424.073 2.85971C422.844 2.93967 421.583 3.03868 420.327 3.14529C420.296 3.14529 420.266 3.14529 420.235 3.14529ZM412.722 3.9183C412.178 3.9183 411.706 3.51086 411.641 2.95872C411.569 2.3571 411.995 1.81638 412.593 1.74402C413.853 1.59171 415.121 1.45084 416.366 1.32137C416.964 1.25664 417.501 1.69833 417.562 2.29616C417.623 2.8978 417.189 3.43089 416.587 3.49562C415.357 3.62128 414.101 3.76218 412.856 3.91069C412.81 3.91449 412.768 3.9183 412.722 3.9183ZM461.676 3.92973C461.63 3.92973 461.584 3.92593 461.539 3.9183C460.309 3.76219 459.052 3.61748 457.811 3.48421C457.209 3.41946 456.779 2.87877 456.84 2.28094C456.905 1.68312 457.445 1.24522 458.043 1.30995C459.3 1.44704 460.568 1.5955 461.813 1.75543C462.411 1.83159 462.833 2.37611 462.757 2.97394C462.689 3.52608 462.216 3.92973 461.676 3.92973ZM405.244 4.95021C404.715 4.95021 404.25 4.56563 404.166 4.02492C404.075 3.43091 404.482 2.87114 405.076 2.77975C406.329 2.58556 407.593 2.39896 408.831 2.23141C409.429 2.14383 409.977 2.56271 410.061 3.16054C410.144 3.75836 409.726 4.3105 409.128 4.39046C407.902 4.56181 406.653 4.7446 405.411 4.9388C405.354 4.94641 405.297 4.95021 405.244 4.95021ZM469.143 5.04163C469.082 5.04163 469.021 5.034 468.96 5.02258C467.726 4.81696 466.481 4.61514 465.255 4.43237C464.657 4.34479 464.246 3.79265 464.334 3.19482C464.425 2.597 464.981 2.18575 465.575 2.27333C466.816 2.4599 468.077 2.66173 469.326 2.87115C469.92 2.97397 470.319 3.53751 470.217 4.13153C470.129 4.66463 469.665 5.04163 469.143 5.04163ZM397.803 6.23726C397.289 6.23726 396.829 5.87172 396.73 5.34624C396.619 4.75603 397.007 4.18486 397.601 4.07062C398.843 3.83453 400.099 3.60606 401.333 3.39664C401.927 3.29382 402.491 3.68982 402.594 4.28384C402.696 4.87787 402.297 5.44522 401.703 5.54422C400.484 5.75746 399.239 5.98215 398.005 6.21442C397.937 6.22964 397.868 6.23726 397.803 6.23726ZM476.557 6.46193C476.481 6.46193 476.404 6.4543 476.328 6.43527C475.117 6.17633 473.88 5.92883 472.65 5.69273C472.06 5.57851 471.671 5.00735 471.786 4.41333C471.9 3.82312 472.471 3.43471 473.061 3.54895C474.306 3.78503 475.559 4.04015 476.785 4.30289C477.375 4.42854 477.749 5.00734 477.623 5.59755C477.516 6.10779 477.063 6.46193 476.557 6.46193ZM390.409 7.76421C389.906 7.76421 389.457 7.41768 389.342 6.91124C389.213 6.32484 389.582 5.73843 390.169 5.60896C391.41 5.33099 392.659 5.06064 393.877 4.80933C394.471 4.68747 395.046 5.06824 395.168 5.65846C395.29 6.24867 394.909 6.82368 394.319 6.94553C393.112 7.19685 391.875 7.46339 390.648 7.73755C390.565 7.75659 390.485 7.76421 390.409 7.76421ZM483.906 8.19066C483.814 8.19066 483.723 8.17926 483.632 8.15642C482.421 7.84416 481.195 7.54333 479.991 7.25774C479.401 7.12067 479.039 6.53426 479.176 5.94405C479.314 5.35764 479.904 4.9959 480.49 5.13298C481.713 5.42238 482.95 5.72702 484.176 6.04308C484.763 6.19539 485.113 6.78938 484.961 7.37198C484.835 7.86699 484.389 8.19066 483.906 8.19066ZM383.067 9.53102C382.58 9.53102 382.134 9.20355 382.008 8.71234C381.86 8.12593 382.21 7.53194 382.793 7.38342C384.011 7.06738 385.249 6.76273 386.475 6.46573C387.061 6.32483 387.652 6.68658 387.793 7.27299C387.933 7.85559 387.572 8.4458 386.985 8.58669C385.771 8.87988 384.544 9.18452 383.337 9.49677C383.246 9.51962 383.155 9.53102 383.067 9.53102ZM491.171 10.2355C491.068 10.2355 490.958 10.2202 490.855 10.186C489.667 9.82423 488.456 9.47012 487.253 9.13503C486.674 8.9713 486.335 8.36964 486.499 7.78705C486.663 7.20825 487.264 6.86937 487.843 7.0331C489.062 7.37199 490.288 7.73375 491.491 8.09929C492.066 8.27446 492.393 8.88371 492.214 9.45869C492.074 9.93086 491.639 10.2355 491.171 10.2355ZM375.783 11.5263C375.31 11.5263 374.873 11.2179 374.735 10.7419C374.568 10.1631 374.899 9.55388 375.478 9.38634C376.693 9.03601 377.919 8.6857 379.13 8.35443C379.709 8.1983 380.31 8.53719 380.47 9.11978C380.63 9.70238 380.287 10.304 379.705 10.4601C378.509 10.7914 377.291 11.1341 376.087 11.4844C375.984 11.5149 375.882 11.5263 375.783 11.5263ZM498.345 12.5849C498.227 12.5849 498.105 12.562 497.983 12.5202C496.799 12.1051 495.603 11.7015 494.431 11.3169C493.859 11.1265 493.547 10.5134 493.734 9.93846C493.92 9.36729 494.537 9.05505 495.112 9.24164C496.3 9.63004 497.507 10.0413 498.707 10.4601C499.274 10.662 499.575 11.2864 499.377 11.8538C499.217 12.3031 498.794 12.5849 498.345 12.5849ZM368.563 13.7501C368.102 13.7501 367.676 13.4531 367.527 12.9923C367.341 12.4212 367.653 11.8043 368.228 11.6177C369.427 11.2293 370.646 10.8447 371.845 10.4754C372.42 10.2964 373.03 10.6201 373.209 11.1988C373.388 11.7738 373.064 12.3831 372.485 12.5621C371.297 12.9276 370.09 13.3084 368.902 13.693C368.788 13.731 368.677 13.7501 368.563 13.7501ZM505.412 15.239C505.275 15.239 505.138 15.2123 505.009 15.159C503.851 14.6982 502.675 14.2413 501.509 13.8034C500.946 13.5902 500.66 12.9619 500.87 12.3983C501.083 11.8347 501.711 11.5454 502.275 11.7586C503.455 12.2003 504.647 12.6649 505.816 13.1332C506.376 13.3579 506.65 13.99 506.425 14.5497C506.254 14.9762 505.846 15.239 505.412 15.239ZM361.416 16.1909C360.97 16.1909 360.548 15.9129 360.388 15.4674C360.186 14.9001 360.483 14.2756 361.05 14.0699C362.242 13.6435 363.445 13.2208 364.63 12.8172C365.201 12.623 365.821 12.9276 366.016 13.4988C366.21 14.0661 365.905 14.6868 365.334 14.8848C364.161 15.2847 362.969 15.6997 361.785 16.1262C361.663 16.1681 361.538 16.1909 361.416 16.1909ZM512.358 18.19C512.209 18.19 512.057 18.1595 511.912 18.091C510.778 17.5807 509.62 17.0743 508.474 16.5907C507.922 16.3547 507.663 15.7149 507.899 15.159C508.131 14.603 508.775 14.3441 509.327 14.5802C510.488 15.0714 511.657 15.5855 512.807 16.1033C513.359 16.3509 513.603 16.9944 513.355 17.5465C513.173 17.9501 512.777 18.19 512.358 18.19ZM354.348 18.8488C353.911 18.8488 353.503 18.586 353.332 18.1596C353.111 17.596 353.385 16.9639 353.949 16.7431C355.125 16.2785 356.317 15.8178 357.486 15.3799C358.053 15.1666 358.682 15.4522 358.895 16.0157C359.104 16.5793 358.819 17.2114 358.255 17.4246C357.094 17.8587 355.913 18.3119 354.748 18.7726C354.615 18.8259 354.482 18.8488 354.348 18.8488ZM519.178 21.4305C519.01 21.4305 518.846 21.3924 518.686 21.3162C517.571 20.7527 516.436 20.2005 515.317 19.6674C514.772 19.4085 514.54 18.7574 514.799 18.2129C515.058 17.6683 515.709 17.4361 516.253 17.695C517.388 18.2357 518.534 18.7955 519.665 19.3628C520.206 19.6332 520.423 20.2881 520.152 20.8288C519.962 21.2096 519.577 21.4305 519.178 21.4305ZM347.365 21.7313C346.942 21.7313 346.539 21.4838 346.36 21.0687C346.124 20.5166 346.379 19.8731 346.931 19.637C348.085 19.1382 349.261 18.6432 350.426 18.1596C350.986 17.9311 351.622 18.1976 351.854 18.7536C352.083 19.3133 351.816 19.9492 351.26 20.1815C350.106 20.6537 348.941 21.1449 347.795 21.6399C347.654 21.7008 347.51 21.7313 347.365 21.7313ZM340.477 24.8347C340.069 24.8347 339.677 24.6062 339.49 24.2102C339.231 23.6657 339.464 23.0145 340.012 22.7556C341.139 22.2225 342.3 21.6894 343.458 21.1678C344.006 20.9202 344.654 21.1639 344.901 21.7123C345.149 22.2644 344.905 22.9079 344.357 23.1554C343.211 23.6733 342.061 24.2026 340.941 24.7319C340.793 24.8042 340.633 24.8347 340.477 24.8347ZM525.853 24.9527C525.674 24.9527 525.491 24.907 525.324 24.8156C524.231 24.2102 523.119 23.6085 522.026 23.0298C521.489 22.748 521.287 22.0892 521.569 21.5561C521.847 21.023 522.51 20.8174 523.043 21.0992C524.151 21.6856 525.274 22.291 526.382 22.9079C526.911 23.1973 527.102 23.8637 526.809 24.3892C526.611 24.7509 526.237 24.9527 525.853 24.9527ZM333.706 28.1932C333.314 28.1932 332.933 27.9799 332.739 27.6068C332.457 27.0699 332.667 26.4111 333.2 26.1331C334.289 25.5658 335.431 24.9832 336.589 24.412C337.129 24.1454 337.784 24.3625 338.051 24.9032C338.321 25.4439 338.1 26.0989 337.56 26.3654C336.414 26.9328 335.286 27.5078 334.209 28.0675C334.049 28.1513 333.878 28.1932 333.706 28.1932ZM532.379 28.7453C532.185 28.7453 531.987 28.6958 531.812 28.5854C530.746 27.938 529.664 27.2945 528.587 26.6662C528.065 26.3654 527.89 25.6952 528.191 25.1736C528.495 24.6557 529.162 24.4767 529.683 24.7814C530.773 25.4135 531.869 26.0646 532.947 26.7195C533.461 27.0356 533.625 27.7057 533.312 28.2198C533.107 28.5587 532.745 28.7453 532.379 28.7453ZM538.735 32.8082C538.525 32.8082 538.316 32.7511 538.129 32.6255C537.097 31.9324 536.043 31.2432 534.992 30.5692C534.485 30.2456 534.337 29.5716 534.66 29.0652C534.984 28.5549 535.658 28.4064 536.168 28.7301C537.231 29.4117 538.301 30.1085 539.344 30.8091C539.847 31.148 539.98 31.8259 539.645 32.3247C539.432 32.6407 539.089 32.8082 538.735 32.8082ZM544.911 37.1492C544.686 37.1492 544.458 37.0768 544.264 36.9359C543.262 36.1972 542.238 35.4623 541.221 34.7464C540.726 34.3999 540.608 33.7183 540.955 33.2271C541.301 32.7321 541.983 32.614 542.474 32.9606C543.506 33.684 544.545 34.4304 545.558 35.1767C546.042 35.5347 546.149 36.2163 545.791 36.7037C545.577 36.9931 545.246 37.1492 544.911 37.1492ZM550.882 41.7605C550.642 41.7605 550.398 41.6805 550.196 41.5167C549.233 40.7399 548.247 39.9555 547.257 39.1902C546.777 38.8246 546.689 38.1392 547.059 37.6594C547.428 37.1834 548.113 37.0959 548.589 37.4652C549.595 38.2382 550.596 39.0302 551.571 39.8223C552.039 40.1992 552.112 40.8884 551.731 41.3568C551.514 41.6233 551.201 41.7605 550.882 41.7605ZM556.635 46.6459C556.376 46.6459 556.117 46.5545 555.908 46.3679C554.979 45.5416 554.027 44.7115 553.079 43.908C552.622 43.5196 552.565 42.8305 552.957 42.3697C553.345 41.9128 554.035 41.8557 554.495 42.244C555.451 43.0589 556.418 43.9005 557.359 44.7382C557.812 45.138 557.85 45.831 557.45 46.2803C557.233 46.524 556.936 46.6459 556.635 46.6459ZM562.145 51.7979C561.871 51.7979 561.597 51.695 561.384 51.4856C560.5 50.6212 559.586 49.7454 558.676 48.8963C558.235 48.485 558.212 47.792 558.623 47.3541C559.038 46.9124 559.727 46.8896 560.165 47.3008C561.09 48.1652 562.016 49.0486 562.911 49.9282C563.341 50.3509 563.348 51.0439 562.926 51.4742C562.713 51.6912 562.431 51.7979 562.145 51.7979ZM567.404 57.2126C567.111 57.2126 566.817 57.0945 566.604 56.8623C565.763 55.9522 564.894 55.0383 564.026 54.1435C563.607 53.7094 563.615 53.0202 564.049 52.6013C564.479 52.1787 565.172 52.1901 565.591 52.6204C566.475 53.5304 567.354 54.4595 568.207 55.381C568.615 55.8228 568.588 56.5158 568.146 56.9232C567.937 57.1174 567.67 57.2126 567.404 57.2126ZM572.392 62.8786C572.08 62.8786 571.771 62.7454 571.554 62.4864C570.758 61.5383 569.936 60.5825 569.113 59.6458C568.714 59.1927 568.759 58.5035 569.212 58.1036C569.666 57.7076 570.355 57.7495 570.751 58.2026C571.589 59.1508 572.423 60.1218 573.226 61.0852C573.614 61.5497 573.553 62.2351 573.093 62.6235C572.887 62.7948 572.64 62.8786 572.392 62.8786ZM577.095 68.7808C576.763 68.7808 576.436 68.6323 576.223 68.3505C575.473 67.3604 574.7 66.3666 573.923 65.388C573.55 64.9196 573.626 64.2304 574.098 63.8572C574.57 63.4803 575.255 63.5564 575.632 64.0286C576.421 65.0186 577.205 66.0315 577.963 67.033C578.328 67.5128 578.233 68.1982 577.75 68.5637C577.555 68.7122 577.323 68.7808 577.095 68.7808ZM581.497 74.9113C581.15 74.9113 580.807 74.7438 580.594 74.4354C579.893 73.4035 579.17 72.3715 578.446 71.3663C578.096 70.8751 578.207 70.1935 578.694 69.8431C579.185 69.489 579.867 69.6033 580.217 70.0907C580.952 71.115 581.687 72.1621 582.399 73.2055C582.738 73.7043 582.608 74.3821 582.113 74.721C581.923 74.8504 581.71 74.9113 581.497 74.9113ZM585.598 81.2514C585.228 81.2514 584.87 81.0648 584.665 80.7297C584.017 79.6711 583.343 78.6049 582.669 77.5578C582.342 77.0513 582.487 76.3774 582.993 76.0499C583.499 75.7224 584.173 75.8671 584.501 76.3736C585.186 77.436 585.868 78.5174 586.527 79.5912C586.839 80.1052 586.679 80.7754 586.165 81.0914C585.986 81.1981 585.788 81.2514 585.598 81.2514ZM589.379 87.7856C588.994 87.7856 588.617 87.58 588.419 87.2182C587.821 86.1216 587.201 85.0211 586.58 83.9511C586.279 83.4295 586.458 82.7593 586.98 82.4585C587.501 82.1576 588.168 82.3366 588.469 82.8583C589.101 83.9435 589.729 85.0592 590.334 86.1673C590.624 86.6966 590.43 87.3591 589.904 87.6485C589.737 87.7399 589.558 87.7856 589.379 87.7856ZM592.844 94.4912C592.44 94.4912 592.052 94.2665 591.861 93.8781C591.317 92.7624 590.753 91.6315 590.182 90.5273C589.904 89.9903 590.114 89.3316 590.651 89.0574C591.184 88.7794 591.842 88.9889 592.12 89.5258C592.699 90.6453 593.274 91.7914 593.822 92.9223C594.089 93.4669 593.861 94.118 593.32 94.3807C593.168 94.4569 593.004 94.4912 592.844 94.4912ZM595.985 101.357C595.563 101.357 595.159 101.109 594.984 100.694C594.489 99.548 593.975 98.3942 593.461 97.2671C593.209 96.7188 593.453 96.0714 594.001 95.8201C594.55 95.5726 595.197 95.8125 595.448 96.3608C595.97 97.4994 596.488 98.6684 596.987 99.8335C597.227 100.389 596.972 101.029 596.416 101.269C596.275 101.33 596.13 101.357 595.985 101.357ZM598.803 108.363C598.361 108.363 597.946 108.093 597.783 107.655C597.345 106.49 596.888 105.313 596.423 104.159C596.199 103.6 596.469 102.964 597.029 102.739C597.588 102.514 598.224 102.785 598.449 103.344C598.917 104.513 599.382 105.705 599.827 106.886C600.037 107.449 599.751 108.081 599.188 108.291C599.062 108.34 598.933 108.363 598.803 108.363ZM601.301 115.491C600.84 115.491 600.41 115.194 600.262 114.734C599.877 113.553 599.473 112.354 599.062 111.181C598.864 110.61 599.161 109.989 599.732 109.791C600.3 109.589 600.924 109.89 601.122 110.457C601.541 111.649 601.948 112.86 602.337 114.06C602.523 114.635 602.211 115.251 601.636 115.434C601.526 115.472 601.411 115.491 601.301 115.491ZM603.471 122.722C602.995 122.722 602.554 122.406 602.421 121.923C602.089 120.719 601.739 119.505 601.381 118.317C601.21 117.738 601.537 117.129 602.112 116.957C602.691 116.782 603.3 117.11 603.471 117.688C603.833 118.892 604.187 120.122 604.526 121.34C604.686 121.919 604.343 122.521 603.765 122.684C603.666 122.711 603.57 122.722 603.471 122.722ZM605.326 130.045C604.827 130.045 604.378 129.702 604.264 129.199C603.982 127.985 603.685 126.755 603.38 125.548C603.235 124.965 603.586 124.371 604.172 124.223C604.755 124.078 605.349 124.428 605.497 125.015C605.806 126.237 606.107 127.478 606.388 128.708C606.525 129.298 606.16 129.881 605.57 130.018C605.49 130.037 605.406 130.045 605.326 130.045ZM606.857 137.443C606.339 137.443 605.882 137.074 605.783 136.549C605.558 135.326 605.318 134.089 605.063 132.866C604.941 132.276 605.322 131.697 605.912 131.576C606.503 131.454 607.077 131.831 607.199 132.421C607.458 133.662 607.702 134.915 607.93 136.153C608.041 136.747 607.649 137.314 607.055 137.424C606.99 137.436 606.921 137.443 606.857 137.443ZM608.068 144.899C607.531 144.899 607.066 144.507 606.99 143.962C606.815 142.725 606.624 141.476 606.426 140.25C606.331 139.652 606.735 139.092 607.329 138.997C607.923 138.902 608.486 139.302 608.582 139.899C608.783 141.141 608.974 142.405 609.149 143.658C609.233 144.256 608.818 144.808 608.22 144.892C608.17 144.895 608.117 144.899 608.068 144.899ZM608.951 152.408C608.395 152.408 607.919 151.982 607.866 151.418C607.748 150.181 607.614 148.924 607.47 147.686C607.397 147.085 607.828 146.544 608.426 146.472C609.023 146.399 609.568 146.83 609.636 147.428C609.785 148.684 609.922 149.96 610.04 151.213C610.097 151.81 609.655 152.343 609.058 152.401C609.023 152.404 608.985 152.408 608.951 152.408ZM609.495 159.948C608.917 159.948 608.437 159.495 608.406 158.908C608.349 157.674 608.269 156.41 608.182 155.161C608.136 154.56 608.589 154.038 609.191 153.992C609.792 153.95 610.314 154.403 610.36 155.001C610.451 156.273 610.527 157.549 610.588 158.802C610.615 159.407 610.154 159.917 609.549 159.948C609.534 159.948 609.515 159.948 609.495 159.948ZM609.667 167.506C609.663 167.506 609.663 167.506 609.659 167.506C609.058 167.502 608.57 167.011 608.574 166.41C608.578 166.181 608.578 165.949 608.578 165.705C608.578 164.711 608.566 163.687 608.54 162.663C608.528 162.057 609.004 161.558 609.606 161.547C610.204 161.528 610.71 162.008 610.725 162.613C610.748 163.653 610.76 164.696 610.76 165.705C610.76 165.949 610.76 166.189 610.76 166.421C610.756 167.023 610.268 167.506 609.667 167.506Z" fill="#364154"/>
<path d="M609.477 173.104C609.446 173.104 609.412 173.1 609.381 173.1C608.78 173.05 608.334 172.521 608.388 171.919C608.388 171.912 608.441 171.272 608.49 170.099C608.517 169.498 609.024 169.033 609.629 169.056C610.231 169.079 610.699 169.589 610.672 170.191C610.619 171.417 610.566 172.079 610.562 172.106C610.512 172.673 610.036 173.104 609.477 173.104Z" fill="#364154"/>
<path d="M199.728 113.37C199.694 113.37 199.66 113.37 199.625 113.367C199.134 113.309 198.639 113.252 198.148 113.199C197.672 113.146 197.329 112.715 197.379 112.239C197.432 111.763 197.862 111.417 198.342 111.47C198.833 111.524 199.328 111.581 199.827 111.638C200.303 111.695 200.646 112.125 200.593 112.601C200.539 113.047 200.162 113.37 199.728 113.37Z" fill="#364154"/>
<path d="M168.427 111.767C167.955 111.767 167.567 111.386 167.556 110.914C167.548 110.435 167.929 110.035 168.408 110.027C169.391 110.008 170.4 109.993 171.409 109.989C171.409 109.989 171.409 109.989 171.413 109.989C171.889 109.989 172.281 110.377 172.281 110.853C172.285 111.337 171.896 111.725 171.417 111.729C170.415 111.733 169.418 111.744 168.443 111.763C168.439 111.767 168.431 111.767 168.427 111.767ZM177.387 111.783C177.38 111.783 177.372 111.783 177.364 111.783C176.371 111.76 175.369 111.744 174.391 111.737C173.911 111.729 173.526 111.337 173.53 110.857C173.534 110.377 173.926 109.997 174.406 109.997C175.396 110.004 176.405 110.023 177.406 110.046C177.886 110.058 178.267 110.454 178.256 110.933C178.244 111.409 177.859 111.783 177.387 111.783ZM162.457 111.973C161.996 111.973 161.615 111.611 161.589 111.147C161.566 110.667 161.935 110.259 162.415 110.233C163.413 110.183 164.422 110.141 165.412 110.107C165.891 110.099 166.295 110.465 166.31 110.945C166.329 111.425 165.952 111.828 165.473 111.847C164.49 111.878 163.489 111.923 162.503 111.973C162.487 111.973 162.472 111.973 162.457 111.973ZM183.358 112.003C183.343 112.003 183.331 112.003 183.316 112.003C182.326 111.954 181.328 111.908 180.342 111.874C179.862 111.855 179.485 111.451 179.504 110.971C179.52 110.492 179.927 110.122 180.403 110.134C181.397 110.172 182.406 110.214 183.4 110.263C183.88 110.29 184.249 110.697 184.226 111.177C184.203 111.642 183.819 112.003 183.358 112.003ZM156.501 112.365C156.052 112.365 155.671 112.022 155.633 111.569C155.595 111.089 155.949 110.671 156.429 110.629C157.415 110.549 158.421 110.473 159.422 110.408C159.902 110.374 160.313 110.739 160.347 111.219C160.378 111.699 160.016 112.11 159.536 112.144C158.546 112.209 157.549 112.281 156.574 112.365C156.547 112.365 156.524 112.365 156.501 112.365ZM189.321 112.377C189.302 112.377 189.279 112.377 189.256 112.373C188.278 112.3 187.28 112.232 186.286 112.167C185.806 112.14 185.441 111.725 185.471 111.246C185.502 110.766 185.917 110.404 186.397 110.435C187.394 110.495 188.4 110.564 189.386 110.64C189.866 110.674 190.223 111.093 190.189 111.573C190.155 112.03 189.774 112.377 189.321 112.377ZM195.273 112.894C195.246 112.894 195.216 112.891 195.189 112.891C194.191 112.792 193.194 112.696 192.223 112.613C191.747 112.571 191.393 112.152 191.431 111.672C191.472 111.192 191.895 110.838 192.375 110.88C193.35 110.968 194.355 111.059 195.36 111.158C195.836 111.204 196.187 111.63 196.137 112.11C196.095 112.559 195.714 112.894 195.273 112.894ZM150.557 112.959C150.123 112.959 149.746 112.632 149.697 112.19C149.64 111.714 149.982 111.28 150.458 111.227C151.445 111.109 152.45 111.002 153.44 110.903C153.92 110.857 154.346 111.204 154.392 111.68C154.441 112.16 154.091 112.586 153.615 112.632C152.633 112.731 151.639 112.837 150.66 112.955C150.626 112.959 150.592 112.959 150.557 112.959ZM144.644 113.759C144.221 113.759 143.848 113.454 143.783 113.024C143.711 112.548 144.035 112.102 144.511 112.03C145.493 111.878 146.491 111.737 147.481 111.6C147.957 111.539 148.395 111.87 148.459 112.346C148.524 112.822 148.189 113.26 147.713 113.325C146.734 113.458 145.748 113.599 144.777 113.751C144.731 113.759 144.686 113.759 144.644 113.759ZM138.761 114.779C138.349 114.779 137.988 114.49 137.908 114.075C137.816 113.603 138.125 113.146 138.597 113.058C139.572 112.868 140.566 112.685 141.548 112.514C142.02 112.434 142.473 112.75 142.553 113.222C142.637 113.698 142.317 114.147 141.845 114.231C140.87 114.399 139.888 114.577 138.924 114.764C138.871 114.775 138.814 114.779 138.761 114.779ZM132.923 116.028C132.527 116.028 132.169 115.758 132.074 115.358C131.968 114.89 132.257 114.421 132.725 114.315C133.689 114.086 134.675 113.865 135.654 113.656C136.122 113.553 136.586 113.854 136.685 114.322C136.784 114.794 136.487 115.255 136.019 115.358C135.052 115.564 134.077 115.781 133.121 116.005C133.053 116.021 132.988 116.028 132.923 116.028ZM127.139 117.517C126.758 117.517 126.412 117.266 126.302 116.881C126.172 116.42 126.442 115.941 126.907 115.811C127.863 115.541 128.838 115.278 129.809 115.031C130.273 114.913 130.745 115.191 130.867 115.655C130.985 116.123 130.707 116.596 130.239 116.714C129.283 116.961 128.32 117.22 127.375 117.487C127.295 117.506 127.219 117.517 127.139 117.517ZM121.428 119.253C121.062 119.253 120.723 119.021 120.601 118.656C120.453 118.199 120.7 117.707 121.157 117.555C122.109 117.243 123.073 116.938 124.021 116.653C124.481 116.512 124.969 116.771 125.106 117.232C125.247 117.688 124.988 118.176 124.527 118.317C123.59 118.602 122.638 118.903 121.698 119.208C121.61 119.238 121.519 119.253 121.428 119.253ZM115.8 121.245C115.449 121.245 115.118 121.032 114.989 120.685C114.817 120.236 115.042 119.733 115.491 119.562C116.416 119.208 117.368 118.861 118.313 118.526C118.766 118.366 119.265 118.602 119.425 119.055C119.585 119.509 119.345 120.007 118.892 120.167C117.959 120.495 117.022 120.841 116.108 121.188C116.009 121.226 115.902 121.245 115.8 121.245ZM110.271 123.495C109.936 123.495 109.616 123.301 109.475 122.974C109.281 122.532 109.482 122.022 109.924 121.828C110.838 121.432 111.771 121.039 112.696 120.662C113.138 120.48 113.648 120.693 113.827 121.138C114.01 121.584 113.797 122.09 113.351 122.273C112.441 122.642 111.52 123.031 110.617 123.423C110.507 123.473 110.389 123.495 110.271 123.495ZM104.86 126.016C104.54 126.016 104.231 125.837 104.079 125.533C103.866 125.102 104.041 124.577 104.471 124.364C105.358 123.926 106.272 123.488 107.182 123.065C107.62 122.863 108.134 123.05 108.34 123.484C108.542 123.922 108.351 124.44 107.917 124.642C107.019 125.057 106.12 125.491 105.244 125.925C105.122 125.986 104.989 126.016 104.86 126.016ZM99.5782 128.8C99.2736 128.8 98.9766 128.64 98.8204 128.354C98.5844 127.935 98.7329 127.406 99.1518 127.17C100.02 126.683 100.911 126.199 101.794 125.734C102.221 125.51 102.746 125.673 102.971 126.096C103.196 126.523 103.032 127.048 102.605 127.273C101.733 127.734 100.858 128.209 100.005 128.689C99.8677 128.765 99.7229 128.8 99.5782 128.8ZM94.4453 131.85C94.1597 131.85 93.8779 131.709 93.7104 131.446C93.4553 131.039 93.5771 130.502 93.9807 130.247C94.8184 129.717 95.6828 129.188 96.5472 128.674C96.9623 128.427 97.4954 128.564 97.7391 128.979C97.9866 129.39 97.8495 129.923 97.4383 130.17C96.5853 130.677 95.7361 131.195 94.9098 131.716C94.7651 131.808 94.6052 131.85 94.4453 131.85ZM89.4799 135.163C89.2057 135.163 88.9391 135.037 88.7678 134.797C88.4936 134.405 88.585 133.86 88.9772 133.582C89.7959 133.007 90.6299 132.436 91.46 131.88C91.8598 131.614 92.3967 131.724 92.6632 132.124C92.9298 132.524 92.8231 133.061 92.4233 133.327C91.6084 133.876 90.786 134.439 89.9825 135.006C89.8302 135.113 89.6551 135.163 89.4799 135.163ZM84.6934 138.734C84.4383 138.734 84.1832 138.62 84.0119 138.403C83.7149 138.026 83.7796 137.478 84.1565 137.181C84.9409 136.564 85.7444 135.947 86.5441 135.353C86.9287 135.064 87.4731 135.144 87.7587 135.528C88.0481 135.913 87.9682 136.457 87.5836 136.747C86.7954 137.333 86.0034 137.938 85.2304 138.548C85.0743 138.673 84.8838 138.734 84.6934 138.734ZM80.1012 142.554C79.8613 142.554 79.6214 142.455 79.4501 142.257C79.1302 141.895 79.1683 141.346 79.53 141.03C80.2764 140.372 81.0455 139.717 81.8185 139.077C82.1879 138.769 82.7363 138.818 83.0409 139.187C83.3493 139.557 83.2998 140.105 82.9304 140.414C82.1727 141.042 81.4149 141.693 80.6762 142.336C80.5124 142.481 80.3068 142.554 80.1012 142.554ZM75.7184 146.609C75.4899 146.609 75.2653 146.521 75.0939 146.346C74.7588 146 74.7665 145.451 75.1092 145.116C75.8288 144.416 76.5638 143.719 77.2949 143.045C77.6452 142.717 78.1973 142.74 78.521 143.09C78.8484 143.445 78.8256 143.997 78.4753 144.32C77.7556 144.987 77.0321 145.672 76.3239 146.361C76.1563 146.525 75.9355 146.609 75.7184 146.609ZM71.5488 150.885C71.3394 150.885 71.1262 150.809 70.9586 150.657C70.6045 150.329 70.5855 149.777 70.913 149.427C71.5908 148.692 72.2875 147.957 72.9844 147.245C73.3195 146.898 73.8678 146.891 74.2143 147.226C74.557 147.561 74.5647 148.113 74.2296 148.456C73.5442 149.16 72.8588 149.884 72.1886 150.607C72.0172 150.794 71.7849 150.885 71.5488 150.885ZM67.604 155.374C67.4098 155.374 67.2118 155.306 67.048 155.173C66.6787 154.864 66.6292 154.316 66.9376 153.947C67.5773 153.181 68.2361 152.412 68.8948 151.662C69.2147 151.3 69.763 151.266 70.1247 151.582C70.4826 151.898 70.5207 152.446 70.2009 152.808C69.5535 153.551 68.9024 154.308 68.2741 155.062C68.1028 155.268 67.8553 155.374 67.604 155.374ZM63.8913 160.05C63.7085 160.05 63.5257 159.997 63.3696 159.875C62.985 159.59 62.9089 159.041 63.1983 158.661C63.7999 157.861 64.4168 157.061 65.0375 156.277C65.3383 155.904 65.8828 155.839 66.2598 156.136C66.6367 156.437 66.7015 156.985 66.4007 157.362C65.7914 158.131 65.1783 158.92 64.5881 159.708C64.4168 159.932 64.1541 160.05 63.8913 160.05ZM60.411 164.909C60.2434 164.909 60.072 164.86 59.9235 164.757C59.5237 164.487 59.4209 163.946 59.6913 163.55C60.2586 162.716 60.8375 161.89 61.4162 161.082C61.6942 160.694 62.2387 160.603 62.6309 160.881C63.0193 161.162 63.1107 161.707 62.8289 162.095C62.2616 162.891 61.6904 163.71 61.1307 164.528C60.9631 164.776 60.6889 164.909 60.411 164.909ZM57.1667 169.928C57.0106 169.928 56.8507 169.886 56.7098 169.799C56.3023 169.547 56.1729 169.01 56.4242 168.599C56.9497 167.746 57.4904 166.889 58.0273 166.055C58.29 165.652 58.8269 165.538 59.2305 165.796C59.6342 166.059 59.7522 166.596 59.4895 167C58.9602 167.822 58.4271 168.668 57.9054 169.513C57.7416 169.779 57.4561 169.928 57.1667 169.928ZM54.1547 175.088C54.01 175.088 53.8653 175.053 53.732 174.977C53.3132 174.745 53.1608 174.216 53.3931 173.797C53.8805 172.917 54.3793 172.038 54.8782 171.181C55.1219 170.766 55.655 170.625 56.07 170.869C56.4851 171.108 56.626 171.641 56.3823 172.057C55.891 172.902 55.396 173.77 54.9162 174.638C54.7563 174.924 54.4593 175.088 54.1547 175.088ZM51.375 180.38C51.2455 180.38 51.116 180.35 50.9904 180.289C50.5601 180.076 50.385 179.554 50.5982 179.124C51.0437 178.225 51.5044 177.323 51.9652 176.443C52.1898 176.021 52.7153 175.857 53.1418 176.078C53.5683 176.302 53.732 176.828 53.5073 177.254C53.0504 178.122 52.5973 179.01 52.1556 179.897C52.0033 180.202 51.6948 180.38 51.375 180.38ZM48.8314 185.788C48.7095 185.788 48.5915 185.765 48.4772 185.711C48.0355 185.517 47.8413 185.003 48.0355 184.565C48.443 183.651 48.8656 182.73 49.2883 181.831C49.4939 181.397 50.0118 181.211 50.4459 181.412C50.88 181.618 51.0665 182.136 50.8609 182.57C50.442 183.461 50.027 184.367 49.6234 185.273C49.4787 185.597 49.1627 185.788 48.8314 185.788ZM46.5124 191.301C46.4058 191.301 46.2953 191.282 46.1925 191.24C45.7432 191.061 45.5262 190.555 45.7052 190.109C46.0707 189.18 46.4553 188.244 46.8399 187.326C47.0264 186.88 47.5367 186.675 47.9784 186.861C48.4239 187.048 48.6295 187.558 48.4429 188C48.0622 188.906 47.6852 189.831 47.3196 190.749C47.1864 191.092 46.8589 191.301 46.5124 191.301ZM44.4181 196.903C44.3229 196.903 44.2277 196.887 44.1325 196.853C43.6794 196.693 43.4395 196.198 43.5994 195.745C43.9307 194.801 44.2734 193.849 44.6237 192.916C44.7913 192.466 45.2901 192.238 45.7432 192.406C46.1926 192.573 46.421 193.076 46.2534 193.525C45.9069 194.447 45.568 195.387 45.2406 196.32C45.1149 196.678 44.7798 196.903 44.4181 196.903ZM42.5523 202.584C42.4685 202.584 42.3809 202.572 42.2971 202.546C41.8364 202.405 41.5774 201.917 41.7183 201.457C42.0115 200.505 42.32 199.538 42.6322 198.593C42.7807 198.136 43.272 197.889 43.7289 198.037C44.1858 198.186 44.4333 198.677 44.2848 199.134C43.9764 200.071 43.6718 201.023 43.3824 201.971C43.2681 202.344 42.9254 202.584 42.5523 202.584ZM40.9073 208.337C40.8349 208.337 40.7588 208.326 40.6864 208.307C40.2219 208.185 39.9439 207.709 40.0658 207.245C40.3209 206.277 40.5912 205.303 40.8654 204.343C40.9987 203.882 41.4785 203.612 41.9392 203.745C42.4038 203.879 42.6703 204.358 42.537 204.819C42.2667 205.771 42.0001 206.734 41.7488 207.69C41.646 208.079 41.2919 208.337 40.9073 208.337ZM39.4908 214.152C39.4298 214.152 39.3651 214.144 39.3004 214.129C38.832 214.026 38.5388 213.562 38.6416 213.093C38.8587 212.122 39.0871 211.136 39.327 210.161C39.4375 209.693 39.9096 209.408 40.378 209.522C40.8426 209.636 41.1281 210.104 41.0139 210.573C40.7816 211.536 40.5532 212.511 40.3399 213.47C40.2485 213.874 39.8906 214.152 39.4908 214.152ZM38.3103 220.024C38.2608 220.024 38.2075 220.02 38.1542 220.008C37.6821 219.925 37.3698 219.472 37.4536 218.999C37.6287 218.021 37.8192 217.027 38.0172 216.041C38.1124 215.569 38.5693 215.26 39.0414 215.359C39.5136 215.454 39.8183 215.911 39.7231 216.383C39.525 217.358 39.3385 218.341 39.1633 219.308C39.091 219.727 38.7216 220.024 38.3103 220.024ZM37.3889 225.949C37.3508 225.949 37.3127 225.949 37.2746 225.941C36.7987 225.88 36.4636 225.442 36.5245 224.966C36.6501 223.999 36.7948 222.99 36.9548 221.973C37.0271 221.501 37.4726 221.174 37.9486 221.25C38.4208 221.322 38.7482 221.768 38.6721 222.244C38.516 223.245 38.3751 224.235 38.2494 225.191C38.1923 225.629 37.8192 225.949 37.3889 225.949Z" fill="#364154"/>
<path d="M36.9247 230.389C36.9095 230.389 36.8905 230.389 36.8752 230.385C36.3954 230.358 36.0299 229.947 36.0565 229.467C36.0565 229.444 36.0908 228.923 36.1822 227.948C36.2317 227.472 36.6544 227.118 37.1342 227.167C37.6101 227.213 37.9605 227.639 37.9148 228.115C37.8234 229.052 37.7929 229.562 37.7929 229.57C37.7662 230.031 37.3817 230.389 36.9247 230.389Z" fill="#364154"/>
<path d="M639.006 393.382H0.799528C0.403514 393.382 0.079834 392.96 0.079834 392.442C0.079834 391.924 0.403514 391.505 0.799528 391.505H639.006C639.398 391.505 639.722 391.924 639.722 392.442C639.722 392.96 639.398 393.382 639.006 393.382Z" fill="#1B1B1B"/>
</g>
<defs>
<linearGradient id="paint0_linear_662_1688" x1="208.589" y1="327.222" x2="474.209" y2="136.097" gradientUnits="userSpaceOnUse">
<stop stop-color="#FFBDAD"/>
<stop offset="0.868794" stop-color="#EA2FA6"/>
</linearGradient>
<linearGradient id="paint1_linear_662_1688" x1="17.219" y1="301.001" x2="72.0552" y2="261.552" gradientUnits="userSpaceOnUse">
<stop stop-color="#FFBDAD"/>
<stop offset="0.868794" stop-color="#EA2FA6"/>
</linearGradient>
<clipPath id="clip0_662_1688">
<rect width="640" height="393.539" fill="white"/>
</clipPath>
</defs>
</svg>
