<svg width="1440" height="762" viewBox="0 0 1440 762" fill="none" xmlns="http://www.w3.org/2000/svg">
<path fill-rule="evenodd" clip-rule="evenodd" d="M0 386.903L60 419.145C120 451.387 222 587.972 342 620.213C462 652.455 600 580.354 720 644.838C840 709.322 960 786.681 1080 754.439C1200 722.197 1320 646.226 1380 549.5L1440 477V0H1380C1320 0 1200 0 1080 0C960 0 840 0 720 0C600 0 480 0 360 0C240 0 120 0 60 0H0V386.903Z" fill="url(#paint0_linear_941_3950)" fill-opacity="0.05"/>
<defs>
<linearGradient id="paint0_linear_941_3950" x1="0" y1="0" x2="630.031" y2="1190.61" gradientUnits="userSpaceOnUse">
<stop stop-color="#FFBDAD"/>
<stop offset="0.868794" stop-color="#EA2FA6"/>
</linearGradient>
</defs>
</svg>
