<svg width="1440" height="763" viewBox="0 0 1440 763" fill="none" xmlns="http://www.w3.org/2000/svg">
<g filter="url(#filter0_d_738_2788)">
<path fill-rule="evenodd" clip-rule="evenodd" d="M0 386.903L60 419.145C120 451.387 222 587.972 342 620.213C462 652.455 600 580.354 720 644.838C840 709.322 960 786.681 1080 754.439C1200 722.197 1320 646.226 1380 549.5L1440 477V0H1380C1320 0 1200 0 1080 0C960 0 840 0 720 0C600 0 480 0 360 0C240 0 120 0 60 0H0V386.903Z" fill="#1B1B1B" fill-opacity="0.02" shape-rendering="crispEdges"/>
</g>
<defs>
<filter id="filter0_d_738_2788" x="0" y="0" width="1440" height="763" filterUnits="userSpaceOnUse" color-interpolation-filters="sRGB">
<feFlood flood-opacity="0" result="BackgroundImageFix"/>
<feColorMatrix in="SourceAlpha" type="matrix" values="0 0 0 0 0 0 0 0 0 0 0 0 0 0 0 0 0 0 127 0" result="hardAlpha"/>
<feOffset dy="1"/>
<feComposite in2="hardAlpha" operator="out"/>
<feColorMatrix type="matrix" values="0 0 0 0 0 0 0 0 0 0 0 0 0 0 0 0 0 0 0.1 0"/>
<feBlend mode="normal" in2="BackgroundImageFix" result="effect1_dropShadow_738_2788"/>
<feBlend mode="normal" in="SourceGraphic" in2="effect1_dropShadow_738_2788" result="shape"/>
</filter>
</defs>
</svg>
