<svg width="523" height="413" viewBox="0 0 523 413" fill="none" xmlns="http://www.w3.org/2000/svg">
<path d="M170.244 412.692H31.072C14.257 412.615 0.0449808 398.276 0.115988 381.461L1.59798 30.948C1.66898 14.1229 15.369 0.542944 32.194 0.619955L172.007 1.26595C188.823 1.34395 202.393 15.0349 202.322 31.85L200.84 382.365C200.769 399.19 187.069 412.77 170.244 412.692Z" fill="#372D25"/>
<path d="M171.807 14.585L144.7 14.46C141.065 14.444 138.104 17.511 138.089 21.31L138.067 26.228C138.052 30.028 135.092 33.096 131.457 33.079L78.6191 32.834C74.9841 32.818 72.0491 29.723 72.0651 25.923L72.0861 21.006C72.1021 17.206 69.1681 14.11 65.5331 14.094L55.9991 14.05L32.2741 13.941C20.4911 13.887 10.8961 23.397 10.8461 35.18L9.4001 377.307C9.3501 389.085 18.8541 398.673 30.6311 398.728L170.164 399.371C181.946 399.426 191.541 389.917 191.592 378.133L193.038 36.004C193.087 24.227 183.584 14.64 171.807 14.585Z" fill="#F5F5F5"/>
<path d="M112.588 334.719C112.428 338.85 112.277 342.725 112.151 345.946H132.195L129.741 333.634L112.588 334.719Z" fill="#F5F5F5"/>
<path d="M31.1299 339.872L31.3049 345.946H110.15C110.283 342.535 110.431 338.75 110.582 334.846L31.1299 339.872Z" fill="#F5F5F5"/>
<path d="M130.748 333.57L133.214 345.945H170.166L169.721 331.105L130.748 333.57Z" fill="#F5F5F5"/>
<path d="M114.59 160.578L121.577 120.068L103.277 118.712V160.578H114.59Z" fill="#F5F5F5"/>
<path d="M29.482 317.382L9.62004 325.163L9.56104 339.232L30.073 337.935L29.482 317.382Z" fill="#F5F5F5"/>
<path d="M29.3898 314.218L28.3038 276.488L28.2888 276.489V263.183L9.87379 265.133L9.63379 321.935L29.3828 314.199L29.3898 314.218Z" fill="#F5F5F5"/>
<path d="M28.2892 233.477L10.0182 231.065L9.88721 262.115L28.2892 260.166V233.477Z" fill="#F5F5F5"/>
<path d="M164.475 263.743L163.705 274.556L142.126 276.883L143.796 285.439L168.294 283.592L167.925 271.323L169.88 263.197L164.475 263.743Z" fill="#F5F5F5"/>
<path d="M125.582 286.812L142.793 285.515L139.044 266.31L124.023 267.826L125.582 286.812Z" fill="#F5F5F5"/>
<path d="M125.746 288.805L127.061 304.819L129.395 326.783L130.353 331.591L169.66 329.105L168.354 285.593L125.746 288.805Z" fill="#F5F5F5"/>
<path d="M58.0918 213.201L59.6038 215.793L29.2888 233.475V275.416L61.2828 273.153L122.946 266.93L120.688 239.437L61.7798 231.741L62.1688 228.767L120.437 236.379L116.616 189.849L58.9438 195.395L58.7528 193.403L116.453 187.855L114.459 163.578H58.9838L10.2648 172.444L10.0298 228.04L28.4768 230.475L58.0918 213.201ZM32.3938 271.414C32.3938 271.414 32.6228 236.829 32.3938 235.538L57.1298 222.379L60.3358 269.646L32.3938 271.414Z" fill="#F5F5F5"/>
<path d="M162.455 263.947L140.043 266.209L141.742 274.913L161.829 272.747L162.455 263.947Z" fill="#F5F5F5"/>
<path d="M112.873 327.31C112.804 329.125 112.734 330.935 112.666 332.71L129.346 331.655L128.489 327.352L112.873 327.31Z" fill="#F5F5F5"/>
<path d="M76.9428 160.578L79.8848 147.256H102.277V118.638L32.2518 113.451V140.322L10.3808 145.269L10.2788 169.393L58.7138 160.578H76.9428Z" fill="#F5F5F5"/>
<path d="M123.668 80.95L123.071 78.498L149.811 67.916L132.418 33.002C132.104 33.049 131.784 33.081 131.457 33.079L101.907 32.942L102.712 81.806L123.668 80.95Z" fill="#F5F5F5"/>
<path d="M164.192 62.2229L164.161 14.5489L144.7 14.4589C141.065 14.4429 138.105 17.5109 138.09 21.3099L138.068 26.2269C138.059 28.5719 136.925 30.6359 135.206 31.8699L152.61 66.8069L164.192 62.2229Z" fill="#F5F5F5"/>
<path d="M63.6698 64.2699L61.4148 14.0749L55.9998 14.0499L34.8498 13.9519L25.8398 58.8389L63.6698 64.2699ZM58.8488 19.1619L59.5698 60.0399L31.4588 55.9259L37.6148 19.1619H58.8488Z" fill="#F5F5F5"/>
<path d="M64.691 64.4159L64.696 64.8439C64.744 68.7609 64.824 75.8109 64.883 83.3509L101.712 81.8459L100.907 32.9359L78.619 32.8329C74.984 32.8169 72.05 29.7219 72.066 25.9219L72.087 21.0049C72.103 17.2049 69.168 14.1099 65.533 14.0939L62.416 14.0789L64.677 64.4139L64.691 64.4159Z" fill="#F5F5F5"/>
<path d="M22.8659 58.4119L31.7869 13.9619C20.2299 14.1699 10.8949 23.5609 10.8459 35.1799L10.7529 57.3379L10.8459 56.6859L22.8659 58.4119Z" fill="#F5F5F5"/>
<path d="M29.252 113.228L10.522 111.841L10.394 142.189L29.252 137.924V113.228Z" fill="#F5F5F5"/>
<path d="M22.669 59.3939L10.751 57.6829L10.543 106.829L13.109 107.019L22.669 59.3939Z" fill="#F5F5F5"/>
<path d="M60.5002 313.645L60.8152 274.188L29.3032 276.417L30.4162 315.072L60.5002 313.645Z" fill="#F5F5F5"/>
<path d="M66.2972 304.539L110.925 325.918C111.456 311.947 111.932 298.883 111.887 298.051L112.854 297.999L113.327 297.056C113.961 297.373 113.961 297.374 113.628 306.897C113.442 312.21 113.179 319.281 112.91 326.355H128.344L126.065 304.914L123.028 267.927L64.7202 273.811L66.2972 304.539Z" fill="#F5F5F5"/>
<path d="M175.686 239.055L175.183 233.853L121.69 239.417L123.941 266.829L170.127 262.168L175.686 239.055Z" fill="#F5F5F5"/>
<path d="M102.277 150.256H82.2951L80.0151 160.578H102.277V150.256Z" fill="#F5F5F5"/>
<path d="M167.426 153.739L117.381 150.277L115.341 162.1L117.448 187.759L170.229 182.684L167.426 153.739ZM119.221 162.078L121.907 154.617L165.375 157.366L167.891 178.711L120.693 184.308L119.221 162.078Z" fill="#F5F5F5"/>
<path d="M172.619 207.371L170.422 184.675L117.613 189.753L119.596 213.905L172.619 207.371Z" fill="#F5F5F5"/>
<path d="M30.1302 339.935L9.6422 341.231L9.5582 339.897L9.5332 345.945H30.3032L30.1302 339.935Z" fill="#F5F5F5"/>
<path d="M192.671 50.954L192.972 51.716L193.039 36.004C193.088 24.227 183.585 14.639 171.808 14.584L165.161 14.554L165.192 61.828L192.671 50.954Z" fill="#F5F5F5"/>
<path d="M110.883 327.006L65.3288 305.183L63.7238 273.911L61.8158 274.103L61.4928 314.598L30.4448 316.071L30.4708 316.973L30.4778 316.991L30.4718 316.994L31.0718 337.871L110.66 332.837C110.734 330.901 110.809 328.948 110.883 327.006ZM32.3948 318.645L75.8518 315.595L104.125 328.712L32.3948 332.595V318.645Z" fill="#F5F5F5"/>
<path d="M179.724 103.46L181.587 92.4059C165.252 86.5769 164.121 69.5409 164.169 64.3839L153.505 68.6039L169.56 100.833L179.724 103.46Z" fill="#F5F5F5"/>
<path d="M121.445 236.428L143.655 234.117L139.278 214.502L119.841 216.897L121.445 236.428Z" fill="#F5F5F5"/>
<path d="M167.506 120.404L126.022 120.397L122.58 120.142L117.894 147.305L167.133 150.712L165.99 138.902L170.836 121.456L167.506 120.404Z" fill="#F5F5F5"/>
<path d="M166.489 115.404L167.008 102.438L150.705 69.7119L125.426 79.7159L134.116 115.404H166.489ZM149.721 73.6929L164.66 102.114L162.502 110.971L136.94 110.009L130.549 83.1259L149.721 73.6929Z" fill="#F5F5F5"/>
<path d="M172.943 271.843L173.708 297.309L191.68 296.298L191.737 297.296L173.738 298.309L174.653 328.789L191.645 327.714L191.771 329.71L174.713 330.789L175.168 345.945H191.728L192.087 260.957L175.15 262.666L172.943 271.843Z" fill="#F5F5F5"/>
<path d="M63.702 65.2839L25.643 59.8209L16.124 107.242L63.869 110.779C64.06 103.478 63.894 81.0829 63.702 65.2839Z" fill="#F5F5F5"/>
<path d="M126.3 115.404H132.058L123.909 81.9399L102.728 82.8059L103.236 113.695L126.3 115.404Z" fill="#F5F5F5"/>
<path d="M9.42993 370.289L9.39993 377.307C9.39893 377.524 9.42493 377.734 9.42993 377.949V370.289Z" fill="#F5F5F5"/>
<path d="M64.8438 110.852L102.234 113.621L101.728 82.8469L64.8907 84.3519C64.9688 94.7589 64.9998 105.86 64.8438 110.852Z" fill="#F5F5F5"/>
<path d="M172.908 210.358L140.274 214.379L144.656 234.012L174.894 230.867L172.908 210.358Z" fill="#F5F5F5"/>
<path d="M181.755 91.4029L183.845 78.9979L192.853 79.6989L192.966 52.9869L165.18 63.9829C164.615 82.7799 176.421 89.3899 181.755 91.4029Z" fill="#F5F5F5"/>
<path d="M171.056 139.345L172.191 151.062L192.546 152.47L192.648 128.343L175.607 122.962L171.056 139.345Z" fill="#F5F5F5"/>
<path d="M180.744 239.408L175.398 261.636L192.091 259.952L192.19 236.643C187.067 235.294 182.597 234.195 180.195 233.732L180.744 239.408Z" fill="#F5F5F5"/>
<path d="M169.477 115.783L192.67 123.107L192.725 109.917L169.947 104.031L169.477 115.783Z" fill="#F5F5F5"/>
<path d="M179.899 230.679C181.768 230.961 185.311 231.713 192.203 233.525L192.419 182.561L175.399 184.197L179.899 230.679Z" fill="#F5F5F5"/>
<path d="M175.205 182.206L192.427 180.551L192.533 155.477L172.483 154.09L175.205 182.206Z" fill="#F5F5F5"/>
<path d="M183.677 92.0349C186.941 93.0269 189.978 93.7959 192.791 94.3599L192.845 81.7049L185.514 81.1339L183.677 92.0349Z" fill="#F5F5F5"/>
<path d="M181.667 103.962L192.739 106.823L192.787 95.3879C189.923 94.8139 186.832 94.0359 183.509 93.0289L181.667 103.962Z" fill="#F5F5F5"/>
<path d="M30.1311 339.935L30.3041 345.946H31.3041L31.1301 339.872L110.582 334.846C110.431 338.75 110.284 342.535 110.15 345.946H112.151C112.277 342.725 112.428 338.85 112.588 334.719L129.741 333.634L132.195 345.946H133.214L130.748 333.571L169.72 331.105L170.166 345.946H175.168L174.713 330.79L191.772 329.711L191.646 327.714L174.653 328.789L173.738 298.309L191.737 297.296L191.68 296.298L173.708 297.31L172.944 271.843L175.151 262.666L192.087 260.957L192.091 259.952L175.398 261.637L180.744 239.409L180.195 233.732C182.597 234.195 187.067 235.294 192.19 236.643L192.203 233.526C185.311 231.714 181.768 230.962 179.899 230.68L175.399 184.197L192.419 182.561L192.427 180.55L175.206 182.206L172.483 154.089L192.533 155.477L192.546 152.47L172.19 151.062L171.056 139.345L175.607 122.962L192.648 128.343L192.67 123.107L169.477 115.783L169.947 104.032L192.726 109.918L192.739 106.823L181.667 103.962L183.51 93.028C186.833 94.035 189.923 94.814 192.787 95.388L192.792 94.359C189.979 93.795 186.941 93.027 183.677 92.035L185.514 81.134L192.845 81.705L192.854 79.7L183.846 78.999L181.755 91.404C176.421 89.391 164.615 82.781 165.18 63.984L192.966 52.988L192.972 51.716L192.67 50.954L165.192 61.829L165.161 14.5539L164.161 14.5499L164.192 62.224L152.61 66.808L135.206 31.8709C134.39 32.457 133.441 32.85 132.417 33.002L149.81 67.916L123.07 78.498L123.668 80.95L102.711 81.806L101.907 32.9419L100.907 32.937L101.712 81.847L64.8831 83.352C64.8241 75.812 64.7441 68.761 64.6961 64.844L64.6911 64.417L64.6771 64.415L62.4161 14.0799L61.4151 14.075L63.6691 64.27L25.8401 58.839L34.8491 13.952L32.2741 13.941C32.1101 13.9399 31.9501 13.96 31.7871 13.963L22.8651 58.412L10.8461 56.687L10.7521 57.339L10.7511 57.684L22.6681 59.394L13.1091 107.019L10.5431 106.829L10.5221 111.841L29.2521 113.229V137.924L10.3941 142.19L10.3811 145.269L32.2521 140.322V113.451L102.277 118.638V147.255H79.8841L76.9431 160.578H58.7141L10.2791 169.393L10.2661 172.444L58.9841 163.578H114.46L116.453 187.856L58.7531 193.404L58.9451 195.395L116.617 189.85L120.438 236.379L62.1701 228.767L61.7811 231.742L120.689 239.437L122.946 266.93L61.2841 273.153L29.2901 275.417V233.475L59.6051 215.794L58.0931 213.202L28.4771 230.475L10.0311 228.041L10.0181 231.065L28.2901 233.477V260.167L9.88711 262.116L9.87411 265.133L28.2901 263.183V276.489L28.3051 276.488L29.3911 314.218L29.3831 314.199L9.63411 321.936L9.62011 325.163L29.4821 317.382L30.0731 337.935L9.5611 339.232L9.55811 339.897L9.64211 341.231L30.1311 339.935ZM112.666 332.71C112.734 330.935 112.804 329.125 112.873 327.31L128.489 327.352L129.347 331.655L112.666 332.71ZM130.353 331.591L129.395 326.783L127.061 304.82L125.746 288.805L168.354 285.594L169.66 329.105L130.353 331.591ZM140.043 266.209L162.455 263.948L161.83 272.748L141.742 274.914L140.043 266.209ZM139.044 266.31L142.793 285.515L125.582 286.812L124.023 267.826L139.044 266.31ZM168.294 283.593L143.797 285.439L142.127 276.884L163.706 274.556L164.475 263.744L169.88 263.198L167.926 271.324L168.294 283.593ZM139.278 214.502L143.655 234.117L121.445 236.428L119.841 216.897L139.278 214.502ZM144.656 234.013L140.275 214.379L172.908 210.358L174.894 230.867L144.656 234.013ZM167.133 150.712L117.894 147.305L122.579 120.142L126.022 120.397L167.506 120.404L170.836 121.456L165.989 138.901L167.133 150.712ZM164.169 64.384C164.121 69.541 165.251 86.576 181.586 92.405L179.723 103.46L169.56 100.833L153.505 68.604L164.169 64.384ZM150.705 69.712L167.008 102.438L166.489 115.404H134.117L125.426 79.716L150.705 69.712ZM123.909 81.94L132.058 115.404H126.3L103.236 113.695L102.728 82.806L123.909 81.94ZM101.728 82.847L102.235 113.621L64.8441 110.852C65.0001 105.86 64.9691 94.759 64.8911 84.352L101.728 82.847ZM25.6431 59.821L63.7011 65.285C63.8931 81.084 64.0601 103.478 63.8691 110.779L16.1241 107.243L25.6431 59.821ZM121.578 120.068L114.59 160.578H103.277V118.712L121.578 120.068ZM82.2951 150.255H102.277V160.578H80.0151L82.2951 150.255ZM115.341 162.101L117.381 150.277L167.426 153.74L170.229 182.685L117.448 187.76L115.341 162.101ZM170.422 184.676L172.619 207.372L119.595 213.905L117.612 189.754L170.422 184.676ZM121.69 239.417L175.183 233.854L175.687 239.055L170.128 262.168L123.941 266.83L121.69 239.417ZM126.065 304.914L128.343 326.355H112.909C113.178 319.281 113.442 312.21 113.628 306.897C113.961 297.374 113.96 297.373 113.326 297.056L112.854 297.999L111.886 298.05C111.931 298.882 111.455 311.946 110.924 325.917L66.2971 304.539L64.7201 273.811L123.028 267.926L126.065 304.914ZM60.8151 274.188L60.5001 313.645L30.4161 315.072L29.3041 276.417L60.8151 274.188ZM30.4711 316.994L30.4781 316.992L30.4711 316.974L30.4451 316.071L61.4921 314.598L61.8151 274.104L63.7231 273.911L65.3291 305.183L110.883 327.006C110.809 328.948 110.733 330.901 110.659 332.837L31.0721 337.871L30.4711 316.994Z" fill="white"/>
<path d="M75.852 315.595L32.395 318.645V332.595L104.125 328.713L75.852 315.595Z" fill="#EBEBEB"/>
<path d="M165.375 157.366L121.907 154.617L119.221 162.078L120.693 184.309L167.891 178.712L165.375 157.366Z" fill="#EBEBEB"/>
<path d="M30.6312 398.727L170.165 399.371C181.947 399.426 191.541 389.915 191.592 378.132L191.728 345.945H175.168H170.166H133.214H132.195H112.152H110.15H31.3052H30.3042H9.53318L9.43018 370.289V377.948C9.72318 389.428 19.0712 398.673 30.6312 398.727Z" fill="#EBEBEB"/>
<path d="M59.57 60.0399L58.849 19.1619H37.615L31.458 55.9259L59.57 60.0399Z" fill="#EBEBEB"/>
<path d="M162.502 110.971L164.661 102.114L149.721 73.6929L130.549 83.1269L136.94 110.009L162.502 110.971Z" fill="#EBEBEB"/>
<path d="M32.395 235.538C32.624 236.829 32.395 271.413 32.395 271.413L60.337 269.646L57.13 222.379L32.395 235.538Z" fill="#EBEBEB"/>
<path d="M125.589 263.624L124.111 242.19L172.035 236.03V239.726L166.24 259.435L125.589 263.624Z" fill="#EBEBEB"/>
<path d="M90.1388 85.8899C90.1388 89.1129 87.5248 91.7269 84.3018 91.7269C81.0788 91.7269 78.4648 89.1129 78.4648 85.8899C78.4648 82.6669 81.0788 80.0529 84.3018 80.0529C87.5248 80.0529 90.1388 82.6669 90.1388 85.8899Z" fill="#005CE4"/>
<path d="M90.1328 85.6399C90.2708 88.8609 87.7728 91.5829 84.5518 91.7209C81.3308 91.8589 78.6088 89.3609 78.4708 86.1399C78.3328 82.9189 80.8308 80.1969 84.0518 80.0589C87.2728 79.9209 89.9948 82.4189 90.1328 85.6399Z" fill="white"/>
<path d="M88.1839 85.6889C88.1839 87.8329 86.4459 89.5709 84.3019 89.5709C82.1579 89.5709 80.4199 87.8329 80.4199 85.6889C80.4199 83.5449 82.1579 81.8069 84.3019 81.8069C86.4459 81.8069 88.1839 83.5449 88.1839 85.6889Z" fill="#005CE4"/>
<path d="M174.529 319.037C174.529 320.415 173.413 321.531 172.035 321.531C170.657 321.531 169.541 320.415 169.541 319.037C169.541 317.659 170.657 316.543 172.035 316.543C173.413 316.543 174.529 317.659 174.529 319.037Z" fill="#005CE4"/>
<path d="M170.536 318.226L169.935 304.248L127.805 306.296C126.707 306.352 125.607 306.116 124.623 305.62L64.8699 275.441C63.4869 274.742 62.5789 273.347 62.4989 271.8L54.3639 114.064C54.3249 113.308 54.6129 112.57 55.1549 112.041C55.6949 111.512 56.4439 111.246 57.1939 111.296L82.8019 113.193V85.1979H85.8019V113.581C85.8019 114.312 85.4949 115.017 84.9589 115.515C84.4229 116.013 83.6969 116.265 82.9679 116.214L57.3809 114.318L65.4949 271.646C65.5189 272.121 65.7979 272.548 66.2229 272.763L125.974 302.942C126.494 303.205 127.07 303.331 127.66 303.3L170.138 301.235C170.854 301.207 171.528 301.444 172.053 301.923C172.579 302.403 172.885 303.058 172.916 303.769L173.533 318.097L170.536 318.226Z" fill="#005CE4"/>
<path d="M67.0868 182.809C67.0868 186.985 63.7018 190.37 59.5258 190.37C55.3498 190.37 51.9648 186.985 51.9648 182.809C51.9648 178.633 55.3498 175.248 59.5258 175.248C63.7018 175.248 67.0868 178.633 67.0868 182.809Z" fill="#005CE4"/>
<path d="M64.7779 182.809C64.7779 185.71 62.4269 188.061 59.5259 188.061C56.6249 188.061 54.2739 185.71 54.2739 182.809C54.2739 179.908 56.6249 177.557 59.5259 177.557C62.4269 177.557 64.7779 179.908 64.7779 182.809Z" fill="#FAFAFA"/>
<path d="M59.5259 188.436C56.4229 188.436 53.8989 185.911 53.8989 182.809C53.8989 179.706 56.4229 177.182 59.5259 177.182C62.6289 177.182 65.1529 179.706 65.1529 182.809C65.1529 185.911 62.6289 188.436 59.5259 188.436ZM59.5259 177.932C56.8369 177.932 54.6489 180.12 54.6489 182.809C54.6489 185.498 56.8369 187.686 59.5259 187.686C62.2149 187.686 64.4029 185.498 64.4029 182.809C64.4029 180.12 62.2149 177.932 59.5259 177.932Z" fill="#005CE4"/>
<path d="M139.885 199.188H82.2822C79.4822 199.188 77.2134 201.459 77.2134 204.259V225.118C77.2134 227.918 79.4822 230.188 82.2822 230.188H82.9542H88.7206H139.885C142.685 230.188 144.954 227.918 144.954 225.118V204.259C144.954 201.459 142.685 199.188 139.885 199.188Z" fill="white"/>
<path d="M139.885 199.188H93.4166L81.103 193.438L82.2822 199.188C79.4822 199.188 77.2134 201.459 77.2134 204.259V225.118C77.2134 227.918 79.4822 230.188 82.2822 230.188H82.9542H88.7206H139.885C142.685 230.188 144.954 227.918 144.954 225.118V204.259C144.954 201.459 142.685 199.188 139.885 199.188Z" fill="url(#paint0_linear_738_2180)"/>
<path d="M90.1636 214.365C90.1636 212.457 91.634 211.035 93.634 211.035C95.6148 211.035 97.0852 212.448 97.0852 214.365C97.0852 216.281 95.6148 217.694 93.634 217.694C91.634 217.694 90.1636 216.272 90.1636 214.365ZM96.154 214.365C96.154 212.923 95.0756 211.862 93.634 211.862C92.1732 211.862 91.0948 212.923 91.0948 214.365C91.0948 215.806 92.1732 216.867 93.634 216.867C95.0756 216.867 96.154 215.806 96.154 214.365Z" fill="white"/>
<path d="M103.485 215.155C103.485 216.662 102.434 217.675 100.992 217.675C100.266 217.675 99.6339 217.396 99.2339 216.838V217.619H98.3779V210.718H99.2707V213.433C99.6803 212.904 100.295 212.643 100.992 212.643C102.434 212.643 103.485 213.648 103.485 215.155ZM102.583 215.155C102.583 214.104 101.866 213.424 100.917 213.424C99.9779 213.424 99.2627 214.104 99.2627 215.155C99.2627 216.206 99.9779 216.894 100.917 216.894C101.866 216.894 102.583 216.206 102.583 215.155Z" fill="white"/>
<path d="M103.02 219.184L103.308 218.494C103.484 218.643 103.746 218.728 104.034 218.728C104.509 218.728 104.768 218.43 104.768 217.862V212.691H105.661V217.844C105.661 218.849 105.104 219.481 104.09 219.481C103.68 219.481 103.271 219.388 103.02 219.184ZM104.61 211.164C104.61 210.838 104.871 210.579 105.215 210.579C105.559 210.579 105.82 210.83 105.82 211.147C105.82 211.481 105.568 211.742 105.215 211.742C104.871 211.742 104.61 211.491 104.61 211.164Z" fill="white"/>
<path d="M111.801 215.452H107.801C107.913 216.316 108.61 216.894 109.586 216.894C110.162 216.894 110.647 216.699 111.01 216.299L111.503 216.876C111.057 217.396 110.378 217.675 109.559 217.675C107.969 217.675 106.908 216.625 106.908 215.155C106.908 213.694 107.957 212.644 109.381 212.644C110.805 212.644 111.82 213.667 111.82 215.184C111.82 215.257 111.81 215.369 111.801 215.452ZM107.801 214.811H110.964C110.871 213.984 110.247 213.398 109.381 213.398C108.525 213.398 107.893 213.974 107.801 214.811Z" fill="white"/>
<path d="M112.601 215.155C112.601 213.686 113.689 212.644 115.205 212.644C116.089 212.644 116.825 213.006 117.215 213.696L116.535 214.132C116.22 213.649 115.735 213.425 115.196 213.425C114.228 213.425 113.503 214.104 113.503 215.155C113.503 216.225 114.228 216.894 115.196 216.894C115.735 216.894 116.22 216.672 116.535 216.187L117.215 216.616C116.825 217.304 116.089 217.675 115.205 217.675C113.689 217.675 112.601 216.625 112.601 215.155Z" fill="white"/>
<path d="M121.205 217.331C120.935 217.563 120.525 217.675 120.125 217.675C119.13 217.675 118.563 217.126 118.563 216.131V213.424H117.727V212.689H118.563V211.611H119.456V212.689H120.871V213.424H119.456V216.094C119.456 216.625 119.735 216.921 120.227 216.921C120.488 216.921 120.739 216.838 120.925 216.689L121.205 217.331Z" fill="white"/>
<path d="M122.125 211.164C122.125 210.838 122.386 210.579 122.73 210.579C123.074 210.579 123.335 210.828 123.335 211.145C123.335 211.48 123.083 211.74 122.73 211.74C122.386 211.74 122.125 211.491 122.125 211.164ZM122.283 212.689H123.176V217.619H122.283V212.689Z" fill="white"/>
<path d="M129.242 212.689L127.084 217.62H126.172L124.013 212.689H124.944L126.637 216.643L128.367 212.689H129.242Z" fill="white"/>
<path d="M134.375 215.452H130.375C130.487 216.316 131.184 216.894 132.16 216.894C132.736 216.894 133.221 216.699 133.584 216.299L134.077 216.876C133.631 217.396 132.952 217.675 132.133 217.675C130.543 217.675 129.482 216.625 129.482 215.155C129.482 213.694 130.533 212.644 131.957 212.644C133.381 212.644 134.394 213.667 134.394 215.184C134.394 215.257 134.384 215.369 134.375 215.452ZM130.375 214.811H133.538C133.445 213.984 132.821 213.398 131.957 213.398C131.101 213.398 130.468 213.974 130.375 214.811Z" fill="white"/>
<path d="M91.9009 66.2789C91.9009 61.6709 87.7369 58.0359 82.9659 58.9309C79.9649 59.4939 77.5749 61.9439 77.0489 64.9519C76.7199 66.8319 77.1089 68.5999 77.9659 70.0599H77.9619L77.9829 70.0879C78.2699 70.5719 78.6299 70.9179 78.9929 71.4259L83.3379 77.1819C83.8789 77.8979 84.9549 77.8979 85.4959 77.1819L89.7689 71.5209C89.7689 71.5209 90.5669 70.5689 90.8559 70.0799L90.8709 70.0599H90.8679C91.5199 68.9489 91.9009 67.6599 91.9009 66.2789ZM84.4169 69.5379C82.5979 69.5379 81.1229 68.0629 81.1229 66.2439C81.1229 64.4249 82.5979 62.9499 84.4169 62.9499C86.2359 62.9499 87.7109 64.4249 87.7109 66.2439C87.7109 68.0629 86.2359 69.5379 84.4169 69.5379Z" fill="#005CE4"/>
<path d="M43.4429 361.149H42.0479V360.643H45.4139V361.149H44.0189V364.713H43.4429V361.149Z" fill="#372D25"/>
<path d="M45.3608 363.172C45.3608 362.254 46.0418 361.602 46.9658 361.602C47.8898 361.602 48.5648 362.254 48.5648 363.172C48.5648 364.091 47.8898 364.748 46.9658 364.748C46.0418 364.748 45.3608 364.091 45.3608 363.172ZM48.0008 363.172C48.0008 362.516 47.5588 362.091 46.9658 362.091C46.3728 362.091 45.9248 362.516 45.9248 363.172C45.9248 363.829 46.3728 364.259 46.9658 364.259C47.5588 364.259 48.0008 363.829 48.0008 363.172Z" fill="#372D25"/>
<path d="M51.071 364.532C50.902 364.677 50.646 364.747 50.396 364.747C49.774 364.747 49.42 364.404 49.42 363.782V362.09H48.897V361.631H49.42V360.957H49.978V361.631H50.862V362.09H49.978V363.759C49.978 364.09 50.152 364.277 50.46 364.277C50.623 364.277 50.78 364.224 50.896 364.131L51.071 364.532Z" fill="#372D25"/>
<path d="M54.1868 362.852V364.713H53.6578V364.305C53.4718 364.584 53.1278 364.748 52.6458 364.748C51.9478 364.748 51.5068 364.376 51.5068 363.841C51.5068 363.347 51.8258 362.939 52.7448 362.939H53.6288V362.829C53.6288 362.358 53.3548 362.085 52.8028 362.085C52.4368 362.085 52.0648 362.213 51.8268 362.417L51.5938 361.998C51.9138 361.742 52.3728 361.602 52.8668 361.602C53.7098 361.602 54.1868 362.009 54.1868 362.852ZM53.6288 363.771V363.341H52.7688C52.2168 363.341 52.0588 363.555 52.0588 363.817C52.0588 364.126 52.3148 364.317 52.7388 364.317C53.1578 364.317 53.4888 364.126 53.6288 363.771Z" fill="#372D25"/>
<path d="M55.2207 360.399H55.7787V364.713H55.2207V360.399Z" fill="#372D25"/>
<path d="M61.3141 360.399V364.712H60.7791V364.224C60.5291 364.573 60.1341 364.747 59.6801 364.747C58.7791 364.747 58.1221 364.113 58.1221 363.171C58.1221 362.23 58.7791 361.602 59.6801 361.602C60.1161 361.602 60.5001 361.765 60.7561 362.096V360.399H61.3141ZM60.7611 363.171C60.7611 362.515 60.3141 362.09 59.7271 362.09C59.1341 362.09 58.6861 362.515 58.6861 363.171C58.6861 363.828 59.1341 364.259 59.7271 364.259C60.3141 364.259 60.7611 363.828 60.7611 363.171Z" fill="#372D25"/>
<path d="M62.2729 360.678C62.2729 360.474 62.4359 360.311 62.6509 360.311C62.8659 360.311 63.0289 360.469 63.0289 360.667C63.0289 360.876 62.8719 361.039 62.6509 361.039C62.4359 361.039 62.2729 360.881 62.2729 360.678ZM62.3719 361.632H62.9299V364.713H62.3719V361.632Z" fill="#372D25"/>
<path d="M63.605 364.387L63.837 363.945C64.099 364.132 64.518 364.265 64.919 364.265C65.436 364.265 65.651 364.108 65.651 363.846C65.651 363.155 63.703 363.754 63.703 362.527C63.703 361.974 64.198 361.602 64.988 361.602C65.389 361.602 65.843 361.707 66.11 361.882L65.872 362.323C65.593 362.143 65.285 362.079 64.983 362.079C64.494 362.079 64.256 362.26 64.256 362.504C64.256 363.231 66.209 362.638 66.209 363.835C66.209 364.394 65.698 364.748 64.878 364.748C64.366 364.748 63.861 364.59 63.605 364.387Z" fill="#372D25"/>
<path d="M68.6388 364.532C68.4698 364.677 68.2138 364.747 67.9638 364.747C67.3418 364.747 66.9878 364.404 66.9878 363.782V362.09H66.4648V361.631H66.9878V360.957H67.5458V361.631H68.4298V362.09H67.5458V363.759C67.5458 364.09 67.7198 364.277 68.0278 364.277C68.1908 364.277 68.3478 364.224 68.4638 364.131L68.6388 364.532Z" fill="#372D25"/>
<path d="M71.7547 362.852V364.713H71.2257V364.305C71.0397 364.584 70.6967 364.748 70.2147 364.748C69.5167 364.748 69.0747 364.376 69.0747 363.841C69.0747 363.347 69.3947 362.939 70.3127 362.939H71.1967V362.829C71.1967 362.358 70.9227 362.085 70.3707 362.085C70.0047 362.085 69.6327 362.213 69.3947 362.417L69.1617 361.998C69.4817 361.742 69.9407 361.602 70.4347 361.602C71.2777 361.602 71.7547 362.009 71.7547 362.852ZM71.1967 363.771V363.341H70.3367C69.7847 363.341 69.6267 363.555 69.6267 363.817C69.6267 364.126 69.8827 364.317 70.3067 364.317C70.7257 364.317 71.0567 364.126 71.1967 363.771Z" fill="#372D25"/>
<path d="M75.714 362.939V364.712H75.156V363.003C75.156 362.399 74.854 362.102 74.325 362.102C73.732 362.102 73.348 362.456 73.348 363.125V364.712H72.79V361.631H73.325V362.096C73.552 361.782 73.947 361.602 74.435 361.602C75.185 361.602 75.714 362.033 75.714 362.939Z" fill="#372D25"/>
<path d="M76.481 363.172C76.481 362.254 77.161 361.602 78.109 361.602C78.661 361.602 79.12 361.828 79.365 362.259L78.94 362.533C78.743 362.23 78.44 362.091 78.103 362.091C77.498 362.091 77.045 362.516 77.045 363.172C77.045 363.841 77.498 364.259 78.103 364.259C78.44 364.259 78.743 364.12 78.94 363.817L79.365 364.085C79.12 364.516 78.661 364.748 78.109 364.748C77.161 364.748 76.481 364.091 76.481 363.172Z" fill="#372D25"/>
<path d="M82.8119 363.358H80.3119C80.3819 363.899 80.8179 364.259 81.4279 364.259C81.7879 364.259 82.0909 364.137 82.3179 363.887L82.6259 364.248C82.3469 364.573 81.9229 364.748 81.4109 364.748C80.4169 364.748 79.7539 364.091 79.7539 363.172C79.7539 362.26 80.4099 361.602 81.2999 361.602C82.1899 361.602 82.8239 362.242 82.8239 363.189C82.8239 363.236 82.8179 363.305 82.8119 363.358ZM80.3119 362.957H82.2889C82.2309 362.439 81.8399 362.073 81.2999 362.073C80.7649 362.073 80.3699 362.434 80.3119 362.957Z" fill="#372D25"/>
<path d="M95.1632 374.712V378.985H92.9992V375.045C92.9992 373.839 92.4592 373.284 91.5852 373.284C90.6142 373.284 89.9342 373.909 89.9342 375.24V378.985H87.7702V375.045C87.7702 373.839 87.2572 373.284 86.3562 373.284C85.3992 373.284 84.7192 373.909 84.7192 375.24V378.985H82.5552V371.523H84.6222V372.382C85.1772 371.744 86.0092 371.411 86.9662 371.411C88.0062 371.411 88.8932 371.814 89.4202 372.632C90.0172 371.869 90.9882 371.411 92.1122 371.411C93.8872 371.411 95.1632 372.438 95.1632 374.712Z" fill="#372D25"/>
<path d="M49.8179 369.02H49.6148L45.6616 370.668V372.461L47.9234 371.644V380.143H49.8179V369.02Z" fill="#3A3027"/>
<path d="M66.5293 375.56C66.5198 376.403 66.4052 377.029 66.185 377.438C65.9647 377.847 65.6061 378.052 65.1094 378.052C64.6079 378.052 64.2437 377.838 64.0164 377.412C63.789 376.986 63.6755 376.334 63.6755 375.456V372.839C63.6896 372.016 63.8102 371.411 64.0375 371.024C64.2648 370.637 64.6174 370.443 65.0953 370.443C65.5874 370.443 65.9495 370.647 66.1814 371.053C66.4133 371.46 66.5293 372.109 66.5293 373.002V375.56ZM68.5609 373.199C68.5468 371.756 68.2446 370.649 67.6541 369.878C67.0636 369.108 66.2106 368.722 65.0953 368.722C63.9799 368.722 63.126 369.111 62.5331 369.889C61.9403 370.668 61.644 371.807 61.644 373.309V375.289C61.6582 376.732 61.9603 377.84 62.5508 378.613C63.1414 379.386 63.994 379.773 65.1094 379.773C66.2388 379.773 67.0962 379.379 67.6822 378.591C68.2679 377.803 68.5609 376.665 68.5609 375.178V373.199Z" fill="#3A3027"/>
<path d="M76.1416 375.56C76.1321 376.403 76.0175 377.029 75.7973 377.438C75.577 377.847 75.2184 378.052 74.7218 378.052C74.2202 378.052 73.856 377.838 73.6287 377.412C73.4014 376.986 73.2878 376.334 73.2878 375.456V372.839C73.3019 372.016 73.4225 371.411 73.6498 371.024C73.8771 370.637 74.2297 370.443 74.7076 370.443C75.1997 370.443 75.5618 370.647 75.7937 371.053C76.0256 371.46 76.1416 372.109 76.1416 373.002V375.56ZM78.1732 373.199C78.1591 371.756 77.8569 370.649 77.2664 369.878C76.6759 369.108 75.8229 368.722 74.7076 368.722C73.5922 368.722 72.7383 369.111 72.1454 369.889C71.5526 370.668 71.2563 371.807 71.2563 373.309V375.289C71.2705 376.732 71.5726 377.84 72.1632 378.613C72.7537 379.386 73.6064 379.773 74.7218 379.773C75.8511 379.773 76.7085 379.379 77.2945 378.591C77.8802 377.803 78.1732 376.665 78.1732 375.178V373.199Z" fill="#3A3027"/>
<mask id="mask0_738_2180" style="mask-type:alpha" maskUnits="userSpaceOnUse" x="49" y="367" width="17" height="14">
<path d="M64.8212 367.618V380.173H49.4702V367.618H64.8212Z" fill="#005CE4"/>
<path d="M64.8212 367.618V380.173H49.4702V367.618H64.8212Z" stroke="url(#paint1_radial_738_2180)" stroke-width="0.488747"/>
</mask>
<g mask="url(#mask0_738_2180)">
<path d="M55.1828 366.154H56.2847C57.437 366.154 58.0131 366.693 58.0131 367.771C58.0131 368.216 57.8725 368.573 57.5917 368.842C57.3109 369.112 56.9231 369.247 56.4288 369.247C55.9966 369.247 55.6329 369.118 55.3376 368.861C55.0423 368.604 54.8947 368.273 54.8947 367.867H52.8135C52.8135 368.802 53.1459 369.553 53.811 370.122C54.4758 370.691 55.3316 370.975 56.3783 370.975C57.4969 370.975 58.3958 370.686 59.0753 370.107C59.7547 369.529 60.0943 368.76 60.0943 367.8C60.0943 367.207 59.949 366.693 59.6586 366.258C59.3681 365.823 58.9277 365.496 58.3371 365.279C58.8125 365.056 59.1965 364.737 59.4895 364.322C59.7822 363.907 59.9287 363.451 59.9287 362.957C59.9287 361.998 59.6142 361.245 58.9853 360.699C58.3563 360.152 57.4874 359.879 56.3783 359.879C55.7397 359.879 55.155 360.005 54.6247 360.257C54.0941 360.509 53.6813 360.859 53.386 361.307C53.0908 361.754 52.9431 362.26 52.9431 362.824H55.0244C55.0244 362.463 55.1589 362.17 55.4277 361.945C55.6966 361.72 56.0302 361.607 56.4288 361.607C56.8705 361.607 57.2172 361.728 57.4693 361.971C57.7214 362.213 57.8475 362.552 57.8475 362.987C57.8475 363.437 57.7202 363.798 57.4658 364.07C57.2112 364.342 56.8199 364.478 56.2919 364.478H55.1828V366.154Z" fill="#3A3027"/>
<path d="M57.0047 383.034L57.1415 382.79V386.602H54.8225L57.0047 383.034ZM59.2228 379.867H57.1198L52.7485 386.98L52.842 388.33H57.1415V390.667H59.2228V388.33H60.4111V386.602H59.2228V379.867Z" fill="#3A3027"/>
</g>
<path d="M37.1802 368.52C37.1802 373.145 33.4302 376.895 28.8052 376.895C24.1802 376.895 20.4302 373.145 20.4302 368.52C20.4302 363.895 24.1802 360.145 28.8052 360.145C33.4302 360.145 37.1802 363.895 37.1802 368.52Z" fill="#005CE4"/>
<path d="M25.424 370.043C25.424 369.995 26.206 369.949 27.574 369.91C28.942 369.871 30.896 369.839 33.238 369.817L33.066 370.19C32.405 369.426 31.685 368.594 30.93 367.722L30.795 367.566L30.926 367.403C31.597 366.565 32.305 365.681 33.036 364.768L33.238 365.19C32.936 365.19 32.613 365.191 32.287 365.191C29.819 365.181 27.486 365.172 25.424 365.164L25.657 364.931C25.636 367.471 25.602 369.608 25.562 371.109C25.522 372.61 25.475 373.476 25.424 373.476C25.373 373.476 25.325 372.61 25.285 371.109C25.245 369.608 25.212 367.471 25.191 364.931L25.189 364.699L25.424 364.698C27.486 364.69 29.819 364.68 32.287 364.67C32.613 364.67 32.936 364.671 33.238 364.671H33.783L33.441 365.094C32.705 366.002 31.991 366.882 31.315 367.716L31.31 367.398C32.052 368.281 32.76 369.123 33.41 369.896L33.728 370.274L33.238 370.269C30.896 370.247 28.942 370.215 27.574 370.176C26.206 370.137 25.424 370.091 25.424 370.043Z" fill="#FAFAFA"/>
<path d="M164.224 354.233H138.916C136.242 354.233 134.073 356.401 134.073 359.075V379C134.073 381.674 136.242 383.842 138.916 383.842H139.557V388.591L145.065 383.842H164.224C166.898 383.842 169.067 381.674 169.067 379V359.075C169.067 356.401 166.898 354.233 164.224 354.233Z" fill="#005CE4"/>
<path d="M141.329 363.371V373.587C141.329 373.807 141.507 373.985 141.727 373.985H163.147C163.369 373.985 163.548 373.804 163.545 373.582L163.495 369.841C163.494 369.757 163.466 369.675 163.416 369.608L160.344 365.501C160.27 365.401 160.153 365.342 160.029 365.341L156.489 365.314C156.27 365.312 156.094 365.135 156.094 364.916V363.371C156.094 363.151 155.916 362.973 155.696 362.973H141.727C141.507 362.973 141.329 363.151 141.329 363.371Z" fill="#FAFAFA"/>
<path d="M157.09 366.205V369.483C157.09 369.611 157.194 369.713 157.322 369.711L162.05 369.627C162.231 369.624 162.337 369.42 162.235 369.27L160.024 366.009C159.98 365.945 159.907 365.907 159.829 365.909L157.312 365.977C157.188 365.98 157.09 366.081 157.09 366.205Z" fill="#005CE4"/>
<path d="M163.97 375.008H140.898V374.296H163.97V375.008Z" fill="#FAFAFA"/>
<path d="M148.528 374.569C148.528 375.829 147.506 376.851 146.246 376.851C144.986 376.851 143.964 375.829 143.964 374.569C143.964 373.309 144.986 372.287 146.246 372.287C147.506 372.287 148.528 373.309 148.528 374.569Z" fill="#005CE4"/>
<path d="M147.589 374.569C147.589 375.311 146.988 375.912 146.246 375.912C145.504 375.912 144.903 375.311 144.903 374.569C144.903 373.827 145.504 373.226 146.246 373.226C146.988 373.226 147.589 373.827 147.589 374.569Z" fill="#FAFAFA"/>
<path d="M156.075 373.985C156.017 373.985 155.971 371.519 155.971 368.479C155.971 365.438 156.017 362.973 156.075 362.973C156.132 362.973 156.179 365.438 156.179 368.479C156.179 371.519 156.132 373.985 156.075 373.985Z" fill="#005CE4"/>
<path d="M160.964 374.569C160.964 375.829 159.942 376.851 158.682 376.851C157.422 376.851 156.4 375.829 156.4 374.569C156.4 373.309 157.422 372.287 158.682 372.287C159.942 372.287 160.964 373.309 160.964 374.569Z" fill="#005CE4"/>
<path d="M160.025 374.569C160.025 375.311 159.424 375.912 158.682 375.912C157.94 375.912 157.339 375.311 157.339 374.569C157.339 373.827 157.94 373.226 158.682 373.226C159.424 373.226 160.025 373.827 160.025 374.569Z" fill="#FAFAFA"/>
<path d="M158.688 370.358C158.688 370.416 158.361 370.462 157.958 370.462C157.555 370.462 157.228 370.416 157.228 370.358C157.228 370.301 157.555 370.254 157.958 370.254C158.361 370.254 158.688 370.301 158.688 370.358Z" fill="#005CE4"/>
<path d="M438.453 371.448C438.125 393.982 456.256 412.514 478.948 412.839C501.641 413.164 520.302 395.159 520.629 372.626C520.957 350.091 502.826 331.56 480.133 331.235C457.44 330.909 438.78 348.913 438.453 371.448Z" fill="#372D25"/>
<path d="M438.46 371.343C438.459 371.378 438.454 371.414 438.453 371.449C438.125 393.983 456.256 412.514 478.948 412.839C501.641 413.164 520.303 395.159 520.63 372.626C520.631 372.59 520.626 372.557 520.626 372.521L438.46 371.343Z" fill="#372D25"/>
<path d="M450.694 371.624C450.463 387.445 463.193 400.455 479.124 400.683C495.056 400.912 508.158 388.271 508.389 372.45C508.619 356.63 495.889 343.619 479.957 343.39C464.025 343.162 450.924 355.802 450.694 371.624Z" fill="#FAFAFA"/>
<path d="M461.969 371.785C461.829 381.423 469.583 389.348 479.287 389.487C488.992 389.625 496.974 381.925 497.114 372.288C497.253 362.651 489.5 354.725 479.794 354.587C470.09 354.448 462.108 362.148 461.969 371.785Z" fill="#372D25"/>
<path d="M487 347.959C492.221 349.724 494.896 351.245 497.837 356.001" stroke="#372D25" stroke-width="1.60241"/>
<path d="M471.312 394.808C466.091 393.042 463.416 391.521 460.475 386.765" stroke="#372D25" stroke-width="1.60241"/>
<path d="M504.623 378.788C502.845 383.972 501.313 386.628 496.524 389.549" stroke="#372D25" stroke-width="1.60241"/>
<path d="M456.219 363.243C457.997 358.058 459.529 355.402 464.318 352.482" stroke="#372D25" stroke-width="1.60241"/>
<path d="M174.217 379.261C179.079 379.261 183.026 383.209 183.026 388.07C183.026 392.932 179.079 396.879 174.217 396.879C169.355 396.879 165.408 392.932 165.408 388.07C165.408 383.209 169.355 379.261 174.217 379.261Z" fill="#D5D4CC"/>
<path d="M186.484 383.605C192.475 383.605 197.34 388.47 197.34 394.461C197.34 400.452 192.475 405.316 186.484 405.316C180.493 405.316 175.628 400.452 175.628 394.461C175.628 388.47 180.493 383.605 186.484 383.605Z" fill="#D5D4CC"/>
<path d="M198.681 395.38C201.774 395.38 204.284 397.891 204.284 400.983C204.284 404.075 201.774 406.586 198.681 406.586C195.589 406.586 193.079 404.075 193.079 400.983C193.079 397.891 195.589 395.38 198.681 395.38Z" fill="#D5D4CC"/>
<path d="M210.626 407.598C210.819 407.598 210.976 407.755 210.976 407.948C210.976 408.141 210.819 408.298 210.626 408.298C210.433 408.298 210.276 408.141 210.276 407.948C210.276 407.755 210.433 407.598 210.626 407.598Z" fill="#D5D4CC"/>
<path d="M169.755 349.54C170.114 349.54 170.405 349.832 170.405 350.191C170.405 350.549 170.114 350.841 169.755 350.841C169.396 350.841 169.104 350.549 169.104 350.191C169.104 349.832 169.396 349.54 169.755 349.54Z" fill="#D5D4CC"/>
<path d="M171.465 359.093C172.513 359.093 173.364 359.944 173.364 360.992C173.364 362.04 172.513 362.892 171.465 362.892C170.417 362.892 169.565 362.04 169.565 360.992C169.565 359.944 170.417 359.093 171.465 359.093Z" fill="#D5D4CC"/>
<path d="M174.699 368.29C176.436 368.29 177.847 369.701 177.847 371.439C177.847 373.177 176.436 374.587 174.699 374.587C172.961 374.587 171.55 373.177 171.55 371.439C171.55 369.701 172.961 368.29 174.699 368.29Z" fill="#D5D4CC"/>
<path d="M179.477 376.875C181.904 376.875 183.875 378.846 183.875 381.273C183.875 383.7 181.904 385.671 179.477 385.671C177.05 385.671 175.079 383.7 175.079 381.273C175.079 378.846 177.05 376.875 179.477 376.875Z" fill="#D5D4CC"/>
<path d="M185.809 386.123C188.051 386.123 189.871 387.943 189.871 390.185C189.871 392.427 188.051 394.247 185.809 394.247C183.567 394.247 181.747 392.427 181.747 390.185C181.747 387.943 183.567 386.123 185.809 386.123Z" fill="#D5D4CC"/>
<path d="M193.579 395.213C195.048 395.213 196.24 396.405 196.24 397.874C196.24 399.343 195.048 400.536 193.579 400.536C192.11 400.536 190.917 399.343 190.917 397.874C190.917 396.405 192.11 395.213 193.579 395.213Z" fill="#D5D4CC"/>
<path d="M202.543 402.872C203.239 402.872 203.804 403.437 203.804 404.133C203.804 404.828 203.239 405.393 202.543 405.393C201.847 405.393 201.282 404.828 201.282 404.133C201.282 403.437 201.847 402.872 202.543 402.872Z" fill="#D5D4CC"/>
<path d="M125.218 390.181C125.577 390.181 125.868 390.473 125.868 390.832C125.868 391.191 125.577 391.482 125.218 391.482C124.859 391.482 124.568 391.191 124.568 390.832C124.568 390.473 124.859 390.181 125.218 390.181Z" fill="#D5D4CC"/>
<path d="M138.173 387.801C139.222 387.801 140.073 388.652 140.073 389.7C140.073 390.749 139.222 391.6 138.173 391.6C137.125 391.6 136.274 390.749 136.274 389.7C136.274 388.652 137.125 387.801 138.173 387.801Z" fill="#D5D4CC"/>
<path d="M151.178 386.638C152.916 386.638 154.327 388.049 154.327 389.787C154.327 391.524 152.916 392.935 151.178 392.935C149.44 392.935 148.029 391.524 148.029 389.787C148.029 388.049 149.44 386.638 151.178 386.638Z" fill="#D5D4CC"/>
<path d="M164.119 386.682C166.546 386.682 168.517 388.653 168.517 391.08C168.517 393.507 166.546 395.478 164.119 395.478C161.691 395.478 159.721 393.507 159.721 391.08C159.721 388.653 161.691 386.682 164.119 386.682Z" fill="#D5D4CC"/>
<path d="M176.871 389.566C179.113 389.566 180.933 391.386 180.933 393.628C180.933 395.87 179.113 397.69 176.871 397.69C174.629 397.69 172.809 395.87 172.809 393.628C172.809 391.386 174.629 389.566 176.871 389.566Z" fill="#D5D4CC"/>
<path d="M186.171 371.448C185.844 393.982 203.975 412.514 226.667 412.839C249.36 413.164 268.021 395.16 268.348 372.626C268.676 350.091 250.545 331.56 227.852 331.235C205.159 330.909 186.499 348.913 186.171 371.448Z" fill="#372D25"/>
<path d="M186.178 371.343C186.177 371.378 186.172 371.414 186.171 371.449C185.844 393.983 203.975 412.514 226.667 412.839C249.36 413.165 268.022 395.16 268.349 372.626C268.35 372.59 268.345 372.557 268.345 372.521L186.178 371.343Z" fill="#372D25"/>
<path d="M198.413 371.624C198.183 387.445 210.912 400.455 226.844 400.684C242.776 400.912 255.878 388.271 256.108 372.45C256.338 356.63 243.609 343.619 227.677 343.39C211.746 343.162 198.643 355.802 198.413 371.624Z" fill="#FAFAFA"/>
<path d="M209.688 371.785C209.549 381.423 217.302 389.348 227.007 389.487C236.712 389.626 244.694 381.925 244.833 372.288C244.973 362.651 237.219 354.726 227.514 354.587C217.81 354.448 209.828 362.148 209.688 371.785Z" fill="#372D25"/>
<path d="M196.532 399.74C196.518 399.752 196.367 399.601 196.091 399.3C195.823 398.994 195.395 398.567 194.918 397.956C193.925 396.766 192.593 394.95 191.209 392.545C188.43 387.783 185.676 380.342 185.71 371.827C185.746 363.309 188.564 355.892 191.382 351.154C192.786 348.761 194.132 346.954 195.135 345.773C195.618 345.166 196.048 344.743 196.319 344.438C196.597 344.141 196.751 343.99 196.764 344.002C196.777 344.014 196.652 344.188 196.399 344.507C196.155 344.832 195.75 345.277 195.295 345.899C194.345 347.114 193.055 348.939 191.704 351.334C188.992 356.08 186.27 363.423 186.234 371.83C186.201 380.234 188.859 387.598 191.532 392.366C192.863 394.772 194.138 396.61 195.078 397.831C195.528 398.458 195.929 398.905 196.171 399.232C196.422 399.554 196.545 399.728 196.532 399.74Z" fill="#625245"/>
<path d="M220.813 395.782C215.449 394.508 212.643 393.242 209.267 388.78" stroke="#372D25" stroke-width="1.6024"/>
<path d="M231.405 347.355C236.77 348.628 239.575 349.895 242.951 354.357" stroke="#372D25" stroke-width="1.6024"/>
<path d="M250.58 378.793C249.298 384.12 248.022 386.906 243.529 390.259" stroke="#372D25" stroke-width="1.6024"/>
<path d="M202.143 367.658C203.425 362.332 204.7 359.545 209.194 356.193" stroke="#372D25" stroke-width="1.6024"/>
<path d="M378.955 205.361C378.842 203.178 380.52 201.316 382.703 201.203C384.886 201.09 386.748 202.768 386.861 204.951C386.974 207.134 385.296 208.996 383.113 209.109C380.93 209.222 379.068 207.544 378.955 205.361Z" fill="#FFF19D"/>
<path d="M383.418 201.23C383.418 201.23 399.679 203.097 400.994 203.375C402.309 203.654 407.537 205.811 407.877 207.354C408.218 208.898 408.195 213.494 408.195 213.494C408.195 213.494 407.313 214.294 406.659 212.824C406.004 211.354 405.936 208.382 405.936 208.382L403.025 207.432L404.725 210.119L405.321 216.591C405.321 216.591 403.317 216.513 402.85 214.981C402.383 213.449 402.3 211.719 402.3 211.719L400.126 210.063L401.792 212.092L402.559 216.734C402.559 216.734 401.066 217.304 400.535 216.292C400.004 215.28 399.804 212.195 399.804 212.195L393.826 210.447L390.049 212.815L382.286 209.065L383.418 201.23Z" fill="#FFF19D"/>
<path d="M460.926 309.902C460.926 309.902 502.396 296.003 521.052 340.952L434.291 370.672L460.926 309.902Z" fill="#005CE4"/>
<path d="M287.575 358.605C287.352 358.728 265.969 355.953 265.969 355.953C263.727 359.061 260.232 361.026 256.412 361.323C247.234 362.036 238.255 362.708 230.483 363.287C223.232 363.827 217.788 370.134 218.311 377.387L218.311 377.398C218.805 384.253 224.477 389.583 231.35 389.65L276.663 390.088C284.114 390.16 293.873 385.343 298.347 379.384L287.575 358.605Z" fill="#625245"/>
<path d="M276.483 390.524C276.358 390.426 278.589 388.912 280.42 385.207C281.333 383.378 282.06 381.004 282.221 378.305C282.389 375.617 281.909 372.594 280.512 369.814C279.065 367.058 276.885 364.909 274.601 363.481C272.312 362.04 269.959 361.251 267.94 360.929C263.862 360.262 261.333 361.194 261.325 361.035C261.321 361.017 261.473 360.967 261.768 360.887C262.065 360.822 262.496 360.664 263.074 360.594C264.218 360.381 265.926 360.276 267.997 360.566C270.067 360.847 272.491 361.618 274.856 363.074C277.216 364.518 279.477 366.723 280.975 369.576C282.423 372.455 282.899 375.577 282.7 378.335C282.508 381.106 281.724 383.525 280.749 385.372C279.778 387.226 278.698 388.553 277.86 389.36C277.466 389.788 277.087 390.047 276.861 390.251C276.624 390.444 276.494 390.538 276.483 390.524Z" fill="#372D25"/>
<path d="M175.846 343.819C175.846 343.819 172.717 304.047 209.903 294.637L209.751 289.53L340.883 285.638L341.244 297.815C341.244 297.815 322.685 321.562 329.541 340.622C336.397 359.683 338.419 361.588 338.419 361.588L413.05 359.373C413.05 359.373 421.747 347.715 421.638 330.812C421.53 313.91 413.654 285.236 407.867 266.93C402.606 250.285 399.177 236.338 399.177 236.338L421.344 228.21C421.344 228.21 464.381 281.15 466.164 284.145C467.946 287.14 473.911 294.078 473.019 309.687C472.128 325.296 436.324 374.46 426.67 380.166C417.016 385.873 408.227 386.473 399.467 388.087C391.863 389.49 335.341 390.389 320.556 390.602C315.421 390.676 310.312 389.515 305.844 386.983C301.345 384.435 297.889 380.099 294.006 372.925L285.769 357.926L175.846 343.819Z" fill="#005CE4"/>
<path d="M185.799 340.749L170.048 367.11C168.031 370.485 171.578 374.551 175.137 372.882C176.862 372.072 178.709 370.832 180.565 368.959C187.906 361.548 200.808 342.218 200.808 342.218L185.799 340.749Z" fill="#625245"/>
<path d="M304.375 341.893C304.367 341.89 304.395 341.761 304.46 341.513C304.534 341.242 304.634 340.879 304.761 340.417C305.014 339.452 305.309 338.007 305.499 336.123C305.809 332.387 305.448 326.705 302.479 320.587C301.03 317.536 298.926 314.436 296.124 311.618C293.308 308.821 289.857 306.26 285.859 304.258C281.873 302.24 277.394 300.696 272.616 299.772C267.836 298.847 262.774 298.516 257.61 298.669C252.441 298.822 247.414 299.431 242.598 300.219C237.78 301.015 233.161 301.954 228.821 303.081C220.133 305.307 212.609 308.443 206.822 311.972C201.013 315.48 196.934 319.24 194.399 322.048C193.12 323.448 192.209 324.608 191.599 325.399C191.312 325.782 191.085 326.083 190.916 326.308C190.759 326.512 190.675 326.612 190.668 326.608C190.668 326.608 191.73 324.775 194.248 321.912C196.746 319.05 200.813 315.227 206.63 311.658C212.426 308.067 219.982 304.876 228.699 302.617C233.054 301.473 237.686 300.52 242.515 299.716C247.345 298.918 252.394 298.303 257.595 298.15C262.791 297.995 267.891 298.332 272.714 299.272C277.535 300.211 282.054 301.78 286.077 303.83C290.111 305.865 293.594 308.469 296.43 311.313C299.254 314.18 301.368 317.332 302.812 320.428C305.771 326.635 306.076 332.383 305.7 336.142C305.478 338.038 305.148 339.485 304.862 340.445C304.714 340.903 304.598 341.261 304.511 341.53C304.429 341.773 304.383 341.896 304.375 341.893Z" fill="#372D25"/>
<path d="M296.555 333.175C296.498 333.155 296.755 332.54 296.997 331.387C297.271 330.241 297.35 328.505 296.999 326.431C296.651 324.355 295.777 321.961 294.357 319.561C293.66 318.354 292.811 317.153 291.832 315.996C290.867 314.827 289.738 313.721 288.482 312.727C285.956 310.731 283.167 309.355 280.548 308.396C277.912 307.466 275.434 306.936 273.335 306.654C271.234 306.368 269.516 306.272 268.328 306.235C267.14 306.197 266.481 306.189 266.48 306.148C266.479 306.13 266.643 306.11 266.957 306.088C267.271 306.072 267.734 306.032 268.33 306.032C269.523 306.006 271.255 306.047 273.381 306.289C275.506 306.527 278.023 307.026 280.709 307.944C283.377 308.894 286.222 310.278 288.805 312.318C290.094 313.338 291.242 314.471 292.222 315.668C293.216 316.853 294.073 318.081 294.772 319.319C296.196 321.779 297.053 324.239 297.362 326.371C297.675 328.501 297.534 330.278 297.194 331.433C297.094 332.027 296.851 332.442 296.758 332.741C296.64 333.034 296.571 333.183 296.555 333.175Z" fill="#F5F5F5"/>
<path d="M269.839 299.042C277.209 300.223 283.693 302.66 289.824 306.494C295.954 310.328 300.722 315.872 303.539 322.531C306.355 329.191 306.228 338.126 303.64 343.788L312.928 344.279C315.74 333.785 311.963 321.119 304.226 313.197C295.148 303.903 282.885 298.655 269.839 299.042Z" fill="black"/>
<path d="M340.883 285.638C340.883 285.638 342.969 282.993 343.078 279.694C343.187 276.394 341.563 272.32 338.019 272.425L292.739 273.769C285.402 273.987 279.631 280.113 279.848 287.45L340.883 285.638Z" fill="#625245"/>
<path d="M399.177 236.337L390.816 220.148C388.524 215.543 390.076 209.951 394.414 207.186L417.544 192.441C418.753 191.67 420.149 191.241 421.583 191.199L426.671 191.048L429.695 224.181L421.933 227.416L427.141 235.349L399.177 236.337Z" fill="#005CE4"/>
<path d="M426.781 192.25C426.781 192.25 434.892 193.857 436.274 206.247C437.656 218.638 429.652 222.744 429.652 222.744L426.781 192.25Z" fill="#EBEBEB"/>
<path d="M401.243 213.4C401.243 213.4 385.185 221.602 383.236 222.927C381.884 223.847 380.745 225.421 381.907 228.095C383.888 232.654 391.375 228.088 391.375 228.088L406.307 220.06C406.307 220.06 412.054 217.136 409.801 213.758C407.277 209.976 401.243 213.4 401.243 213.4Z" fill="#372D25"/>
<path d="M401.306 189.255C401.49 195.448 398.792 200.553 395.28 200.657C391.767 200.761 388.771 195.825 388.588 189.633C388.404 183.441 391.102 178.335 394.614 178.231C398.127 178.127 401.122 183.063 401.306 189.255Z" fill="#372D25"/>
<path d="M396.22 197.123L400.073 209.126C401.61 208.288 401.888 206.723 401.592 205.503C400.592 201.382 400.011 198.443 398.94 194.841C398.812 194.477 396.22 197.123 396.22 197.123Z" fill="#372D25"/>
<path d="M331.418 345.744C331.043 344.756 330.661 343.745 330.296 342.708C329.956 341.74 329.559 340.738 329.263 339.774C328.733 338.051 328.403 336.269 328.254 335.238C323.071 359.42 332.574 376.058 348.069 376.787C370.704 377.853 398.277 378.299 409.329 375.045C429.472 369.114 436.419 351.967 438.113 349.123C439.806 346.278 455.081 316.286 444.341 288.158C433.601 260.03 415.457 230.369 415.457 230.369L399.177 236.337C399.177 236.337 402.606 250.285 407.867 266.93C413.654 285.236 421.529 313.909 421.637 330.812C421.746 347.714 413.05 359.373 413.05 359.373L338.418 361.588C338.418 361.588 336.772 360.032 331.418 345.744Z" fill="black"/>
<path d="M172.676 337.659L173.033 331.949L309.721 343.6C317.435 344.274 322.992 351.301 321.869 358.963L321.36 362.434L179.766 346.132C175.526 345.643 172.41 341.92 172.676 337.659Z" fill="#005CE4"/>
<path d="M172.676 337.659L173.033 331.949L309.721 343.6C317.435 344.274 322.992 351.301 321.869 358.963L321.36 362.434L179.766 346.132C175.526 345.643 172.41 341.92 172.676 337.659Z" fill="black"/>
<path d="M438.67 367.909C438.67 367.909 467.679 334.036 473.092 307.921C475.168 307.838 480.017 307.905 482.4 308.333C482.4 308.333 466.098 357.063 438.67 367.909Z" fill="black"/>
<path d="M472.312 296.31C472.33 296.306 472.394 296.592 472.5 297.139C472.594 297.687 472.781 298.49 472.913 299.541C473.171 301.639 473.39 304.726 472.946 308.501C472.518 312.272 471.363 316.692 469.366 321.292C467.418 325.917 464.69 330.71 461.849 335.721C456.135 345.781 449.689 354.062 445 359.977C442.642 362.932 440.697 365.292 439.344 366.915C438.687 367.695 438.164 368.315 437.776 368.775C437.412 369.196 437.216 369.412 437.201 369.401C437.187 369.389 437.357 369.152 437.694 368.709C438.064 368.233 438.562 367.593 439.188 366.788C440.524 365.085 442.402 362.692 444.711 359.75C449.323 353.78 455.706 345.482 461.395 335.464C464.237 330.451 466.967 325.683 468.925 321.103C470.932 316.546 472.11 312.185 472.581 308.455C473.067 304.722 472.906 301.66 472.712 299.565C472.611 298.516 472.457 297.709 472.396 297.157C472.324 296.606 472.294 296.314 472.312 296.31Z" fill="#372D25"/>
<path d="M422.56 368.147C422.462 368.253 420.255 366.373 417.629 363.951C415.001 361.528 412.952 359.479 413.05 359.373C413.147 359.267 415.354 361.145 417.981 363.568C420.607 365.991 422.658 368.041 422.56 368.147Z" fill="#372D25"/>
<path d="M333.534 369.771C333.409 369.719 334.173 367.685 335.607 365.438C337.035 363.184 338.553 361.631 338.653 361.723C338.769 361.822 337.45 363.5 336.047 365.717C334.635 367.927 333.672 369.834 333.534 369.771Z" fill="#372D25"/>
<path d="M226.43 381.559C226.286 381.57 226.004 379.426 225.798 376.77C225.593 374.112 225.542 371.95 225.686 371.939C225.83 371.927 226.112 374.072 226.318 376.729C226.523 379.385 226.574 381.548 226.43 381.559Z" fill="#372D25"/>
<path d="M230.043 381.459C229.901 381.481 229.445 379.346 229.026 376.692C228.606 374.036 228.381 371.866 228.523 371.844C228.666 371.821 229.12 373.955 229.54 376.61C229.96 379.265 230.186 381.436 230.043 381.459Z" fill="#372D25"/>
<path d="M283.478 287.342C283.482 287.486 266.923 288.094 246.497 288.7C226.064 289.306 209.501 289.682 209.496 289.538C209.492 289.394 226.048 288.786 246.481 288.18C266.907 287.574 283.474 287.198 283.478 287.342Z" fill="#372D25"/>
<path d="M270.631 287.75L189.573 290.156C184.837 290.297 180.884 286.571 180.743 281.836L179.172 228.905C179.032 224.169 182.757 220.216 187.493 220.075L268.552 217.669C273.287 217.529 277.241 221.254 277.381 225.99L278.952 278.921C279.093 283.657 275.367 287.61 270.631 287.75Z" fill="#625245"/>
<path d="M267.77 218.476L188.321 220.834C186.639 220.884 185.234 219.56 185.184 217.878L184.905 208.488C184.855 206.806 186.179 205.401 187.862 205.351L267.311 202.993C268.994 202.943 270.398 204.267 270.448 205.949L270.726 215.339C270.776 217.021 269.453 218.426 267.77 218.476Z" fill="#F5F5F5"/>
<path d="M233.923 288.789C233.779 288.793 233.1 269.828 232.406 246.433C231.711 223.031 231.264 204.063 231.408 204.058C231.552 204.054 232.231 223.015 232.926 246.418C233.62 269.813 234.067 288.785 233.923 288.789Z" fill="#372D25"/>
<path d="M223.78 289.022C223.636 289.02 223.783 270.04 224.107 246.635C224.432 223.221 224.811 204.248 224.955 204.25C225.1 204.251 224.952 223.227 224.628 246.641C224.303 270.047 223.924 289.024 223.78 289.022Z" fill="#372D25"/>
<path d="M277.59 233.054C277.594 233.198 255.517 233.969 228.286 234.777C201.045 235.586 178.968 236.125 178.963 235.981C178.959 235.837 201.03 235.066 228.271 234.258C255.502 233.449 277.586 232.91 277.59 233.054Z" fill="#372D25"/>
<path d="M267.77 218.476C267.769 218.458 267.944 218.465 268.269 218.39C268.589 218.313 269.08 218.166 269.575 217.745C270.064 217.338 270.559 216.633 270.637 215.692C270.646 214.752 270.572 213.634 270.537 212.393C270.493 211.146 270.445 209.763 270.392 208.25C270.364 207.493 270.336 206.704 270.307 205.883C270.267 205.098 269.879 204.304 269.218 203.777C268.891 203.511 268.495 203.322 268.072 203.223C267.65 203.116 267.203 203.15 266.723 203.165C265.779 203.196 264.804 203.229 263.802 203.262C261.796 203.327 259.676 203.396 257.451 203.469C239.625 204.018 215.034 204.774 187.874 205.61C187.093 205.628 186.339 205.996 185.838 206.585C185.326 207.181 185.101 207.944 185.173 208.756C185.223 210.433 185.272 212.099 185.321 213.754C185.345 214.581 185.369 215.406 185.393 216.227L185.43 217.455C185.438 217.878 185.45 218.24 185.564 218.6C185.777 219.315 186.293 219.93 186.952 220.268C187.28 220.439 187.641 220.542 188.009 220.57C188.362 220.591 188.793 220.559 189.185 220.553C195.591 220.368 201.773 220.189 207.66 220.02C219.431 219.691 230.032 219.396 238.943 219.147C247.832 218.919 255.032 218.733 260.034 218.604C262.507 218.552 264.436 218.512 265.769 218.483C266.408 218.475 266.903 218.47 267.261 218.465C267.597 218.464 267.77 218.476 267.77 218.476C267.77 218.476 267.598 218.499 267.262 218.518C266.905 218.535 266.411 218.558 265.773 218.588C264.439 218.639 262.512 218.713 260.04 218.807C255.039 218.976 247.841 219.216 238.954 219.515C230.044 219.796 219.444 220.129 207.675 220.5C201.787 220.679 195.606 220.868 189.2 221.063C188.791 221.068 188.421 221.104 187.969 221.08C187.534 221.047 187.105 220.925 186.716 220.723C185.936 220.323 185.325 219.597 185.071 218.748C184.935 218.328 184.921 217.863 184.914 217.47L184.877 216.242C184.853 215.421 184.827 214.597 184.803 213.769C184.754 212.115 184.703 210.449 184.654 208.771C184.57 207.912 184.835 206.928 185.443 206.246C186.036 205.547 186.935 205.11 187.859 205.09C215.021 204.313 239.613 203.611 257.44 203.102C259.666 203.042 261.786 202.985 263.792 202.931C264.795 202.904 265.769 202.879 266.714 202.854C267.176 202.844 267.671 202.808 268.142 202.93C268.609 203.042 269.043 203.255 269.4 203.551C270.123 204.136 270.542 205.012 270.576 205.869C270.598 206.692 270.619 207.483 270.64 208.242C270.677 209.756 270.71 211.139 270.74 212.387C270.759 213.636 270.817 214.73 270.791 215.706C270.692 216.695 270.158 217.419 269.642 217.826C269.118 218.248 268.608 218.382 268.279 218.442C267.945 218.5 267.77 218.476 267.77 218.476Z" fill="#372D25"/>
<path d="M341.127 324.985L340.832 325.582L335.153 337.088L326.958 345.462L344.484 367.406L358.463 364.66C358.463 364.66 356.79 361.5 349.722 361.089L346.628 347.753L356.08 332.106" fill="#625245"/>
<path d="M326.958 345.462L344.484 367.406L358.463 364.66L356.475 362.868L344.984 364.477L328.701 343.68L326.958 345.462Z" fill="#FEF5BD"/>
<path d="M348.421 354.955C348.346 355.119 347.451 354.819 346.376 355.063C345.293 355.275 344.596 355.912 344.46 355.793C344.308 355.714 344.931 354.721 346.245 354.45C347.556 354.166 348.528 354.821 348.421 354.955Z" fill="#372D25"/>
<path d="M347.54 351.67C347.42 351.797 346.635 351.093 345.477 351.096C344.319 351.086 343.531 351.784 343.411 351.656C343.351 351.603 343.466 351.337 343.816 351.045C344.159 350.756 344.763 350.468 345.48 350.469C346.195 350.472 346.799 350.764 347.14 351.056C347.489 351.35 347.601 351.617 347.54 351.67Z" fill="#372D25"/>
<path d="M346.789 347.376C346.651 347.483 346.015 346.77 344.975 346.625C343.935 346.467 343.123 346.969 343.022 346.827C342.971 346.764 343.109 346.534 343.468 346.313C343.819 346.093 344.41 345.909 345.065 346.005C345.72 346.1 346.234 346.445 346.508 346.756C346.789 347.071 346.855 347.33 346.789 347.376Z" fill="#372D25"/>
<path d="M349.878 343.324C349.723 343.415 349.174 342.697 348.195 342.306C347.228 341.887 346.331 342.003 346.287 341.83C346.207 341.677 347.244 341.225 348.436 341.728C349.632 342.219 350.041 343.272 349.878 343.324Z" fill="#372D25"/>
<path d="M351.135 340.094C351.073 340.155 350.502 339.683 349.627 338.871C349.13 338.396 348.629 337.916 348.115 337.424C347.848 337.135 347.51 336.906 347.244 336.422C347.119 336.176 347.064 335.866 347.162 335.556C347.246 335.231 347.603 334.966 347.918 334.948C348.546 334.917 348.948 335.164 349.357 335.369C349.757 335.596 350.104 335.875 350.398 336.172C350.984 336.773 351.337 337.453 351.528 338.046C351.908 339.255 351.642 340.039 351.587 340.017C351.474 340.015 351.564 339.254 351.113 338.199C350.889 337.678 350.531 337.093 349.992 336.583C349.722 336.33 349.411 336.097 349.061 335.907C348.721 335.727 348.286 335.541 347.994 335.57C347.854 335.592 347.795 335.641 347.754 335.75C347.715 335.864 347.728 336.018 347.795 336.152C347.929 336.436 348.267 336.73 348.527 337.02C349.008 337.544 349.478 338.055 349.944 338.562C350.738 339.453 351.198 340.033 351.135 340.094Z" fill="#372D25"/>
<path d="M351.718 340.411C351.651 340.42 351.559 339.674 352.151 338.684C352.73 337.745 354.178 336.576 356.147 337.12C356.297 337.205 356.437 337.384 356.463 337.577C356.494 337.772 356.439 337.932 356.382 338.054C356.259 338.303 356.098 338.447 355.967 338.592C355.687 338.884 355.39 339.136 355.09 339.351C354.49 339.783 353.88 340.062 353.353 340.227C352.289 340.558 351.593 340.477 351.593 340.406C351.582 340.306 352.246 340.225 353.198 339.812C353.671 339.606 354.213 339.309 354.744 338.89C355.009 338.681 355.272 338.442 355.519 338.172C355.644 338.031 355.771 337.9 355.819 337.786C355.863 337.65 355.852 337.688 355.822 337.656C355.767 337.613 355.568 337.593 355.388 337.586C355.207 337.578 355.028 337.586 354.853 337.608C354.503 337.649 354.172 337.745 353.874 337.875C353.273 338.133 352.824 338.54 352.515 338.937C351.9 339.746 351.819 340.432 351.718 340.411Z" fill="#372D25"/>
<path d="M338.025 342.84C338.207 343.756 337.611 344.644 336.695 344.826C335.779 345.007 334.89 344.411 334.709 343.495C334.528 342.579 335.124 341.691 336.04 341.51C336.956 341.328 337.844 341.924 338.025 342.84Z" fill="#FEF5BD"/>
<path d="M392.626 334.265L398.003 363.402L434.288 356.899C433.454 353.471 413.435 349.875 413.435 349.875L410.756 331.065L392.626 334.265Z" fill="#625245"/>
<path d="M401.933 350.315C401.265 350.633 400.921 351.508 401.211 352.189C401.502 352.87 402.39 353.226 403.063 352.92C403.736 352.614 404.181 351.575 403.817 350.931C403.453 350.288 402.387 349.925 401.806 350.383" fill="#FEF5BD"/>
<path d="M398.001 363.402L397.574 360.444L432.525 355.314C432.525 355.314 434.266 355.727 434.287 356.898L398.001 363.402Z" fill="#FEF5BD"/>
<path d="M413.99 349.585C414.016 349.763 413.145 350.002 412.375 350.728C411.586 351.434 411.273 352.281 411.098 352.241C410.929 352.236 411.003 351.129 411.951 350.266C412.891 349.396 413.999 349.415 413.99 349.585Z" fill="#372D25"/>
<path d="M418.078 350.478C418.149 350.643 417.435 351.081 416.968 351.938C416.475 352.781 416.469 353.619 416.291 353.643C416.13 353.701 415.821 352.685 416.423 351.63C417.014 350.57 418.044 350.31 418.078 350.478Z" fill="#372D25"/>
<path d="M421.056 354.644C420.902 354.711 420.496 353.87 420.777 352.818C421.05 351.763 421.818 351.232 421.919 351.366C422.045 351.494 421.6 352.111 421.383 352.978C421.145 353.839 421.229 354.595 421.056 354.644Z" fill="#372D25"/>
<path d="M412.903 345.366C412.857 345.54 412.001 345.442 411.012 345.689C410.017 345.917 409.298 346.393 409.179 346.258C409.054 346.149 409.696 345.355 410.866 345.08C412.033 344.797 412.965 345.211 412.903 345.366Z" fill="#372D25"/>
<path d="M411.267 341.216C411.282 341.288 410.602 341.524 409.449 341.532C408.875 341.535 408.185 341.47 407.443 341.288C407.072 341.197 406.687 341.077 406.299 340.922C406.113 340.844 405.896 340.771 405.674 340.592C405.445 340.443 405.249 339.994 405.425 339.665C405.56 339.353 405.867 339.173 406.128 339.12C406.393 339.063 406.62 339.079 406.826 339.093C407.248 339.118 407.65 339.184 408.025 339.278C408.775 339.469 409.41 339.766 409.899 340.077C410.881 340.706 411.286 341.316 411.232 341.362C411.162 341.435 410.653 340.954 409.681 340.463C409.197 340.22 408.591 339.986 407.896 339.84C407.549 339.769 407.179 339.721 406.795 339.706C406.393 339.674 406.065 339.729 405.997 339.919C405.974 339.99 405.973 340.016 406.074 340.114C406.176 340.203 406.35 340.276 406.534 340.354C406.892 340.505 407.247 340.63 407.591 340.731C408.28 340.931 408.924 341.037 409.469 341.089C410.56 341.193 411.253 341.119 411.267 341.216Z" fill="#372D25"/>
<path d="M411.083 341.511C411.025 341.55 410.56 340.978 410.289 339.842C410.157 339.279 410.091 338.577 410.179 337.808C410.226 337.423 410.311 337.023 410.445 336.621C410.594 336.225 410.766 335.698 411.439 335.496C411.796 335.418 412.145 335.645 412.29 335.867C412.454 336.091 412.516 336.298 412.596 336.5C412.739 336.912 412.804 337.328 412.816 337.723C412.841 338.516 412.639 339.216 412.377 339.74C411.836 340.808 411.135 341.152 411.109 341.094C411.034 341.016 411.59 340.563 411.97 339.562C412.158 339.068 412.291 338.438 412.24 337.751C412.215 337.409 412.145 337.054 412.018 336.707C411.891 336.332 411.692 336.047 411.555 336.112C411.374 336.141 411.119 336.487 411.026 336.821C410.898 337.18 410.81 337.539 410.752 337.887C410.643 338.583 410.655 339.229 410.725 339.763C410.866 340.837 411.174 341.467 411.083 341.511Z" fill="#372D25"/>
<path d="M374.827 270.96L333.859 333.749L352.459 349.054L407.304 274.33" fill="#372D25"/>
<path d="M353.407 205.794C350.263 201.193 343.986 200.009 339.384 203.153C334.783 206.296 333.6 212.574 336.744 217.175C339.887 221.777 346.165 222.96 350.766 219.816C355.367 216.673 356.55 210.395 353.407 205.794Z" fill="#CB97B8"/>
<path d="M345.17 221.633L388.835 213.652L385.624 199.289L348.699 202.069L345.17 221.633Z" fill="#CB97B8"/>
<path d="M354.66 214.634C354.66 214.634 372.939 182.742 373.206 182.553L347.339 184.52L335.616 207.973L354.66 214.634Z" fill="#FF994D"/>
<path d="M329.895 220.529C342.098 228.125 345.837 244.2 338.241 256.403C330.645 268.605 314.569 272.345 302.367 264.748C290.165 257.152 286.425 241.077 294.022 228.875C301.618 216.672 317.693 212.933 329.895 220.529Z" fill="#D86BB0"/>
<path d="M293.158 231.463L311.347 202.874C311.347 202.874 319.276 181.862 322.754 173.827C328.155 161.35 329.193 154.478 352.939 158.001L358.006 158.968L364.28 162.99C371.47 168.253 375.172 180.019 372.54 184.654L339.469 253.998L293.158 231.463Z" fill="url(#paint2_linear_738_2180)"/>
<path d="M369.634 169.631C369.651 169.635 369.625 169.752 369.563 169.971C369.51 170.195 369.387 170.508 369.206 170.904C368.837 171.688 368.105 172.761 366.872 173.734C365.642 174.688 363.882 175.529 361.79 175.665C359.702 175.814 357.385 175.122 355.436 173.729C353.489 172.325 352.096 170.397 351.382 168.455C350.644 166.514 350.49 164.624 350.56 163.077C350.647 161.524 350.942 160.295 351.207 159.474C351.342 159.063 351.458 158.749 351.553 158.542C351.644 158.334 351.7 158.227 351.717 158.234C351.833 158.262 351.017 160.042 350.928 163.09C350.906 164.6 351.096 166.426 351.829 168.281C352.539 170.136 353.88 171.963 355.74 173.305C357.6 174.635 359.792 175.302 361.762 175.186C363.742 175.084 365.441 174.319 366.65 173.439C367.861 172.542 368.614 171.545 369.027 170.809C369.446 170.071 369.581 169.612 369.634 169.631Z" fill="#372D25"/>
<path d="M339.876 239.788C339.891 239.81 339.515 240.103 338.769 240.533C338.025 240.968 336.883 241.493 335.399 241.925C332.445 242.818 328.037 243.036 323.471 241.832C318.908 240.625 315.136 238.581 312.48 237.081C311.15 236.32 310.094 235.676 309.369 235.22C308.645 234.765 308.254 234.498 308.272 234.467C308.29 234.436 308.716 234.643 309.471 235.044C310.314 235.498 311.383 236.072 312.659 236.758C315.353 238.173 319.117 240.143 323.602 241.328C328.084 242.508 332.385 242.354 335.303 241.57C338.249 240.814 339.823 239.682 339.876 239.788Z" fill="#372D25"/>
<path d="M358.531 214.155C358.498 214.139 358.631 213.785 358.9 213.157C359.223 212.428 359.613 211.546 360.069 210.514C361.135 208.176 362.506 205.168 364.022 201.841C365.591 198.463 367.063 195.428 368.162 193.248C368.71 192.159 369.165 191.281 369.491 190.681C369.817 190.081 370.011 189.757 370.044 189.772C370.077 189.788 369.943 190.143 369.674 190.77C369.348 191.498 368.954 192.378 368.493 193.408C367.416 195.74 366.029 198.741 364.494 202.061C362.927 205.436 361.49 208.486 360.402 210.672C359.859 211.765 359.408 212.644 359.083 213.245C358.758 213.846 358.563 214.17 358.531 214.155Z" fill="#372D25"/>
<path d="M376.926 270.835L310.457 273.438C308.696 273.488 306.928 273.281 305.245 272.76C286.789 267.037 290.1 243.376 292.022 239.629L383.87 240.044C388.229 240.064 391.314 240.937 394.576 243.395L376.926 270.835Z" fill="#372D25"/>
<path d="M376.695 271.116C376.691 271.116 355.258 271.97 348.159 272.252C344.651 272.374 341.856 272.47 339.901 272.538C338.966 272.562 338.235 272.581 337.702 272.594C337.473 272.595 337.287 272.597 337.136 272.598C337.009 272.597 336.944 272.593 336.943 272.586C336.943 272.579 337.007 272.568 337.133 272.556C337.284 272.544 337.47 272.53 337.699 272.512C338.231 272.479 338.961 272.436 339.894 272.379C341.847 272.277 344.642 272.134 348.146 271.953C355.245 271.624 377.119 270.61 377.119 270.61L376.695 271.116Z" fill="#625245"/>
<path d="M369.081 257.479C369.348 266.476 376.858 273.554 385.855 273.287C394.852 273.02 401.929 265.509 401.662 256.512C401.395 247.515 393.885 240.438 384.888 240.705C375.891 240.972 368.814 248.482 369.081 257.479Z" fill="#372D25"/>
<path d="M394.623 243.574C399.008 246.463 402.255 251.004 403.197 256.529L415.912 346.905L393.589 351.168L377.78 271.42L394.623 243.574Z" fill="#372D25"/>
<path d="M377.958 271.185C377.958 271.185 380.76 285.257 382.266 292.827C385.554 309.567 388.531 324.722 390.694 335.733C391.742 341.203 392.593 345.641 393.19 348.749C393.469 350.262 393.688 351.449 393.843 352.294C393.909 352.677 393.96 352.981 394 353.217C394.032 353.426 394.044 353.535 394.035 353.536C394.026 353.538 393.997 353.433 393.947 353.228C393.894 352.994 393.826 352.693 393.74 352.314C393.562 351.473 393.311 350.292 392.991 348.788C392.356 345.688 391.45 341.261 390.333 335.804C388.131 324.802 385.102 309.656 381.755 292.928C380.26 285.356 377.567 271.717 377.567 271.717L377.958 271.185Z" fill="#625245"/>
<path d="M384.57 264.103C384.668 264.219 382.965 265.771 381.044 267.85C379.114 269.923 377.695 271.737 377.572 271.649C377.46 271.572 378.707 269.598 380.662 267.496C382.61 265.388 384.486 263.996 384.57 264.103Z" fill="#625245"/>
<path d="M373.272 223.721C372.058 221.724 372.693 219.121 374.691 217.908C376.688 216.694 379.29 217.33 380.503 219.327C381.717 221.324 381.082 223.926 379.085 225.14C377.087 226.353 374.485 225.718 373.272 223.721Z" fill="#FFF19D"/>
<path d="M375.234 217.629C375.234 217.629 389.497 211.966 390.787 211.588C392.077 211.209 397.702 210.628 398.734 211.826C399.766 213.023 401.927 217.081 401.927 217.081C401.927 217.081 401.529 218.203 400.255 217.219C398.981 216.236 397.513 213.652 397.513 213.652L394.499 214.196L397.271 215.755L400.865 221.171C400.865 221.171 399.064 222.052 397.927 220.925C396.789 219.798 395.894 218.314 395.894 218.314L393.196 217.888L395.625 218.883L398.502 222.606C398.502 222.606 397.457 223.817 396.51 223.178C395.562 222.539 393.922 219.918 393.922 219.918L387.832 221.215L385.63 225.09L378.197 225.549L375.234 217.629Z" fill="#FFF19D"/>
<path d="M311.559 221.652C309.302 215.94 312.103 209.48 317.815 207.223C323.527 204.967 329.987 207.767 332.243 213.479C334.5 219.191 331.699 225.651 325.987 227.908C320.275 230.164 313.815 227.364 311.559 221.652Z" fill="#E92EA6"/>
<path d="M311.559 221.652C309.302 215.94 312.103 209.48 317.815 207.223C323.527 204.967 329.987 207.767 332.243 213.479C334.5 219.191 331.699 225.651 325.987 227.908C320.275 230.164 313.815 227.364 311.559 221.652Z" stroke="black" stroke-width="0.5" stroke-miterlimit="10"/>
<path d="M318.555 228.203C322.333 229.433 327.071 229.246 331.829 229.5C331.829 229.5 377.822 229.208 379.097 228.013C379.992 227.172 378.487 215.413 378.487 215.413L325.316 207.152" fill="#E92EA6"/>
<path d="M325.056 206.953L378.486 215.414C378.486 215.414 379.781 227.94 379.097 228.013C374.828 228.464 325.946 230.965 318.528 228.134" stroke="black" stroke-width="0.5" stroke-miterlimit="10"/>
<path d="M348.014 168.482C348.014 168.482 333.265 168.396 322.698 174.596L312.482 205.416C311.608 208.673 311.148 211.525 311.037 214.3L333.175 219.051C333.5 217.969 348.014 168.482 348.014 168.482Z" fill="url(#paint3_linear_738_2180)"/>
<path d="M348.058 168.75C347.33 171.334 332.926 219.018 332.926 219.018L348.058 168.75Z" fill="url(#paint4_linear_738_2180)"/>
<path d="M348.058 168.75C347.33 171.334 332.926 219.018 332.926 219.018" stroke="black" stroke-width="0.5" stroke-miterlimit="10"/>
<path d="M311.197 214.726C311.197 214.726 311.235 210.509 312.678 205.402C315.965 193.775 322.48 175.337 322.754 174.923" fill="url(#paint5_linear_738_2180)"/>
<path d="M311.197 214.726C311.197 214.726 311.235 210.509 312.678 205.402C315.965 193.775 322.48 175.337 322.754 174.923" stroke="black" stroke-width="0.5" stroke-miterlimit="10"/>
<path d="M357.651 152.546C356.642 153.934 353.264 159.415 353.264 159.415C350.405 163.995 351.576 170.004 355.943 173.177C360.75 176.67 367.513 175.373 370.683 170.346C372.362 167.686 374.378 164.528 375.497 162.749C376.625 156.295 370.313 152.747 370.313 152.747C370.313 152.747 363.445 146.823 357.651 152.546Z" fill="#FFF19D"/>
<path d="M373.115 166.643C373.115 166.643 365.327 163.036 362.969 157.16C362.969 157.16 365.359 163.75 372.226 167.851L373.115 166.643Z" fill="#E92EA6"/>
<path d="M364.703 162.974C364.739 162.986 364.768 162.996 364.805 163.006C372.509 165.215 380.641 162.725 381.92 159.304C383.444 155.234 386.016 146.015 388.044 138.46C389.659 132.442 386.387 126.191 380.524 124.08L377.363 122.942C377.318 122.926 377.274 122.912 377.229 122.899C369.271 120.588 360.96 125.277 358.831 133.294L354.917 147.769C354.873 147.929 354.795 149.268 354.802 149.433C355.333 160.345 363.92 162.712 364.703 162.974Z" fill="#FFF19D"/>
<path d="M356.539 138.641C357.391 138.734 358.484 139.945 358.555 140.798C358.625 141.652 358.399 142.509 358.468 143.363C358.536 144.216 359.051 145.151 359.902 145.248C360.489 145.315 361.057 144.948 361.393 144.462C361.73 143.976 361.876 143.387 362.005 142.81C362.566 140.303 362.917 137.744 363.691 135.294C364.465 132.844 365.712 130.459 367.721 128.858C369.73 127.257 372.605 126.583 374.944 127.644C376.494 128.348 377.658 129.708 379.163 130.501C380.948 131.441 383.175 131.492 385.001 130.637C385.235 130.527 386.227 130.287 386.227 130.287C386.272 130.163 386.541 129.048 386.259 128.506C384.161 124.464 378.786 121.611 374.255 121.16C369.723 120.709 364.772 122.242 361.583 125.491C358.393 128.741 356.973 134.346 356.539 138.641Z" fill="#372D25"/>
<path d="M369.831 127.889C370.122 129.265 373.082 132.892 374.356 133.485C375.631 134.08 377.183 134.039 378.424 133.377C378.464 134.489 379.268 135.532 380.332 135.853C381.396 136.175 382.643 135.751 383.291 134.847C383.663 135.608 384.053 136.394 384.703 136.937C385.353 137.482 386.339 137.719 387.057 137.268C387.788 136.809 388.553 135.729 388.295 134.905C388.037 134.081 387.627 129.762 386.99 129.178C385.001 127.358 381.822 127.646 379.185 127.082C376.548 126.517 371.69 126.455 369.401 127.881" fill="#372D25"/>
<path d="M384.921 147.386C384.736 147.959 384.099 148.276 383.497 148.095C382.896 147.914 382.556 147.304 382.74 146.73C382.924 146.157 383.561 145.84 384.162 146.02C384.765 146.201 385.105 146.812 384.921 147.386Z" fill="#372D25"/>
<path d="M385.847 143.926C385.734 144.098 384.771 143.622 383.564 143.842C382.356 144.045 381.58 144.824 381.423 144.7C381.347 144.646 381.441 144.358 381.777 144.007C382.106 143.659 382.705 143.271 383.458 143.138C384.21 143.007 384.893 143.17 385.308 143.388C385.73 143.607 385.904 143.849 385.847 143.926Z" fill="#372D25"/>
<path d="M374.083 143.483C373.899 144.057 373.261 144.373 372.659 144.193C372.058 144.012 371.718 143.401 371.902 142.827C372.086 142.254 372.723 141.937 373.325 142.117C373.927 142.298 374.267 142.91 374.083 143.483Z" fill="#372D25"/>
<path d="M376.144 142.425C375.946 142.478 375.547 141.479 374.504 140.835C373.47 140.178 372.372 140.238 372.338 140.041C372.318 139.95 372.58 139.797 373.065 139.762C373.543 139.724 374.248 139.836 374.895 140.242C375.543 140.648 375.941 141.225 376.104 141.665C376.271 142.109 376.237 142.406 376.144 142.425Z" fill="#372D25"/>
<path d="M375.774 149.804C375.792 149.736 376.553 149.871 377.77 150.141C378.075 150.217 378.375 150.258 378.497 150.075C378.644 149.887 378.634 149.526 378.615 149.131C378.594 148.318 378.575 147.466 378.552 146.572C378.493 142.941 378.562 139.999 378.708 139.997C378.854 139.995 379.022 142.938 379.082 146.569C379.089 147.463 379.097 148.314 379.104 149.128C379.094 149.503 379.15 149.951 378.84 150.339C378.682 150.531 378.408 150.613 378.2 150.596C377.99 150.585 377.824 150.529 377.675 150.485C376.481 150.127 375.755 149.871 375.774 149.804Z" fill="#372D25"/>
<path d="M372.09 149.38C372.282 149.436 371.832 150.69 372.584 151.965C373.334 153.243 374.72 153.583 374.667 153.762C374.655 153.846 374.282 153.898 373.713 153.711C373.153 153.53 372.408 153.061 371.948 152.281C371.491 151.5 371.473 150.672 371.614 150.143C371.755 149.601 372.007 149.341 372.09 149.38Z" fill="#372D25"/>
<path d="M376.594 135.319C376.367 135.592 375.268 135.029 373.856 134.704C372.449 134.351 371.215 134.355 371.136 134.009C371.105 133.845 371.401 133.618 371.952 133.473C372.499 133.328 373.301 133.29 374.146 133.493C374.991 133.697 375.69 134.094 376.11 134.472C376.535 134.851 376.697 135.188 376.594 135.319Z" fill="#372D25"/>
<path d="M386.869 140.113C386.571 140.302 385.874 139.744 384.922 139.386C383.983 138.996 383.093 138.927 383.005 138.586C382.971 138.423 383.194 138.206 383.637 138.085C384.075 137.963 384.73 137.972 385.38 138.228C386.029 138.485 386.513 138.928 386.749 139.316C386.99 139.707 387.004 140.017 386.869 140.113Z" fill="#372D25"/>
<path d="M359.334 139.844C359.226 139.743 354.723 136.459 353.038 141.653C351.352 146.847 356.914 147.467 356.972 147.321C357.029 147.175 359.334 139.844 359.334 139.844Z" fill="#FFF19D"/>
<path d="M356.024 144.839C356.006 144.815 355.913 144.872 355.737 144.893C355.566 144.914 355.294 144.877 355.056 144.688C354.572 144.309 354.393 143.288 354.671 142.343C354.811 141.866 355.056 141.448 355.345 141.13C355.627 140.801 355.959 140.615 356.251 140.656C356.547 140.682 356.688 140.911 356.705 141.077C356.727 141.245 356.66 141.339 356.685 141.356C356.696 141.374 356.824 141.305 356.852 141.077C356.864 140.967 356.843 140.825 356.754 140.686C356.662 140.544 356.497 140.433 356.297 140.391C355.888 140.288 355.408 140.54 355.091 140.889C354.751 141.234 354.464 141.7 354.306 142.235C354 143.292 354.219 144.446 354.899 144.907C355.233 145.121 355.575 145.109 355.772 145.037C355.974 144.962 356.039 144.854 356.024 144.839Z" fill="#E92EA6"/>
<path d="M388.599 130.961C388.599 130.961 369.237 120.518 357.025 136.682C357.025 136.682 356.521 131.977 356.964 129.587C357.26 127.991 359.977 118.662 370.313 117.486C370.313 117.486 386.091 114.593 388.599 130.961Z" fill="#005CE4"/>
<g opacity="0.4">
<path d="M388.599 130.961C388.599 130.961 386.773 127.739 382.603 126.774C376.579 125.379 364.576 126.686 357.025 136.682C357.025 136.682 356.521 131.977 356.964 129.587C357.26 127.991 359.977 118.662 370.313 117.486C370.313 117.486 386.091 114.593 388.599 130.961Z" fill="black"/>
</g>
<path d="M358.272 134.757C362.192 130.652 367.118 127.569 372.4 125.49C377.681 123.411 384.051 118.598 389.71 118.166C391.409 118.037 393.167 117.974 394.765 118.565C396.363 119.157 399.117 121.036 398.569 122.65C397.782 124.97 395.527 129.487 393.905 131.113C392.4 132.624 387.192 133.222 387.192 133.222C387.192 133.222 386.715 130.792 383.037 127.541C376.728 121.964 358.272 134.757 358.272 134.757Z" fill="#005CE4"/>
<defs>
<linearGradient id="paint0_linear_738_2180" x1="77.2134" y1="193.438" x2="108.021" y2="250.225" gradientUnits="userSpaceOnUse">
<stop stop-color="#FFBDAD"/>
<stop offset="0.868794" stop-color="#EA2FA6"/>
</linearGradient>
<radialGradient id="paint1_radial_738_2180" cx="0" cy="0" r="1" gradientUnits="userSpaceOnUse" gradientTransform="translate(57.1457 373.895) scale(30.1 31)">
<stop stop-color="#FBE765"/>
<stop offset="0.15" stop-color="#E4CE3F"/>
<stop offset="0.3" stop-color="#F4D71A"/>
</radialGradient>
<linearGradient id="paint2_linear_738_2180" x1="338.145" y1="146.603" x2="383.068" y2="234.922" gradientUnits="userSpaceOnUse">
<stop stop-color="#FFBDAD"/>
<stop offset="0.868794" stop-color="#EA2FA6"/>
</linearGradient>
<linearGradient id="paint3_linear_738_2180" x1="345.877" y1="163.812" x2="327.158" y2="229.59" gradientUnits="userSpaceOnUse">
<stop stop-color="#FFBDAD"/>
<stop offset="0.868794" stop-color="#EA2FA6"/>
</linearGradient>
<linearGradient id="paint4_linear_738_2180" x1="348.058" y1="168.75" x2="326.813" y2="216.286" gradientUnits="userSpaceOnUse">
<stop stop-color="#FFBDAD"/>
<stop offset="0.868794" stop-color="#EA2FA6"/>
</linearGradient>
<linearGradient id="paint5_linear_738_2180" x1="322.754" y1="174.923" x2="305.659" y2="212.186" gradientUnits="userSpaceOnUse">
<stop stop-color="#FFBDAD"/>
<stop offset="0.868794" stop-color="#EA2FA6"/>
</linearGradient>
</defs>
</svg>
