<svg width="191" height="40" viewBox="0 0 191 40" fill="none" xmlns="http://www.w3.org/2000/svg">
<mask id="mask0_726_243" style="mask-type:luminance" maskUnits="userSpaceOnUse" x="43" y="4" width="140" height="32">
<path d="M43.1382 4H182.069V36H43.1382V4Z" fill="white"/>
</mask>
<g mask="url(#mask0_726_243)">
<path d="M49.5084 35.1504V34.1892L51.3414 33.8228C52.6244 33.5478 53.2658 32.8012 53.2658 31.5798V19.084C53.2658 16.9483 53.2658 14.8125 53.2658 12.6768C53.2658 10.54 53.251 8.40425 53.2202 6.26851H49.6008C48.6226 6.26851 47.9047 6.52764 47.447 7.04697C46.9882 7.56524 46.5305 8.29804 46.0717 9.24325L44.468 12.6311H43.1851L43.4145 4.8953H69.7167L69.945 12.6311H68.6621L67.0584 9.24325C66.6007 8.29804 66.1419 7.56524 65.6842 7.04697C65.2254 6.52764 64.5074 6.26851 63.5304 6.26851H59.8642V31.5798C59.8642 32.8309 60.5057 33.5786 61.7886 33.8228L63.6674 34.1892V35.1504H49.5084ZM85.542 35.9289C83.6792 35.9289 81.8918 35.5933 80.1809 34.921C78.4699 34.2498 76.9279 33.2589 75.5525 31.9462C74.2091 30.6038 73.1396 28.9407 72.3452 26.9568C71.5508 24.974 71.1536 22.6546 71.1536 19.9995C71.1536 17.406 71.5508 15.1173 72.3452 13.1345C73.1396 11.1507 74.2091 9.48751 75.5525 8.14511C76.9279 6.80271 78.4699 5.7959 80.1809 5.12364C81.9226 4.4227 83.7089 4.07117 85.542 4.07117C87.375 4.07117 89.1465 4.40677 90.8574 5.07797C92.5992 5.74917 94.1412 6.75704 95.4858 8.09944C96.8303 9.41105 97.8987 11.0593 98.6931 13.0421C99.4875 15.026 99.8847 17.3455 99.8847 19.9995C99.8847 22.594 99.4875 24.8827 98.6931 26.8655C97.8987 28.8494 96.8303 30.5125 95.4858 31.8549C94.1412 33.1973 92.614 34.22 90.9031 34.921C89.1932 35.5933 87.4058 35.9289 85.542 35.9289ZM85.542 34.5556C87.2837 34.5556 88.6888 34.1128 89.7582 33.2281C90.8277 32.3126 91.6062 30.7865 92.0947 28.6508C92.5832 26.515 92.8286 23.6316 92.8286 19.9995C92.8286 16.3684 92.5832 13.4999 92.0947 11.3949C91.6062 9.25918 90.8277 7.74791 89.7582 6.86324C88.6888 5.94777 87.2837 5.49004 85.542 5.49004C83.8321 5.49004 82.426 5.94777 81.3268 6.86324C80.2573 7.74791 79.4789 9.25918 78.9893 11.3949C78.5007 13.4999 78.2565 16.3684 78.2565 19.9995C78.2565 23.6316 78.5007 26.515 78.9893 28.6508C79.4789 30.7865 80.2573 32.3126 81.3268 33.2281C82.426 34.1128 83.8321 34.5556 85.542 34.5556ZM118.241 35.9289C115.278 35.9289 112.605 35.3182 110.222 34.0979C107.839 32.8766 105.946 31.0764 104.54 28.6964C103.165 26.3164 102.478 23.4171 102.478 19.9995C102.478 17.4368 102.89 15.163 103.715 13.1802C104.57 11.1963 105.731 9.53318 107.198 8.19078C108.695 6.81757 110.405 5.7959 112.33 5.12364C114.255 4.4227 116.302 4.07117 118.47 4.07117C120.15 4.07117 121.723 4.26977 123.19 4.6659C124.657 5.0323 126.062 5.58137 127.406 6.31417L127.589 12.3104H126.352L124.427 8.69418C124.121 8.08351 123.786 7.53444 123.419 7.04697C123.083 6.55844 122.64 6.20691 122.091 5.99344C121.327 5.62704 120.425 5.44437 119.387 5.44437C117.584 5.44437 115.935 5.90211 114.438 6.81757C112.972 7.73304 111.795 9.25918 110.91 11.3949C110.024 13.4999 109.581 16.3843 109.581 20.0451C109.581 23.6773 109.993 26.5607 110.818 28.6964C111.673 30.8322 112.819 32.3583 114.255 33.2738C115.691 34.1584 117.309 34.6013 119.112 34.6013C119.937 34.6013 120.609 34.5397 121.128 34.4176C121.648 34.2955 122.167 34.1277 122.686 33.9142C123.297 33.6699 123.771 33.3194 124.106 32.8617C124.442 32.3732 124.733 31.8241 124.977 31.2134L126.718 27.0492H127.955L127.773 33.6402C126.459 34.3719 125.008 34.9369 123.419 35.3331C121.83 35.7303 120.105 35.9289 118.241 35.9289ZM129.222 35.1504V34.1892L130.459 33.8228C131.101 33.6402 131.591 33.3651 131.926 32.9987C132.293 32.6334 132.584 32.1289 132.797 31.4885L142.053 4.7583H145.857L155.067 31.6712C155.311 32.3434 155.586 32.8617 155.892 33.2281C156.197 33.5637 156.685 33.8377 157.357 34.0522L158.045 34.2349V35.1504H146.406V34.2349L147.185 34.0055C147.858 33.792 148.255 33.4564 148.377 32.9987C148.529 32.541 148.499 31.977 148.285 31.3058L146.36 25.401H136.234L134.264 31.2134C134.049 31.8857 133.989 32.4348 134.08 32.8617C134.171 33.2886 134.554 33.6242 135.226 33.8685L136.234 34.1892V35.1504H129.222ZM136.691 24.0734H145.948L141.457 10.2968L136.691 24.0734ZM159.49 35.1504V34.1892L160.407 33.9142C161.048 33.7007 161.46 33.4267 161.644 33.09C161.826 32.7247 161.918 32.2213 161.918 31.5798V8.41911C161.918 7.80951 161.826 7.33584 161.644 7.00024C161.46 6.63491 161.063 6.34497 160.452 6.1315L159.49 5.85644V4.8953H170.854V5.85644L169.983 6.1315C169.403 6.34497 169.006 6.63491 168.791 7.00024C168.609 7.36664 168.517 7.87004 168.517 8.51151V33.7772H175.253C176.291 33.7772 177.07 33.518 177.589 32.9987C178.108 32.4804 178.598 31.7328 179.056 30.7557L180.752 26.9568H182.035L181.576 35.1504H159.49Z" fill="#005CE5"/>
</g>
<mask id="mask1_726_243" style="mask-type:luminance" maskUnits="userSpaceOnUse" x="0" y="0" width="36" height="40">
<path d="M0.0566406 0H35.1384V39.779H0.0566406V0Z" fill="white"/>
</mask>
<g mask="url(#mask1_726_243)">
<path fill-rule="evenodd" clip-rule="evenodd" d="M20.7829 0.00109863H18.1425V5.2831H16.8223V0.00109863H6.25715L4.73321 2.64152L1.57483 8.10078L0.0566406 10.7412L1.58173 13.3828L14.1807 35.2037L15.959 38.2803L16.8223 39.7778V9.24834H7.02027L6.14665 10.7412L6.82345 11.8853H14.1807V29.9286L3.76751 11.8853L3.10682 10.7412L7.78224 2.64152H14.1807V5.2831H9.30503L7.78224 7.92467H27.1803L25.6575 5.2831H20.7829V2.64152H27.1826L31.8603 10.7412L31.1996 11.8853L20.7852 29.9286V11.8853H28.1494L28.8112 10.7412L27.9445 9.24834H18.1425V39.7778L19.0035 38.2803L20.7806 35.2037L33.3808 13.3828L34.9059 10.7412L33.3808 8.10078L30.2224 2.64152L28.703 0.00109863H20.7829Z" fill="#1B1B1B"/>
</g>
</svg>
